SplineFontDB: 3.0
FontName: Luna-ExtraBoldItalic
FullName: Luna Extra Bold Italic
FamilyName: Luna Extra Bold
Weight: Bold
Copyright: Copyright (c) 2013 - 2016, Juan Pablo del Peral [huertatipografica.com.ar], Cristiano Sobral [cssobral2013@gmail.com].
Version: 1.501;PS 001.000;hotconv 1.0.70;makeotf.lib2.5.58329 DEVELOPMENT
ItalicAngle: -7
UnderlinePosition: -223
UnderlineWidth: 135
Ascent: 1638
Descent: 410
sfntRevision: 0x00010000
LayerCount: 2
Layer: 0 1 "Back"  1
Layer: 1 1 "Fore"  0
XUID: [1021 633 1153022450 11853026]
FSType: 4
OS2Version: 3
OS2_WeightWidthSlopeOnly: 0
OS2_UseTypoMetrics: 1
CreationTime: 1386077824
ModificationTime: 1462128371
PfmFamily: 81
TTFWeight: 800
TTFWidth: 5
LineGap: 0
VLineGap: 0
Panose: 0 0 9 0 0 0 0 0 0 0
OS2TypoAscent: 1638
OS2TypoAOffset: 0
OS2TypoDescent: -410
OS2TypoDOffset: 0
OS2TypoLinegap: 0
OS2WinAscent: 2402
OS2WinAOffset: 0
OS2WinDescent: 685
OS2WinDOffset: 0
HheadAscent: 2402
HheadAOffset: 0
HheadDescent: -685
HheadDOffset: 0
OS2SubXSize: 1331
OS2SubYSize: 1229
OS2SubXOff: -18
OS2SubYOff: 154
OS2SupXSize: 1331
OS2SupYSize: 1229
OS2SupXOff: 88
OS2SupYOff: 717
OS2StrikeYSize: 135
OS2StrikeYPos: 573
OS2Vendor: 'UKWN'
OS2CodePages: 20000193.00000000
OS2UnicodeRanges: 20000007.00000000.00000000.00000000
Lookup: 1 0 0 "'aalt' Access All Alternates lookup 0"  {"'aalt' Access All Alternates lookup 0 subtable"  } ['aalt' ('DFLT' <'dflt' > 'grek' <'dflt' > 'latn' <'CAT ' 'ESP ' 'MOL ' 'NLD ' 'ROM ' 'TRK ' 'dflt' > ) ]
Lookup: 3 0 0 "'aalt' Access All Alternates lookup 1"  {"'aalt' Access All Alternates lookup 1 subtable"  } ['aalt' ('DFLT' <'dflt' > 'grek' <'dflt' > 'latn' <'CAT ' 'ESP ' 'MOL ' 'NLD ' 'ROM ' 'TRK ' 'dflt' > ) ]
Lookup: 6 0 0 "'locl' Localized Forms in Latin lookup 2"  {"'locl' Localized Forms in Latin lookup 2 contextual 0"  "'locl' Localized Forms in Latin lookup 2 contextual 1"  } ['locl' ('latn' <'CAT ' > ) ]

StartChar: exclam
Encoding: 33 33 4
Width: 620
GlyphClass: 2
Flags: W
LayerCount: 2
Fore
SplineSet
637 1449 m 1,0,-1
 431 547 l 1,1,-1
 232 518 l 1,2,-1
 201 554 l 1,3,-1
 286 1433 l 1,4,-1
 319 1474 l 1,5,-1
 601 1491 l 1,6,-1
 637 1449 l 1,0,-1
283 346 m 0,7,8
 365 346 365 346 409 300 c 128,-1,9
 453 254 453 254 453 172 c 0,10,11
 453 85 453 85 404 34 c 128,-1,12
 355 -17 355 -17 270 -17 c 0,13,14
 189 -17 189 -17 143.5 28.5 c 128,-1,15
 98 74 98 74 98 156 c 0,16,17
 98 243 98 243 148 294.5 c 128,-1,18
 198 346 198 346 283 346 c 0,7,8
EndSplineSet
EndChar

StartChar: quotedbl
Encoding: 34 34 5
Width: 854
GlyphClass: 2
Flags: W
LayerCount: 2
Fore
SplineSet
518 1413 m 1,0,-1
 364 891 l 1,1,-1
 201 864 l 1,2,-1
 177 886 l 1,3,-1
 230 1420 l 1,4,-1
 500 1436 l 1,5,-1
 518 1413 l 1,0,-1
880 1413 m 1,6,-1
 726 891 l 1,7,-1
 565 864 l 1,8,-1
 541 886 l 1,9,-1
 594 1420 l 1,10,-1
 864 1436 l 1,11,-1
 880 1413 l 1,6,-1
EndSplineSet
EndChar

StartChar: numbersign
Encoding: 35 35 6
Width: 1256
GlyphClass: 2
Flags: W
LayerCount: 2
Fore
SplineSet
973 788 m 1,0,-1
 933 565 l 1,1,-1
 1118 565 l 1,2,-1
 1138 545 l 1,3,-1
 1125 368 l 1,4,-1
 895 368 l 1,5,-1
 841 69 l 1,6,-1
 643 69 l 1,7,-1
 627 94 l 1,8,-1
 677 368 l 1,9,-1
 460 368 l 1,10,-1
 407 69 l 1,11,-1
 207 69 l 1,12,-1
 190 94 l 1,13,-1
 239 368 l 1,14,-1
 64 368 l 1,15,-1
 45 390 l 1,16,-1
 60 565 l 1,17,-1
 277 565 l 1,18,-1
 317 788 l 1,19,-1
 136 788 l 1,20,-1
 116 808 l 1,21,-1
 130 984 l 1,22,-1
 353 984 l 1,23,-1
 407 1280 l 1,24,-1
 598 1280 l 1,25,-1
 620 1255 l 1,26,-1
 571 984 l 1,27,-1
 788 984 l 1,28,-1
 841 1280 l 1,29,-1
 1036 1280 l 1,30,-1
 1058 1255 l 1,31,-1
 1009 984 l 1,32,-1
 1190 984 l 1,33,-1
 1210 962 l 1,34,-1
 1195 788 l 1,35,-1
 973 788 l 1,0,-1
752 788 m 1,36,-1
 536 788 l 1,37,-1
 496 565 l 1,38,-1
 712 565 l 1,39,-1
 752 788 l 1,36,-1
EndSplineSet
EndChar

StartChar: dollar
Encoding: 36 36 7
Width: 1014
GlyphClass: 2
Flags: W
LayerCount: 2
Fore
SplineSet
460 824 m 0,0,1
 460 800 460 800 479 779 c 128,-1,2
 498 758 498 758 528.5 742.5 c 128,-1,3
 559 727 559 727 598.5 709 c 128,-1,4
 638 691 638 691 679 673.5 c 128,-1,5
 720 656 720 656 759 628.5 c 128,-1,6
 798 601 798 601 829 569.5 c 128,-1,7
 860 538 860 538 878.5 490 c 128,-1,8
 897 442 897 442 897 384 c 0,9,10
 897 323 897 323 877 264.5 c 128,-1,11
 857 206 857 206 817.5 152.5 c 128,-1,12
 778 99 778 99 712 58 c 128,-1,13
 646 17 646 17 560 -4 c 1,14,-1
 526 -304 l 1,15,-1
 355 -304 l 1,16,-1
 332 -279 l 1,17,-1
 362 -22 l 1,18,19
 169 -13 169 -13 20 45 c 1,20,-1
 98 341 l 1,21,-1
 132 364 l 1,22,23
 204 297 204 297 294.5 256 c 128,-1,24
 385 215 385 215 453 215 c 0,25,26
 503 215 503 215 535 241 c 128,-1,27
 567 267 567 267 567 304 c 0,28,29
 567 329 567 329 548 349.5 c 128,-1,30
 529 370 529 370 498 385.5 c 128,-1,31
 467 401 467 401 427.5 419 c 128,-1,32
 388 437 388 437 347 454.5 c 128,-1,33
 306 472 306 472 266.5 499.5 c 128,-1,34
 227 527 227 527 196 558.5 c 128,-1,35
 165 590 165 590 146.5 638.5 c 128,-1,36
 128 687 128 687 128 746 c 0,37,38
 128 890 128 890 227.5 999 c 128,-1,39
 327 1108 327 1108 500 1141 c 1,40,-1
 533 1438 l 1,41,-1
 701 1438 l 1,42,-1
 730 1408 l 1,43,-1
 699 1150 l 1,44,45
 836 1140 836 1140 948 1094 c 1,46,-1
 871 810 l 1,47,-1
 822 799 l 1,48,49
 778 834 778 834 730 858.5 c 128,-1,50
 682 883 682 883 640.5 894.5 c 128,-1,51
 599 906 599 906 565 906 c 0,52,53
 516 906 516 906 488 882.5 c 128,-1,54
 460 859 460 859 460 824 c 0,0,1
EndSplineSet
EndChar

StartChar: percent
Encoding: 37 37 8
Width: 1950
GlyphClass: 2
Flags: W
LayerCount: 2
Fore
SplineSet
1627 1453 m 1,0,-1
 1643 1406 l 1,1,-1
 404 -207 l 1,2,-1
 268 -119 l 1,3,-1
 259 -85 l 1,4,-1
 1500 1538 l 1,5,-1
 1627 1453 l 1,0,-1
556 1453 m 0,6,7
 698 1453 698 1453 774 1370.5 c 128,-1,8
 850 1288 850 1288 850 1136 c 0,9,10
 850 900 850 900 736.5 767 c 128,-1,11
 623 634 623 634 415 634 c 0,12,13
 271 634 271 634 195 717.5 c 128,-1,14
 119 801 119 801 119 956 c 0,15,16
 119 1189 119 1189 233.5 1321 c 128,-1,17
 348 1453 348 1453 556 1453 c 0,6,7
507 1235 m 0,18,19
 330 1235 330 1235 330 991 c 0,20,21
 330 912 330 912 361 874.5 c 128,-1,22
 392 837 392 837 456 837 c 0,23,24
 555 837 555 837 596 900.5 c 128,-1,25
 637 964 637 964 637 1085 c 0,26,27
 637 1162 637 1162 605.5 1198.5 c 128,-1,28
 574 1235 574 1235 507 1235 c 0,18,19
1583 806 m 0,29,30
 1726 806 1726 806 1801.5 722.5 c 128,-1,31
 1877 639 1877 639 1877 486 c 0,32,33
 1877 331 1877 331 1826.5 219 c 128,-1,34
 1776 107 1776 107 1678 47 c 128,-1,35
 1580 -13 1580 -13 1442 -13 c 0,36,37
 1298 -13 1298 -13 1222 69.5 c 128,-1,38
 1146 152 1146 152 1146 306 c 0,39,40
 1146 541 1146 541 1260.5 673.5 c 128,-1,41
 1375 806 1375 806 1583 806 c 0,29,30
1534 588 m 0,42,43
 1447 588 1447 588 1403 528.5 c 128,-1,44
 1359 469 1359 469 1359 339 c 0,45,46
 1359 263 1359 263 1389 225 c 128,-1,47
 1419 187 1419 187 1482 187 c 0,48,49
 1582 187 1582 187 1622.5 250.5 c 128,-1,50
 1663 314 1663 314 1663 435 c 0,51,52
 1663 512 1663 512 1631.5 550 c 128,-1,53
 1600 588 1600 588 1534 588 c 0,42,43
EndSplineSet
EndChar

StartChar: ampersand
Encoding: 38 38 9
Width: 1442
GlyphClass: 2
Flags: W
LayerCount: 2
Fore
SplineSet
768 1464 m 0,0,1
 930 1464 930 1464 1129 1397 c 1,2,-1
 1050 1143 l 1,3,-1
 1009 1131 l 1,4,5
 833 1232 833 1232 710 1232 c 0,6,7
 612 1232 612 1232 560.5 1186 c 128,-1,8
 509 1140 509 1140 509 1047 c 0,9,10
 509 845 509 845 694 841 c 1,11,-1
 1195 871 l 1,12,-1
 1467 906 l 1,13,-1
 1498 873 l 1,14,-1
 1444 654 l 1,15,-1
 1146 645 l 1,16,-1
 1136 632 l 1,17,18
 1180 560 1180 560 1180 445 c 0,19,20
 1180 374 1180 374 1159 307.5 c 128,-1,21
 1138 241 1138 241 1091.5 180 c 128,-1,22
 1045 119 1045 119 977.5 74 c 128,-1,23
 910 29 910 29 811.5 2 c 128,-1,24
 713 -25 713 -25 594 -25 c 0,25,26
 438 -25 438 -25 324.5 20.5 c 128,-1,27
 211 66 211 66 151.5 150.5 c 128,-1,28
 92 235 92 235 92 351 c 0,29,30
 92 409 92 409 111 461 c 128,-1,31
 130 513 130 513 168 559.5 c 128,-1,32
 206 606 206 606 263 646 c 128,-1,33
 320 686 320 686 395 718 c 1,34,-1
 395 728 l 1,35,36
 230 845 230 845 230 1044 c 0,37,38
 230 1234 230 1234 374 1349 c 128,-1,39
 518 1464 518 1464 768 1464 c 0,0,1
846 634 m 1,40,-1
 573 622 l 1,41,42
 400 531 400 531 400 382 c 0,43,44
 400 289 400 289 460 239.5 c 128,-1,45
 520 190 520 190 632 190 c 0,46,47
 774 190 774 190 848 259.5 c 128,-1,48
 922 329 922 329 922 453 c 0,49,50
 922 572 922 572 846 634 c 1,40,-1
EndSplineSet
EndChar

StartChar: quotesingle
Encoding: 39 39 10
Width: 492
GlyphClass: 2
Flags: W
LayerCount: 2
Fore
SplineSet
518 1413 m 1,0,-1
 364 891 l 1,1,-1
 201 864 l 1,2,-1
 177 886 l 1,3,-1
 230 1420 l 1,4,-1
 500 1436 l 1,5,-1
 518 1413 l 1,0,-1
EndSplineSet
Substitution2: "'locl' Localized Forms in Latin lookup 12 subtable" puso
Substitution2: "'locl' Localized Forms in Latin lookup 10 subtable" puso
Substitution2: "'aalt' Access All Alternates lookup 0 subtable" puso
EndChar

StartChar: parenleft
Encoding: 40 40 11
Width: 669
GlyphClass: 2
Flags: W
LayerCount: 2
Fore
SplineSet
754 1370 m 1,0,-1
 750 1342 l 1,1,2
 681 1283 681 1283 625.5 1202 c 128,-1,3
 570 1121 570 1121 533.5 1030 c 128,-1,4
 497 939 497 939 470.5 845 c 128,-1,5
 444 751 444 751 430 654.5 c 128,-1,6
 416 558 416 558 410 478.5 c 128,-1,7
 404 399 404 399 404 324 c 0,8,9
 404 152 404 152 441.5 32 c 128,-1,10
 479 -88 479 -88 565 -179 c 1,11,-1
 560 -205 l 1,12,-1
 424 -308 l 1,13,-1
 392 -308 l 1,14,15
 254 -197 254 -197 191 -43 c 128,-1,16
 128 111 128 111 128 335 c 0,17,18
 128 398 128 398 131.5 461 c 128,-1,19
 135 524 135 524 143.5 594.5 c 128,-1,20
 152 665 152 665 165.5 732.5 c 128,-1,21
 179 800 179 800 200 871.5 c 128,-1,22
 221 943 221 943 248 1009 c 128,-1,23
 275 1075 275 1075 311.5 1141 c 128,-1,24
 348 1207 348 1207 392 1265 c 128,-1,25
 436 1323 436 1323 492 1376.5 c 128,-1,26
 548 1430 548 1430 611 1474 c 1,27,-1
 643 1474 l 1,28,-1
 754 1370 l 1,0,-1
EndSplineSet
EndChar

StartChar: parenright
Encoding: 41 41 12
Width: 669
GlyphClass: 2
Flags: W
LayerCount: 2
Fore
SplineSet
-69 -205 m 1,0,-1
 -64 -179 l 1,1,2
 4 -120 4 -120 60 -38.5 c 128,-1,3
 116 43 116 43 152.5 133.5 c 128,-1,4
 189 224 189 224 215.5 318.5 c 128,-1,5
 242 413 242 413 255.5 510 c 128,-1,6
 269 607 269 607 275 686.5 c 128,-1,7
 281 766 281 766 281 841 c 0,8,9
 281 1011 281 1011 243 1131.5 c 128,-1,10
 205 1252 205 1252 121 1342 c 1,11,-1
 125 1370 l 1,12,-1
 262 1474 l 1,13,-1
 292 1474 l 1,14,15
 431 1362 431 1362 494.5 1207.5 c 128,-1,16
 558 1053 558 1053 558 828 c 0,17,18
 558 746 558 746 552 665 c 128,-1,19
 546 584 546 584 530.5 491.5 c 128,-1,20
 515 399 515 399 491 312.5 c 128,-1,21
 467 226 467 226 428.5 136.5 c 128,-1,22
 390 47 390 47 341 -30.5 c 128,-1,23
 292 -108 292 -108 223 -180.5 c 128,-1,24
 154 -253 154 -253 72 -308 c 1,25,-1
 43 -308 l 1,26,-1
 -69 -205 l 1,0,-1
EndSplineSet
EndChar

StartChar: asterisk
Encoding: 42 42 13
Width: 863
GlyphClass: 2
Flags: W
LayerCount: 2
Fore
SplineSet
654 1643 m 1,0,-1
 583 1366 l 1,1,-1
 482 1355 l 1,2,-1
 464 1370 l 1,3,-1
 456 1632 l 1,4,5
 545 1663 545 1663 643 1663 c 1,6,-1
 654 1643 l 1,0,-1
437 1344 m 1,7,-1
 420 1244 l 1,8,-1
 398 1232 l 1,9,-1
 154 1301 l 1,10,11
 150 1390 150 1390 179 1491 c 1,12,-1
 203 1498 l 1,13,-1
 437 1344 l 1,7,-1
616 1346 m 1,14,-1
 855 1436 l 1,15,16
 908 1361 908 1361 942 1265 c 1,17,-1
 929 1250 l 1,18,-1
 652 1232 l 1,19,-1
 605 1323 l 1,20,-1
 616 1346 l 1,14,-1
641 1192 m 1,21,-1
 797 986 l 1,22,23
 758 927 758 927 665 850 c 1,24,-1
 643 857 l 1,25,-1
 545 1127 l 1,26,-1
 616 1195 l 1,27,-1
 641 1192 l 1,21,-1
500 1146 m 1,28,-1
 505 1123 l 1,29,-1
 366 904 l 1,30,31
 290 928 290 928 192 989 c 1,32,-1
 194 1012 l 1,33,-1
 411 1192 l 1,34,-1
 500 1146 l 1,28,-1
EndSplineSet
EndChar

StartChar: plus
Encoding: 43 43 14
Width: 1063
GlyphClass: 2
Flags: W
LayerCount: 2
Fore
SplineSet
714 1047 m 1,0,-1
 669 694 l 1,1,-1
 1020 694 l 1,2,-1
 1040 669 l 1,3,-1
 997 460 l 1,4,-1
 641 460 l 1,5,-1
 598 102 l 1,6,-1
 386 85 l 1,7,-1
 364 107 l 1,8,-1
 409 460 l 1,9,-1
 56 460 l 1,10,-1
 38 484 l 1,11,-1
 81 694 l 1,12,-1
 437 694 l 1,13,-1
 480 1052 l 1,14,-1
 692 1069 l 1,15,-1
 714 1047 l 1,0,-1
EndSplineSet
EndChar

StartChar: comma
Encoding: 44 44 15
Width: 510
GlyphClass: 2
Flags: W
LayerCount: 2
Fore
SplineSet
290 335 m 1,0,1
 392 248 392 248 392 128 c 0,2,3
 392 17 392 17 320.5 -86 c 128,-1,4
 249 -189 249 -189 98 -294 c 1,5,-1
 -11 -198 l 1,6,-1
 -15 -174 l 1,7,8
 109 -69 109 -69 109 53 c 0,9,10
 109 136 109 136 38 201 c 1,11,-1
 38 230 l 1,12,13
 162 299 162 299 290 335 c 1,0,1
EndSplineSet
EndChar

StartChar: hyphen
Encoding: 45 45 16
Width: 673
GlyphClass: 2
Flags: W
LayerCount: 2
Fore
SplineSet
637 703 m 1,0,-1
 611 489 l 1,1,-1
 72 407 l 1,2,-1
 49 433 l 1,3,-1
 74 647 l 1,4,-1
 614 728 l 1,5,-1
 637 703 l 1,0,-1
EndSplineSet
EndChar

StartChar: period
Encoding: 46 46 17
Width: 513
GlyphClass: 2
Flags: W
LayerCount: 2
Fore
SplineSet
219 346 m 0,0,1
 300 346 300 346 344 300 c 128,-1,2
 388 254 388 254 388 172 c 0,3,4
 388 85 388 85 339 34 c 128,-1,5
 290 -17 290 -17 205 -17 c 0,6,7
 123 -17 123 -17 78.5 28.5 c 128,-1,8
 34 74 34 74 34 156 c 0,9,10
 34 243 34 243 84 294.5 c 128,-1,11
 134 346 134 346 219 346 c 0,0,1
EndSplineSet
EndChar

StartChar: slash
Encoding: 47 47 18
Width: 631
GlyphClass: 2
Flags: W
LayerCount: 2
Fore
SplineSet
759 1491 m 1,0,-1
 174 -259 l 1,1,-1
 -64 -259 l 1,2,-1
 -85 -232 l 1,3,-1
 500 1521 l 1,4,-1
 735 1521 l 1,5,-1
 759 1491 l 1,0,-1
EndSplineSet
Substitution2: "'frac' Diagonal Fractions lookup 19 subtable" fraction
Substitution2: "'aalt' Access All Alternates lookup 0 subtable" fraction
EndChar

StartChar: zero
Encoding: 48 48 19
Width: 1073
GlyphClass: 2
Flags: W
LayerCount: 2
Fore
SplineSet
641 1329 m 0,0,1
 833 1329 833 1329 937.5 1192.5 c 128,-1,2
 1042 1056 1042 1056 1042 790 c 0,3,4
 1042 553 1042 553 974 369.5 c 128,-1,5
 906 186 906 186 775.5 82 c 128,-1,6
 645 -22 645 -22 471 -22 c 0,7,8
 273 -22 273 -22 167.5 114.5 c 128,-1,9
 62 251 62 251 62 516 c 0,10,11
 62 692 62 692 101.5 841 c 128,-1,12
 141 990 141 990 214 1098.5 c 128,-1,13
 287 1207 287 1207 396.5 1268 c 128,-1,14
 506 1329 506 1329 641 1329 c 0,0,1
588 1005 m 0,15,16
 520 1005 520 1005 471 974.5 c 128,-1,17
 422 944 422 944 393 885 c 128,-1,18
 364 826 364 826 350.5 746.5 c 128,-1,19
 337 667 337 667 337 562 c 0,20,21
 337 418 337 418 376 349.5 c 128,-1,22
 415 281 415 281 509 281 c 0,23,24
 641 281 641 281 704.5 396.5 c 128,-1,25
 768 512 768 512 768 726 c 0,26,27
 768 823 768 823 750 884 c 128,-1,28
 732 945 732 945 692 975 c 128,-1,29
 652 1005 652 1005 588 1005 c 0,15,16
EndSplineSet
Substitution2: "'case' Case-Sensitive Forms lookup 28 subtable" zero.lf
Substitution2: "'tnum' Tabular Numbers lookup 25 subtable" zero.tosf
Substitution2: "'lnum' Lining Figures lookup 23 subtable" zero.lf
Substitution2: "'frac' Diagonal Fractions lookup 20 subtable" zero.numr
Substitution2: "'dnom' Denominators lookup 18 subtable" zero.dnom
Substitution2: "'numr' Numerators lookup 17 subtable" zero.numr
Substitution2: "'sups' Superscript lookup 16 subtable" zerosuperior
Substitution2: "'sinf' Scientific Inferiors lookup 15 subtable" zero.sinf
AlternateSubs2: "'aalt' Access All Alternates lookup 1 subtable" zero.sinf zerosuperior zero.numr zero.dnom zero.lf zero.tosf
EndChar

StartChar: one
Encoding: 49 49 20
Width: 1059
GlyphClass: 2
Flags: W
LayerCount: 2
Fore
SplineSet
846 1291 m 1,0,-1
 726 467 l 1,1,-1
 686 0 l 1,2,-1
 332 0 l 1,3,-1
 402 431 l 1,4,-1
 462 931 l 1,5,-1
 128 873 l 1,6,-1
 107 891 l 1,7,-1
 141 1170 l 1,8,-1
 801 1329 l 1,9,-1
 846 1291 l 1,0,-1
EndSplineSet
Substitution2: "'ss02' Style Set 2 lookup 36 subtable" arrowleft
Substitution2: "'case' Case-Sensitive Forms lookup 28 subtable" one.lf
Substitution2: "'tnum' Tabular Numbers lookup 25 subtable" one.tosf
Substitution2: "'lnum' Lining Figures lookup 23 subtable" one.lf
Substitution2: "'frac' Diagonal Fractions lookup 20 subtable" one.numr
Substitution2: "'dnom' Denominators lookup 18 subtable" one.dnom
Substitution2: "'numr' Numerators lookup 17 subtable" one.numr
Substitution2: "'sups' Superscript lookup 16 subtable" onesuperior
Substitution2: "'sinf' Scientific Inferiors lookup 15 subtable" one.sinf
AlternateSubs2: "'aalt' Access All Alternates lookup 1 subtable" one.sinf onesuperior one.numr one.dnom one.lf one.tosf arrowleft
EndChar

StartChar: two
Encoding: 50 50 21
Width: 1061
GlyphClass: 2
Flags: W
LayerCount: 2
Fore
SplineSet
607 1329 m 0,0,1
 714 1329 714 1329 798.5 1289 c 128,-1,2
 883 1249 883 1249 931.5 1174.5 c 128,-1,3
 980 1100 980 1100 980 1005 c 0,4,5
 980 905 980 905 914 798.5 c 128,-1,6
 848 692 848 692 674 500 c 1,7,-1
 486 283 l 1,8,-1
 494 272 l 1,9,-1
 761 272 l 1,10,-1
 973 292 l 1,11,-1
 989 268 l 1,12,-1
 913 -15 l 1,13,-1
 625 0 l 1,14,-1
 105 0 l 1,15,-1
 22 -7 l 1,16,-1
 7 7 l 1,17,-1
 34 221 l 1,18,-1
 388 590 l 2,19,20
 400 603 400 603 425.5 631 c 128,-1,21
 451 659 451 659 462 671.5 c 128,-1,22
 473 684 473 684 494.5 709 c 128,-1,23
 516 734 516 734 526 746.5 c 128,-1,24
 536 759 536 759 552.5 780.5 c 128,-1,25
 569 802 569 802 577 815 c 128,-1,26
 585 828 585 828 595.5 846.5 c 128,-1,27
 606 865 606 865 610.5 878.5 c 128,-1,28
 615 892 615 892 618.5 907.5 c 128,-1,29
 622 923 622 923 622 937 c 0,30,31
 622 980 622 980 595.5 1006.5 c 128,-1,32
 569 1033 569 1033 518 1033 c 0,33,34
 452 1033 452 1033 368 991.5 c 128,-1,35
 284 950 284 950 205 877 c 1,36,-1
 168 877 l 1,37,-1
 145 1148 l 1,38,39
 217 1204 217 1204 293 1244 c 128,-1,40
 369 1284 369 1284 450 1306.5 c 128,-1,41
 531 1329 531 1329 607 1329 c 0,0,1
EndSplineSet
Substitution2: "'ss02' Style Set 2 lookup 36 subtable" arrowup
Substitution2: "'case' Case-Sensitive Forms lookup 28 subtable" two.lf
Substitution2: "'tnum' Tabular Numbers lookup 25 subtable" two.tosf
Substitution2: "'lnum' Lining Figures lookup 23 subtable" two.lf
Substitution2: "'frac' Diagonal Fractions lookup 20 subtable" two.numr
Substitution2: "'dnom' Denominators lookup 18 subtable" two.dnom
Substitution2: "'numr' Numerators lookup 17 subtable" two.numr
Substitution2: "'sups' Superscript lookup 16 subtable" twosuperior
Substitution2: "'sinf' Scientific Inferiors lookup 15 subtable" two.sinf
AlternateSubs2: "'aalt' Access All Alternates lookup 1 subtable" two.sinf twosuperior two.numr two.dnom two.lf two.tosf arrowup
EndChar

StartChar: three
Encoding: 51 51 22
Width: 1059
GlyphClass: 2
Flags: W
LayerCount: 2
Fore
SplineSet
585 1333 m 0,0,1
 763 1333 763 1333 873.5 1254.5 c 128,-1,2
 984 1176 984 1176 984 1050 c 0,3,4
 984 990 984 990 957.5 927 c 128,-1,5
 931 864 931 864 872.5 803 c 128,-1,6
 814 742 814 742 732 703 c 1,7,-1
 732 692 l 1,8,9
 834 649 834 649 883.5 587 c 128,-1,10
 933 525 933 525 933 426 c 0,11,12
 933 298 933 298 855.5 196.5 c 128,-1,13
 778 95 778 95 635.5 37.5 c 128,-1,14
 493 -20 493 -20 311 -20 c 0,15,16
 183 -20 183 -20 47 4 c 1,17,-1
 60 272 l 1,18,-1
 87 294 l 1,19,20
 214 245 214 245 339 245 c 0,21,22
 421 245 421 245 479 265 c 128,-1,23
 537 285 537 285 566.5 322.5 c 128,-1,24
 596 360 596 360 596 411 c 0,25,26
 596 465 596 465 559 492.5 c 128,-1,27
 522 520 522 520 445 522 c 1,28,-1
 277 522 l 1,29,-1
 264 545 l 1,30,-1
 301 784 l 1,31,-1
 420 788 l 2,32,33
 464 789 464 789 509.5 811 c 128,-1,34
 555 833 555 833 586.5 872.5 c 128,-1,35
 618 912 618 912 618 958 c 0,36,37
 618 988 618 988 604.5 1009 c 128,-1,38
 591 1030 591 1030 564 1041 c 128,-1,39
 537 1052 537 1052 498 1052 c 0,40,41
 387 1052 387 1052 228 960 c 1,42,-1
 192 960 l 1,43,-1
 170 1206 l 1,44,45
 387 1333 387 1333 585 1333 c 0,0,1
EndSplineSet
Substitution2: "'ss02' Style Set 2 lookup 36 subtable" arrowright
Substitution2: "'case' Case-Sensitive Forms lookup 28 subtable" three.lf
Substitution2: "'tnum' Tabular Numbers lookup 25 subtable" three.tosf
Substitution2: "'lnum' Lining Figures lookup 23 subtable" three.lf
Substitution2: "'frac' Diagonal Fractions lookup 20 subtable" three.numr
Substitution2: "'dnom' Denominators lookup 18 subtable" three.dnom
Substitution2: "'numr' Numerators lookup 17 subtable" three.numr
Substitution2: "'sups' Superscript lookup 16 subtable" threesuperior
Substitution2: "'sinf' Scientific Inferiors lookup 15 subtable" three.sinf
AlternateSubs2: "'aalt' Access All Alternates lookup 1 subtable" three.sinf threesuperior three.numr three.dnom three.lf three.tosf arrowright
EndChar

StartChar: four
Encoding: 52 52 23
Width: 1059
GlyphClass: 2
Flags: W
LayerCount: 2
Fore
SplineSet
976 294 m 1,0,-1
 810 299 l 1,1,-1
 788 15 l 1,2,-1
 768 -7 l 1,3,-1
 511 -22 l 1,4,-1
 498 -2 l 1,5,-1
 545 301 l 1,6,-1
 219 301 l 1,7,-1
 17 294 l 1,8,-1
 0 322 l 1,9,-1
 27 529 l 1,10,-1
 637 1308 l 1,11,-1
 935 1308 l 1,12,-1
 835 552 l 1,13,-1
 1003 552 l 1,14,-1
 1020 522 l 1,15,-1
 976 294 l 1,0,-1
311 552 m 1,16,-1
 583 552 l 1,17,-1
 630 942 l 1,18,-1
 609 942 l 1,19,-1
 311 552 l 1,16,-1
EndSplineSet
Substitution2: "'ss02' Style Set 2 lookup 36 subtable" arrowdown
Substitution2: "'case' Case-Sensitive Forms lookup 28 subtable" four.lf
Substitution2: "'tnum' Tabular Numbers lookup 25 subtable" four.tosf
Substitution2: "'lnum' Lining Figures lookup 23 subtable" four.lf
Substitution2: "'frac' Diagonal Fractions lookup 20 subtable" four.numr
Substitution2: "'dnom' Denominators lookup 18 subtable" four.dnom
Substitution2: "'numr' Numerators lookup 17 subtable" four.numr
Substitution2: "'sups' Superscript lookup 16 subtable" foursuperior
Substitution2: "'sinf' Scientific Inferiors lookup 15 subtable" four.sinf
AlternateSubs2: "'aalt' Access All Alternates lookup 1 subtable" four.sinf foursuperior four.numr four.dnom four.lf four.tosf arrowdown
EndChar

StartChar: five
Encoding: 53 53 24
Width: 1061
GlyphClass: 2
Flags: W
LayerCount: 2
Fore
SplineSet
1052 1301 m 1,0,-1
 986 1036 l 1,1,-1
 960 1012 l 1,2,-1
 741 1036 l 1,3,-1
 502 1036 l 1,4,-1
 473 833 l 1,5,-1
 611 803 l 1,6,7
 779 770 779 770 861.5 689 c 128,-1,8
 944 608 944 608 944 477 c 0,9,10
 944 370 944 370 895 276.5 c 128,-1,11
 846 183 846 183 760 116 c 128,-1,12
 674 49 674 49 553.5 11 c 128,-1,13
 433 -27 433 -27 294 -27 c 0,14,15
 176 -27 176 -27 32 0 c 1,16,-1
 43 262 l 1,17,-1
 66 286 l 1,18,19
 203 237 203 237 339 237 c 0,20,21
 421 237 421 237 482.5 260 c 128,-1,22
 544 283 544 283 576.5 325 c 128,-1,23
 609 367 609 367 609 422 c 0,24,25
 609 533 609 533 437 556 c 1,26,-1
 203 596 l 1,27,-1
 185 622 l 1,28,-1
 266 1276 l 1,29,-1
 308 1315 l 1,30,-1
 443 1308 l 1,31,-1
 788 1308 l 1,32,-1
 1033 1323 l 1,33,-1
 1052 1301 l 1,0,-1
EndSplineSet
Substitution2: "'ss02' Style Set 2 lookup 36 subtable" arrowupleft
Substitution2: "'case' Case-Sensitive Forms lookup 28 subtable" five.lf
Substitution2: "'tnum' Tabular Numbers lookup 25 subtable" five.tosf
Substitution2: "'lnum' Lining Figures lookup 23 subtable" five.lf
Substitution2: "'frac' Diagonal Fractions lookup 20 subtable" five.numr
Substitution2: "'dnom' Denominators lookup 18 subtable" five.dnom
Substitution2: "'numr' Numerators lookup 17 subtable" five.numr
Substitution2: "'sups' Superscript lookup 16 subtable" fivesuperior
Substitution2: "'sinf' Scientific Inferiors lookup 15 subtable" five.sinf
AlternateSubs2: "'aalt' Access All Alternates lookup 1 subtable" five.sinf fivesuperior five.numr five.dnom five.lf five.tosf arrowupleft
EndChar

StartChar: six
Encoding: 54 54 25
Width: 1059
GlyphClass: 2
Flags: W
LayerCount: 2
Fore
SplineSet
1014 1178 m 1,0,-1
 1012 1146 l 1,1,2
 602 1020 602 1020 453 790 c 1,3,-1
 469 768 l 1,4,5
 566 820 566 820 645 820 c 0,6,7
 709 820 709 820 765 800 c 128,-1,8
 821 780 821 780 862.5 744.5 c 128,-1,9
 904 709 904 709 933.5 662 c 128,-1,10
 963 615 963 615 978 560 c 128,-1,11
 993 505 993 505 993 447 c 0,12,13
 993 383 993 383 975.5 318.5 c 128,-1,14
 958 254 958 254 918.5 191.5 c 128,-1,15
 879 129 879 129 822.5 81.5 c 128,-1,16
 766 34 766 34 681 4.5 c 128,-1,17
 596 -25 596 -25 494 -25 c 0,18,19
 281 -25 281 -25 164 96 c 128,-1,20
 47 217 47 217 47 426 c 0,21,22
 47 556 47 556 93.5 683 c 128,-1,23
 140 810 140 810 230.5 928 c 128,-1,24
 321 1046 321 1046 463 1150.5 c 128,-1,25
 605 1255 605 1255 786 1333 c 1,26,-1
 803 1333 l 1,27,-1
 1014 1178 l 1,0,-1
541 578 m 0,28,29
 451 578 451 578 362 518 c 1,30,31
 358 459 358 459 358 428 c 0,32,33
 358 314 358 314 390 258.5 c 128,-1,34
 422 203 422 203 507 203 c 0,35,36
 553 203 553 203 587.5 220 c 128,-1,37
 622 237 622 237 641.5 267.5 c 128,-1,38
 661 298 661 298 670 335 c 128,-1,39
 679 372 679 372 679 415 c 0,40,41
 679 456 679 456 671 486 c 128,-1,42
 663 516 663 516 646 536.5 c 128,-1,43
 629 557 629 557 602.5 567.5 c 128,-1,44
 576 578 576 578 541 578 c 0,28,29
EndSplineSet
Substitution2: "'ss02' Style Set 2 lookup 36 subtable" arrowupright
Substitution2: "'case' Case-Sensitive Forms lookup 28 subtable" six.lf
Substitution2: "'tnum' Tabular Numbers lookup 25 subtable" six.tosf
Substitution2: "'lnum' Lining Figures lookup 23 subtable" six.lf
Substitution2: "'frac' Diagonal Fractions lookup 20 subtable" six.numr
Substitution2: "'dnom' Denominators lookup 18 subtable" six.dnom
Substitution2: "'numr' Numerators lookup 17 subtable" six.numr
Substitution2: "'sups' Superscript lookup 16 subtable" sixsuperior
Substitution2: "'sinf' Scientific Inferiors lookup 15 subtable" six.sinf
AlternateSubs2: "'aalt' Access All Alternates lookup 1 subtable" six.sinf sixsuperior six.numr six.dnom six.lf six.tosf arrowupright
EndChar

StartChar: seven
Encoding: 55 55 26
Width: 1059
GlyphClass: 2
Flags: W
LayerCount: 2
Fore
SplineSet
453 1308 m 1,0,-1
 948 1308 l 1,1,-1
 1069 1312 l 1,2,-1
 1038 1061 l 1,3,-1
 594 328 l 1,4,-1
 411 -34 l 1,5,-1
 143 45 l 1,6,-1
 128 100 l 1,7,-1
 699 1022 l 1,8,-1
 364 1022 l 1,9,-1
 138 997 l 1,10,-1
 125 1027 l 1,11,-1
 181 1317 l 1,12,-1
 453 1308 l 1,0,-1
EndSplineSet
Substitution2: "'ss02' Style Set 2 lookup 36 subtable" arrowdownright
Substitution2: "'case' Case-Sensitive Forms lookup 28 subtable" seven.lf
Substitution2: "'tnum' Tabular Numbers lookup 25 subtable" seven.tosf
Substitution2: "'lnum' Lining Figures lookup 23 subtable" seven.lf
Substitution2: "'frac' Diagonal Fractions lookup 20 subtable" seven.numr
Substitution2: "'dnom' Denominators lookup 18 subtable" seven.dnom
Substitution2: "'numr' Numerators lookup 17 subtable" seven.numr
Substitution2: "'sups' Superscript lookup 16 subtable" sevensuperior
Substitution2: "'sinf' Scientific Inferiors lookup 15 subtable" seven.sinf
AlternateSubs2: "'aalt' Access All Alternates lookup 1 subtable" seven.sinf sevensuperior seven.numr seven.dnom seven.lf seven.tosf arrowdownright
EndChar

StartChar: eight
Encoding: 56 56 27
Width: 1061
GlyphClass: 2
Flags: W
LayerCount: 2
Fore
SplineSet
618 1331 m 0,0,1
 739 1331 739 1331 828.5 1293 c 128,-1,2
 918 1255 918 1255 965 1184 c 128,-1,3
 1012 1113 1012 1113 1012 1018 c 0,4,5
 1012 945 1012 945 983 883.5 c 128,-1,6
 954 822 954 822 907 778 c 128,-1,7
 860 734 860 734 790 697 c 1,8,-1
 788 681 l 1,9,10
 832 655 832 655 863.5 628.5 c 128,-1,11
 895 602 895 602 922.5 566.5 c 128,-1,12
 950 531 950 531 964 484.5 c 128,-1,13
 978 438 978 438 978 382 c 0,14,15
 978 202 978 202 844.5 90 c 128,-1,16
 711 -22 711 -22 494 -22 c 0,17,18
 285 -22 285 -22 165 67 c 128,-1,19
 45 156 45 156 45 304 c 0,20,21
 45 425 45 425 112.5 501 c 128,-1,22
 180 577 180 577 313 630 c 1,23,-1
 315 645 l 1,24,25
 265 677 265 677 231 712.5 c 128,-1,26
 197 748 197 748 174.5 805 c 128,-1,27
 152 862 152 862 152 933 c 0,28,29
 152 1111 152 1111 280 1221 c 128,-1,30
 408 1331 408 1331 618 1331 c 0,0,1
596 1094 m 0,31,32
 522 1094 522 1094 478.5 1054.5 c 128,-1,33
 435 1015 435 1015 435 953 c 0,34,35
 435 926 435 926 442.5 904 c 128,-1,36
 450 882 450 882 463 865.5 c 128,-1,37
 476 849 476 849 497.5 833.5 c 128,-1,38
 519 818 519 818 541.5 806.5 c 128,-1,39
 564 795 564 795 596 782 c 1,40,41
 663 822 663 822 699 867 c 128,-1,42
 735 912 735 912 735 971.5 c 128,-1,43
 735 1031 735 1031 699.5 1062.5 c 128,-1,44
 664 1094 664 1094 596 1094 c 0,31,32
507 538 m 1,45,46
 420 505 420 505 377.5 464.5 c 128,-1,47
 335 424 335 424 335 355 c 0,48,49
 335 284 335 284 377 245.5 c 128,-1,50
 419 207 419 207 500 207 c 0,51,52
 560 207 560 207 605 228.5 c 128,-1,53
 650 250 650 250 672 284.5 c 128,-1,54
 694 319 694 319 694 360 c 0,55,56
 694 393 694 393 681 419.5 c 128,-1,57
 668 446 668 446 639.5 467.5 c 128,-1,58
 611 489 611 489 582 504 c 128,-1,59
 553 519 553 519 507 538 c 1,45,46
EndSplineSet
Substitution2: "'ss02' Style Set 2 lookup 36 subtable" arrowdownleft
Substitution2: "'case' Case-Sensitive Forms lookup 28 subtable" eight.lf
Substitution2: "'tnum' Tabular Numbers lookup 25 subtable" eight.tosf
Substitution2: "'lnum' Lining Figures lookup 23 subtable" eight.lf
Substitution2: "'frac' Diagonal Fractions lookup 20 subtable" eight.numr
Substitution2: "'dnom' Denominators lookup 18 subtable" eight.dnom
Substitution2: "'numr' Numerators lookup 17 subtable" eight.numr
Substitution2: "'sups' Superscript lookup 16 subtable" eightsuperior
Substitution2: "'sinf' Scientific Inferiors lookup 15 subtable" eight.sinf
AlternateSubs2: "'aalt' Access All Alternates lookup 1 subtable" eight.sinf eightsuperior eight.numr eight.dnom eight.lf eight.tosf arrowdownleft
EndChar

StartChar: nine
Encoding: 57 57 28
Width: 1059
GlyphClass: 2
Flags: W
LayerCount: 2
Fore
SplineSet
605 1333 m 0,0,1
 818 1333 818 1333 935 1212 c 128,-1,2
 1052 1091 1052 1091 1052 882 c 0,3,4
 1052 752 1052 752 1005.5 625 c 128,-1,5
 959 498 959 498 868.5 380 c 128,-1,6
 778 262 778 262 636 157.5 c 128,-1,7
 494 53 494 53 313 -25 c 1,8,-1
 294 -25 l 1,9,-1
 85 130 l 1,10,-1
 87 164 l 1,11,12
 502 290 502 290 645 518 c 1,13,-1
 630 541 l 1,14,15
 533 489 533 489 453 489 c 0,16,17
 374 489 374 489 307 520 c 128,-1,18
 240 551 240 551 196.5 603 c 128,-1,19
 153 655 153 655 129 722 c 128,-1,20
 105 789 105 789 105 862 c 0,21,22
 105 926 105 926 122.5 990.5 c 128,-1,23
 140 1055 140 1055 179.5 1117 c 128,-1,24
 219 1179 219 1179 276 1227 c 128,-1,25
 333 1275 333 1275 418 1304 c 128,-1,26
 503 1333 503 1333 605 1333 c 0,0,1
560 730 m 0,27,28
 648 730 648 730 737 790 c 1,29,30
 741 849 741 849 741 880 c 0,31,32
 741 994 741 994 709 1049.5 c 128,-1,33
 677 1105 677 1105 592 1105 c 0,34,35
 546 1105 546 1105 511.5 1088 c 128,-1,36
 477 1071 477 1071 457.5 1040.5 c 128,-1,37
 438 1010 438 1010 429 973 c 128,-1,38
 420 936 420 936 420 893 c 0,39,40
 420 811 420 811 454 770.5 c 128,-1,41
 488 730 488 730 560 730 c 0,27,28
EndSplineSet
Substitution2: "'case' Case-Sensitive Forms lookup 28 subtable" nine.lf
Substitution2: "'tnum' Tabular Numbers lookup 25 subtable" nine.tosf
Substitution2: "'lnum' Lining Figures lookup 23 subtable" nine.lf
Substitution2: "'frac' Diagonal Fractions lookup 20 subtable" nine.numr
Substitution2: "'dnom' Denominators lookup 18 subtable" nine.dnom
Substitution2: "'numr' Numerators lookup 17 subtable" nine.numr
Substitution2: "'sups' Superscript lookup 16 subtable" ninesuperior
Substitution2: "'sinf' Scientific Inferiors lookup 15 subtable" nine.sinf
AlternateSubs2: "'aalt' Access All Alternates lookup 1 subtable" nine.sinf ninesuperior nine.numr nine.dnom nine.lf nine.tosf
EndChar

StartChar: colon
Encoding: 58 58 29
Width: 513
GlyphClass: 2
Flags: W
LayerCount: 2
Fore
SplineSet
292 926 m 0,0,1
 372 926 372 926 417 880 c 128,-1,2
 462 834 462 834 462 752 c 0,3,4
 462 666 462 666 412.5 615.5 c 128,-1,5
 363 565 363 565 279 565 c 0,6,7
 196 565 196 565 151.5 610 c 128,-1,8
 107 655 107 655 107 737 c 0,9,10
 107 824 107 824 157 875 c 128,-1,11
 207 926 207 926 292 926 c 0,0,1
221 346 m 0,12,13
 301 346 301 346 345.5 300 c 128,-1,14
 390 254 390 254 390 172 c 0,15,16
 390 86 390 86 340.5 34.5 c 128,-1,17
 291 -17 291 -17 207 -17 c 0,18,19
 124 -17 124 -17 80 28 c 128,-1,20
 36 73 36 73 36 156 c 0,21,22
 36 243 36 243 85.5 294.5 c 128,-1,23
 135 346 135 346 221 346 c 0,12,13
EndSplineSet
EndChar

StartChar: semicolon
Encoding: 59 59 30
Width: 510
GlyphClass: 2
Flags: W
LayerCount: 2
Fore
SplineSet
281 926 m 0,0,1
 361 926 361 926 406 880 c 128,-1,2
 451 834 451 834 451 752 c 0,3,4
 451 666 451 666 401.5 615.5 c 128,-1,5
 352 565 352 565 268 565 c 0,6,7
 185 565 185 565 140.5 610 c 128,-1,8
 96 655 96 655 96 737 c 0,9,10
 96 824 96 824 146 875 c 128,-1,11
 196 926 196 926 281 926 c 0,0,1
281 335 m 1,12,13
 384 248 384 248 384 128 c 0,14,15
 384 17 384 17 312 -86 c 128,-1,16
 240 -189 240 -189 89 -294 c 1,17,-1
 -20 -198 l 1,18,-1
 -22 -174 l 1,19,20
 100 -68 100 -68 100 53 c 0,21,22
 100 136 100 136 29 201 c 1,23,-1
 32 230 l 1,24,25
 151 298 151 298 281 335 c 1,12,13
EndSplineSet
EndChar

StartChar: less
Encoding: 60 60 31
Width: 1101
GlyphClass: 2
Flags: W
LayerCount: 2
Fore
SplineSet
1044 862 m 1,0,-1
 1027 837 l 1,1,-1
 332 594 l 1,2,-1
 330 576 l 1,3,-1
 967 341 l 1,4,-1
 897 147 l 1,5,-1
 862 125 l 1,6,-1
 72 437 l 1,7,-1
 105 716 l 1,8,-1
 132 748 l 1,9,-1
 995 1058 l 1,10,-1
 1044 862 l 1,0,-1
EndSplineSet
EndChar

StartChar: equal
Encoding: 61 61 32
Width: 1066
GlyphClass: 2
Flags: W
LayerCount: 2
Fore
SplineSet
1063 888 m 1,0,-1
 1044 679 l 1,1,-1
 102 679 l 1,2,-1
 81 703 l 1,3,-1
 98 913 l 1,4,-1
 1040 913 l 1,5,-1
 1063 888 l 1,0,-1
1009 449 m 1,6,-1
 991 239 l 1,7,-1
 49 239 l 1,8,-1
 27 264 l 1,9,-1
 45 473 l 1,10,-1
 986 473 l 1,11,-1
 1009 449 l 1,6,-1
EndSplineSet
EndChar

StartChar: greater
Encoding: 62 62 33
Width: 1122
GlyphClass: 2
Flags: W
LayerCount: 2
Fore
SplineSet
1036 748 m 1,0,-1
 1056 716 l 1,1,-1
 1022 437 l 1,2,-1
 152 125 l 1,3,-1
 125 147 l 1,4,-1
 102 341 l 1,5,-1
 797 576 l 1,6,-1
 799 594 l 1,7,-1
 160 837 l 1,8,-1
 152 862 l 1,9,-1
 247 1058 l 1,10,-1
 1036 748 l 1,0,-1
EndSplineSet
EndChar

StartChar: question
Encoding: 63 63 34
Width: 769
GlyphClass: 2
Flags: W
LayerCount: 2
Fore
SplineSet
264 1482 m 1,0,-1
 296 1500 l 1,1,2
 584 1485 584 1485 736 1399 c 128,-1,3
 888 1313 888 1313 888 1163 c 0,4,5
 888 1063 888 1063 822.5 973.5 c 128,-1,6
 757 884 757 884 639 822 c 2,7,-1
 477 737 l 1,8,-1
 473 724 l 1,9,-1
 464 547 l 1,10,-1
 219 511 l 1,11,-1
 196 536 l 1,12,-1
 207 824 l 1,13,-1
 223 846 l 1,14,-1
 431 942 l 2,15,16
 569 1006 569 1006 569 1107 c 0,17,18
 569 1179 569 1179 484 1218 c 128,-1,19
 399 1257 399 1257 201 1270 c 1,20,-1
 181 1304 l 1,21,-1
 264 1482 l 1,0,-1
326 346 m 0,22,23
 406 346 406 346 451 300 c 128,-1,24
 496 254 496 254 496 172 c 0,25,26
 496 85 496 85 446 34 c 128,-1,27
 396 -17 396 -17 311 -17 c 0,28,29
 229 -17 229 -17 185 28.5 c 128,-1,30
 141 74 141 74 141 156 c 0,31,32
 141 243 141 243 190.5 294.5 c 128,-1,33
 240 346 240 346 326 346 c 0,22,23
EndSplineSet
EndChar

StartChar: at
Encoding: 64 64 35
Width: 1900
GlyphClass: 2
Flags: W
LayerCount: 2
Fore
SplineSet
1864 707 m 0,0,1
 1864 483 1864 483 1761.5 325.5 c 128,-1,2
 1659 168 1659 168 1463 85.5 c 128,-1,3
 1267 3 1267 3 989 0 c 1,4,-1
 1031 308 l 1,5,-1
 1001 308 l 1,6,7
 898 120 898 120 775 -13 c 1,8,-1
 730 -13 l 1,9,10
 595 30 595 30 538.5 117 c 128,-1,11
 482 204 482 204 482 341 c 0,12,13
 482 424 482 424 501 507.5 c 128,-1,14
 520 591 520 591 561.5 672 c 128,-1,15
 603 753 603 753 662.5 821.5 c 128,-1,16
 722 890 722 890 808.5 944 c 128,-1,17
 895 998 895 998 997 1027 c 1,18,-1
 1012 1027 l 1,19,-1
 1197 986 l 1,20,-1
 1380 1033 l 1,21,-1
 1404 1020 l 1,22,-1
 1299 252 l 1,23,-1
 1299 234 l 1,24,25
 1457 263 1457 263 1547.5 387.5 c 128,-1,26
 1638 512 1638 512 1638 697 c 0,27,28
 1638 859 1638 859 1564 980 c 128,-1,29
 1490 1101 1490 1101 1351.5 1164 c 128,-1,30
 1213 1227 1213 1227 1029 1221 c 0,31,32
 918 1218 918 1218 817.5 1189.5 c 128,-1,33
 717 1161 717 1161 635 1112.5 c 128,-1,34
 553 1064 553 1064 487 995 c 128,-1,35
 421 926 421 926 376 842 c 128,-1,36
 331 758 331 758 307 659 c 128,-1,37
 283 560 283 560 283 451 c 0,38,39
 283 312 283 312 322.5 193.5 c 128,-1,40
 362 75 362 75 435.5 -13.5 c 128,-1,41
 509 -102 509 -102 613 -164.5 c 128,-1,42
 717 -227 717 -227 848 -258.5 c 128,-1,43
 979 -290 979 -290 1131 -290 c 1,44,-1
 1143 -322 l 1,45,-1
 1052 -482 l 1,46,47
 827 -480 827 -480 643.5 -420 c 128,-1,48
 460 -360 460 -360 329.5 -248 c 128,-1,49
 199 -136 199 -136 127.5 32.5 c 128,-1,50
 56 201 56 201 56 411 c 0,51,52
 56 535 56 535 79.5 651.5 c 128,-1,53
 103 768 103 768 149.5 870 c 128,-1,54
 196 972 196 972 262 1060 c 128,-1,55
 328 1148 328 1148 414 1217 c 128,-1,56
 500 1286 500 1286 601 1335 c 128,-1,57
 702 1384 702 1384 821 1410 c 128,-1,58
 940 1436 940 1436 1069 1436 c 0,59,60
 1247 1436 1247 1436 1394.5 1385.5 c 128,-1,61
 1542 1335 1542 1335 1646 1242 c 128,-1,62
 1750 1149 1750 1149 1807 1012 c 128,-1,63
 1864 875 1864 875 1864 707 c 0,0,1
815 279 m 0,64,65
 851 279 851 279 923 388.5 c 128,-1,66
 995 498 995 498 1082 703 c 1,67,-1
 1089 756 l 1,68,-1
 948 799 l 1,69,70
 859 799 859 799 810 706.5 c 128,-1,71
 761 614 761 614 761 458 c 0,72,73
 761 279 761 279 815 279 c 0,64,65
EndSplineSet
EndChar

StartChar: A
Encoding: 65 65 36
Width: 1338
GlyphClass: 2
Flags: W
AnchorPoint: "Anchor-1" 0 0 basechar 0
AnchorPoint: "Anchor-0" 788 1439 basechar 0
LayerCount: 2
Fore
SplineSet
1246 0 m 1,0,-1
 888 0 l 1,1,-1
 877 205 l 1,2,-1
 867 294 l 1,3,-1
 614 299 l 1,4,-1
 395 292 l 1,5,-1
 366 226 l 1,6,-1
 296 0 l 1,7,-1
 -51 0 l 1,8,-1
 585 1440 l 1,9,-1
 1009 1440 l 1,10,-1
 1246 0 l 1,0,-1
833 560 m 1,11,-1
 761 1114 l 1,12,-1
 739 1114 l 1,13,-1
 507 562 l 1,14,-1
 667 558 l 1,15,-1
 833 560 l 1,11,-1
EndSplineSet
Position2: "'cpsp' Capital Spacing lookup 0 subtable" dx=16 dy=0 dh=33 dv=0
EndChar

StartChar: B
Encoding: 66 66 37
Width: 1318
GlyphClass: 2
Flags: W
LayerCount: 2
Fore
SplineSet
1007 743 m 1,0,1
 1135 697 1135 697 1190.5 626.5 c 128,-1,2
 1246 556 1246 556 1246 443 c 0,3,4
 1246 216 1246 216 1069.5 101.5 c 128,-1,5
 893 -13 893 -13 522 -13 c 0,6,7
 355 -13 355 -13 96 0 c 1,8,-1
 168 426 l 1,9,-1
 275 1440 l 1,10,-1
 810 1442 l 2,11,12
 1022 1442 1022 1442 1143.5 1359.5 c 128,-1,13
 1265 1277 1265 1277 1265 1118 c 0,14,15
 1265 1036 1265 1036 1237 965.5 c 128,-1,16
 1209 895 1209 895 1150.5 838 c 128,-1,17
 1092 781 1092 781 1007 743 c 1,0,1
536 839 m 1,18,-1
 724 833 l 1,19,20
 783 849 783 849 822 878 c 128,-1,21
 861 907 861 907 880 951 c 128,-1,22
 899 995 899 995 899 1054 c 0,23,24
 899 1108 899 1108 878.5 1138 c 128,-1,25
 858 1168 858 1168 808 1182.5 c 128,-1,26
 758 1197 758 1197 669 1197 c 1,27,-1
 588 1195 l 1,28,-1
 536 839 l 1,18,-1
607 232 m 0,29,30
 738 232 738 232 812 288 c 128,-1,31
 886 344 886 344 886 445 c 0,32,33
 886 489 886 489 869 520 c 128,-1,34
 852 551 852 551 819 570 c 128,-1,35
 786 589 786 589 735 601 c 1,36,-1
 502 596 l 1,37,-1
 482 460 l 1,38,-1
 462 241 l 1,39,40
 573 232 573 232 607 232 c 0,29,30
EndSplineSet
Position2: "'cpsp' Capital Spacing lookup 0 subtable" dx=16 dy=0 dh=33 dv=0
EndChar

StartChar: C
Encoding: 67 67 38
Width: 1140
GlyphClass: 2
Flags: W
AnchorPoint: "Anchor-1" 709 0 basechar 0
AnchorPoint: "Anchor-0" 760 1439 basechar 0
LayerCount: 2
Fore
SplineSet
857 1460 m 0,0,1
 1066 1460 1066 1460 1227 1384 c 1,2,-1
 1131 1094 l 1,3,-1
 1103 1080 l 1,4,5
 1045 1122 1045 1122 971.5 1146 c 128,-1,6
 898 1170 898 1170 822 1170 c 0,7,8
 633 1170 633 1170 542 1038 c 128,-1,9
 451 906 451 906 451 639 c 0,10,11
 451 275 451 275 728 275 c 0,12,13
 802 275 802 275 886 296 c 128,-1,14
 970 317 970 317 1042 353 c 1,15,-1
 1069 335 l 1,16,-1
 1005 43 l 1,17,18
 846 -22 846 -22 681 -22 c 0,19,20
 388 -22 388 -22 230 134.5 c 128,-1,21
 72 291 72 291 72 580 c 0,22,23
 72 854 72 854 163 1051.5 c 128,-1,24
 254 1249 254 1249 431 1354.5 c 128,-1,25
 608 1460 608 1460 857 1460 c 0,0,1
EndSplineSet
Substitution2: "Single Substitution lookup 41 subtable" C.ss01
Substitution2: "'ss01' Style Set 1 lookup 35 subtable" C.ss01
Substitution2: "'aalt' Access All Alternates lookup 0 subtable" C.ss01
Position2: "'cpsp' Capital Spacing lookup 0 subtable" dx=16 dy=0 dh=33 dv=0
EndChar

StartChar: D
Encoding: 68 68 39
Width: 1452
GlyphClass: 2
Flags: W
AnchorPoint: "Anchor-1" 0 0 basechar 0
AnchorPoint: "Anchor-0" 768 1439 basechar 0
LayerCount: 2
Fore
SplineSet
272 1440 m 1,0,-1
 850 1449 l 1,1,2
 1034 1449 1034 1449 1165.5 1383.5 c 128,-1,3
 1297 1318 1297 1318 1366.5 1191 c 128,-1,4
 1436 1064 1436 1064 1436 884 c 0,5,6
 1436 604 1436 604 1343.5 402.5 c 128,-1,7
 1251 201 1251 201 1066.5 92 c 128,-1,8
 882 -17 882 -17 620 -17 c 0,9,10
 399 -17 399 -17 96 0 c 1,11,-1
 94 0 l 1,12,-1
 166 426 l 1,13,-1
 272 1440 l 1,0,-1
701 252 m 0,14,15
 873 252 873 252 967 393 c 128,-1,16
 1061 534 1061 534 1061 831 c 0,17,18
 1061 950 1061 950 1032.5 1025 c 128,-1,19
 1004 1100 1004 1100 948.5 1135 c 128,-1,20
 893 1170 893 1170 806 1170 c 0,21,22
 715 1170 715 1170 592 1159 c 1,23,-1
 489 460 l 1,24,-1
 473 270 l 1,25,26
 606 252 606 252 701 252 c 0,14,15
EndSplineSet
Substitution2: "Single Substitution lookup 41 subtable" D.ss01
Substitution2: "'ss01' Style Set 1 lookup 35 subtable" D.ss01
Substitution2: "'aalt' Access All Alternates lookup 0 subtable" D.ss01
Position2: "'cpsp' Capital Spacing lookup 0 subtable" dx=16 dy=0 dh=33 dv=0
EndChar

StartChar: E
Encoding: 69 69 40
Width: 1146
GlyphClass: 2
Flags: W
AnchorPoint: "Anchor-1" 645 0 basechar 0
AnchorPoint: "Anchor-0" 730 1439 basechar 0
LayerCount: 2
Fore
SplineSet
592 1161 m 1,0,-1
 549 867 l 1,1,-1
 782 864 l 1,2,-1
 1012 871 l 1,3,-1
 1029 846 l 1,4,-1
 973 585 l 1,5,-1
 724 592 l 1,6,-1
 509 590 l 1,7,-1
 492 460 l 1,8,-1
 473 277 l 1,9,-1
 707 275 l 1,10,-1
 1063 288 l 1,11,-1
 1078 262 l 1,12,-1
 1025 0 l 1,13,-1
 94 0 l 1,14,-1
 164 426 l 1,15,-1
 272 1440 l 1,16,-1
 1214 1440 l 1,17,-1
 1232 1413 l 1,18,-1
 1174 1152 l 1,19,-1
 835 1163 l 1,20,-1
 592 1161 l 1,0,-1
EndSplineSet
Position2: "'cpsp' Capital Spacing lookup 0 subtable" dx=16 dy=0 dh=33 dv=0
EndChar

StartChar: F
Encoding: 70 70 41
Width: 1021
GlyphClass: 2
Flags: W
LayerCount: 2
Fore
SplineSet
592 1161 m 1,0,-1
 543 822 l 1,1,-1
 718 820 l 1,2,-1
 967 826 l 1,3,-1
 984 799 l 1,4,-1
 929 538 l 1,5,-1
 661 545 l 1,6,-1
 502 545 l 1,7,-1
 492 460 l 1,8,-1
 449 0 l 1,9,-1
 94 0 l 1,10,-1
 164 426 l 1,11,-1
 272 1440 l 1,12,-1
 1154 1440 l 1,13,-1
 1172 1413 l 1,14,-1
 1114 1150 l 1,15,-1
 775 1163 l 1,16,-1
 592 1161 l 1,0,-1
EndSplineSet
Position2: "'cpsp' Capital Spacing lookup 0 subtable" dx=16 dy=0 dh=33 dv=0
EndChar

StartChar: G
Encoding: 71 71 42
Width: 1316
GlyphClass: 2
Flags: W
AnchorPoint: "Anchor-1" 711 0 basechar 0
AnchorPoint: "Anchor-0" 819 1439 basechar 0
LayerCount: 2
Fore
SplineSet
916 1460 m 0,0,1
 1030 1460 1030 1460 1141 1440 c 128,-1,2
 1252 1420 1252 1420 1340 1382 c 1,3,-1
 1223 1063 l 1,4,-1
 1192 1063 l 1,5,6
 1091 1122 1091 1122 1012 1148 c 128,-1,7
 933 1174 933 1174 837 1174 c 0,8,9
 759 1174 759 1174 699 1156 c 128,-1,10
 639 1138 639 1138 589 1095.5 c 128,-1,11
 539 1053 539 1053 506.5 985 c 128,-1,12
 474 917 474 917 456.5 814.5 c 128,-1,13
 439 712 439 712 439 576 c 0,14,15
 439 400 439 400 508 325 c 128,-1,16
 577 250 577 250 730 250 c 0,17,18
 748 250 748 250 763.5 251 c 128,-1,19
 779 252 779 252 800.5 256.5 c 128,-1,20
 822 261 822 261 832.5 263.5 c 128,-1,21
 843 266 843 266 875 275 c 1,22,-1
 891 379 l 1,23,-1
 913 609 l 1,24,-1
 1242 632 l 1,25,-1
 1212 437 l 1,26,-1
 1167 72 l 1,27,28
 1035 23 1035 23 921 0.5 c 128,-1,29
 807 -22 807 -22 688 -22 c 0,30,31
 387 -22 387 -22 228 132 c 128,-1,32
 69 286 69 286 69 567 c 0,33,34
 69 852 69 852 166 1051.5 c 128,-1,35
 263 1251 263 1251 453 1355.5 c 128,-1,36
 643 1460 643 1460 916 1460 c 0,0,1
EndSplineSet
Position2: "'cpsp' Capital Spacing lookup 0 subtable" dx=16 dy=0 dh=33 dv=0
EndChar

StartChar: H
Encoding: 72 72 43
Width: 1544
GlyphClass: 2
Flags: W
AnchorPoint: "Anchor-1" 0 0 basechar 0
AnchorPoint: "Anchor-0" 886 1439 basechar 0
LayerCount: 2
Fore
SplineSet
1500 1440 m 1,0,-1
 1357 460 l 1,1,-1
 1315 0 l 1,2,-1
 960 0 l 1,3,-1
 1033 426 l 1,4,-1
 1050 573 l 1,5,-1
 761 578 l 1,6,-1
 505 571 l 1,7,-1
 489 460 l 1,8,-1
 449 0 l 1,9,-1
 94 0 l 1,10,-1
 166 426 l 1,11,-1
 272 1440 l 1,12,-1
 632 1440 l 1,13,-1
 547 867 l 1,14,-1
 818 859 l 1,15,-1
 1078 864 l 1,16,-1
 1138 1440 l 1,17,-1
 1500 1440 l 1,0,-1
EndSplineSet
Position2: "'cpsp' Capital Spacing lookup 0 subtable" dx=16 dy=0 dh=33 dv=0
EndChar

StartChar: I
Encoding: 73 73 44
Width: 677
GlyphClass: 2
Flags: W
AnchorPoint: "Anchor-1" 0 0 basechar 0
AnchorPoint: "Anchor-0" 449 1439 basechar 0
LayerCount: 2
Fore
SplineSet
489 460 m 1,0,-1
 449 0 l 1,1,-1
 94 0 l 1,2,-1
 166 426 l 1,3,-1
 272 1440 l 1,4,-1
 632 1440 l 1,5,-1
 489 460 l 1,0,-1
EndSplineSet
Substitution2: "Single Substitution lookup 41 subtable" I.ss01
Substitution2: "'ss01' Style Set 1 lookup 35 subtable" I.ss01
Substitution2: "'aalt' Access All Alternates lookup 0 subtable" I.ss01
Position2: "'cpsp' Capital Spacing lookup 0 subtable" dx=16 dy=0 dh=33 dv=0
EndChar

StartChar: J
Encoding: 74 74 45
Width: 763
GlyphClass: 2
Flags: W
AnchorPoint: "Anchor-1" 0 0 basechar 0
AnchorPoint: "Anchor-0" 442 1439 basechar 0
LayerCount: 2
Fore
SplineSet
707 1440 m 1,0,-1
 567 475 l 1,1,-1
 549 272 l 1,2,3
 536 174 536 174 503.5 100.5 c 128,-1,4
 471 27 471 27 410 -35.5 c 128,-1,5
 349 -98 349 -98 256.5 -147 c 128,-1,6
 164 -196 164 -196 29 -241 c 1,7,-1
 -49 -56 l 1,8,-1
 -47 -27 l 1,9,10
 88 39 88 39 148 107 c 128,-1,11
 208 175 208 175 221 281 c 2,12,-1
 241 439 l 1,13,-1
 322 1183 l 1,14,-1
 109 1178 l 1,15,-1
 89 1203 l 1,16,-1
 134 1440 l 1,17,-1
 707 1440 l 1,0,-1
EndSplineSet
Position2: "'cpsp' Capital Spacing lookup 0 subtable" dx=16 dy=0 dh=33 dv=0
EndChar

StartChar: K
Encoding: 75 75 46
Width: 1323
GlyphClass: 2
Flags: W
AnchorPoint: "Anchor-1" 671 0 basechar 0
AnchorPoint: "Anchor-0" 664 1439 basechar 0
LayerCount: 2
Fore
SplineSet
1422 1440 m 1,0,-1
 871 743 l 1,1,2
 1038 442 1038 442 1295 74 c 1,3,-1
 1284 36 l 1,4,5
 1096 -10 1096 -10 926 -25 c 1,6,-1
 891 -2 l 1,7,8
 668 407 668 407 524 712 c 1,9,-1
 489 460 l 1,10,-1
 447 0 l 1,11,-1
 92 0 l 1,12,-1
 166 426 l 1,13,-1
 272 1440 l 1,14,-1
 632 1440 l 1,15,-1
 538 792 l 1,16,-1
 944 1295 l 1,17,-1
 1042 1440 l 1,18,-1
 1422 1440 l 1,0,-1
EndSplineSet
Position2: "'cpsp' Capital Spacing lookup 0 subtable" dx=16 dy=0 dh=33 dv=0
EndChar

StartChar: L
Encoding: 76 76 47
Width: 967
GlyphClass: 2
Flags: W
AnchorPoint: "Anchor-1" 464 0 basechar 0
AnchorPoint: "Anchor-0" 434 1439 basechar 0
LayerCount: 2
Fore
SplineSet
935 266 m 1,0,-1
 880 0 l 1,1,-1
 85 0 l 1,2,-1
 156 426 l 1,3,-1
 264 1440 l 1,4,-1
 622 1440 l 1,5,-1
 482 460 l 1,6,-1
 467 292 l 1,7,-1
 920 292 l 1,8,-1
 935 266 l 1,0,-1
EndSplineSet
Substitution2: "Single Substitution lookup 41 subtable" L.ss01
Substitution2: "'ss01' Style Set 1 lookup 35 subtable" L.ss01
Substitution2: "'aalt' Access All Alternates lookup 0 subtable" L.ss01
Position2: "'cpsp' Capital Spacing lookup 0 subtable" dx=16 dy=0 dh=33 dv=0
EndChar

StartChar: M
Encoding: 77 77 48
Width: 1758
GlyphClass: 2
Flags: W
LayerCount: 2
Fore
SplineSet
1606 0 m 1,0,-1
 1291 0 l 1,1,-1
 1329 437 l 1,2,-1
 1348 922 l 1,3,-1
 1327 922 l 1,4,-1
 946 145 l 1,5,-1
 677 145 l 1,6,-1
 522 922 l 1,7,-1
 500 922 l 1,8,-1
 400 469 l 1,9,-1
 315 0 l 1,10,-1
 17 0 l 1,11,-1
 337 1440 l 1,12,-1
 746 1440 l 1,13,-1
 773 1230 l 1,14,-1
 877 605 l 1,15,-1
 899 605 l 1,16,-1
 1174 1223 l 1,17,-1
 1259 1440 l 1,18,-1
 1661 1440 l 1,19,-1
 1606 0 l 1,0,-1
EndSplineSet
Substitution2: "Single Substitution lookup 41 subtable" M.ss01
Substitution2: "'ss01' Style Set 1 lookup 35 subtable" M.ss01
Substitution2: "'aalt' Access All Alternates lookup 0 subtable" M.ss01
Position2: "'cpsp' Capital Spacing lookup 0 subtable" dx=16 dy=0 dh=33 dv=0
EndChar

StartChar: N
Encoding: 78 78 49
Width: 1542
GlyphClass: 2
Flags: W
AnchorPoint: "Anchor-1" 709 0 basechar 0
AnchorPoint: "Anchor-0" 886 1439 basechar 0
LayerCount: 2
Fore
SplineSet
1357 453 m 1,0,-1
 1317 0 l 1,1,-1
 933 0 l 1,2,-1
 541 901 l 1,3,-1
 518 901 l 1,4,-1
 467 505 l 1,5,-1
 417 0 l 1,6,-1
 94 0 l 1,7,-1
 166 424 l 1,8,-1
 272 1440 l 1,9,-1
 654 1440 l 1,10,-1
 1050 538 l 1,11,-1
 1071 538 l 1,12,-1
 1172 1427 l 1,13,-1
 1502 1446 l 1,14,-1
 1357 453 l 1,0,-1
EndSplineSet
Position2: "'cpsp' Capital Spacing lookup 0 subtable" dx=16 dy=0 dh=33 dv=0
EndChar

StartChar: O
Encoding: 79 79 50
Width: 1432
GlyphClass: 2
Flags: W
AnchorPoint: "Anchor-1" 0 0 basechar 0
AnchorPoint: "Anchor-0" 828 1439 basechar 0
LayerCount: 2
Fore
SplineSet
833 1462 m 0,0,1
 1110 1462 1110 1462 1261.5 1307 c 128,-1,2
 1413 1152 1413 1152 1413 848 c 0,3,4
 1413 654 1413 654 1362.5 494 c 128,-1,5
 1312 334 1312 334 1217 218.5 c 128,-1,6
 1122 103 1122 103 977 39 c 128,-1,7
 832 -25 832 -25 650 -25 c 0,8,9
 375 -25 375 -25 223.5 133.5 c 128,-1,10
 72 292 72 292 72 598 c 0,11,12
 72 792 72 792 122 951 c 128,-1,13
 172 1110 172 1110 267.5 1223.5 c 128,-1,14
 363 1337 363 1337 507 1399.5 c 128,-1,15
 651 1462 651 1462 833 1462 c 0,0,1
792 1176 m 0,16,17
 724 1176 724 1176 670.5 1158.5 c 128,-1,18
 617 1141 617 1141 573 1099.5 c 128,-1,19
 529 1058 529 1058 500 992 c 128,-1,20
 471 926 471 926 455 828 c 128,-1,21
 439 730 439 730 439 601 c 0,22,23
 439 408 439 408 494.5 325.5 c 128,-1,24
 550 243 550 243 686 243 c 0,25,26
 754 243 754 243 807.5 261 c 128,-1,27
 861 279 861 279 905 321 c 128,-1,28
 949 363 949 363 977.5 429.5 c 128,-1,29
 1006 496 1006 496 1022 595 c 128,-1,30
 1038 694 1038 694 1038 824 c 0,31,32
 1038 1015 1038 1015 983 1095.5 c 128,-1,33
 928 1176 928 1176 792 1176 c 0,16,17
EndSplineSet
Position2: "'cpsp' Capital Spacing lookup 0 subtable" dx=16 dy=0 dh=33 dv=0
EndChar

StartChar: P
Encoding: 80 80 51
Width: 1251
GlyphClass: 2
Flags: W
LayerCount: 2
Fore
SplineSet
272 1440 m 1,0,-1
 844 1442 l 2,1,2
 1053 1442 1053 1442 1172 1342 c 128,-1,3
 1291 1242 1291 1242 1291 1054 c 0,4,5
 1291 921 1291 921 1244 808 c 128,-1,6
 1197 695 1197 695 1112 614 c 128,-1,7
 1027 533 1027 533 903.5 488 c 128,-1,8
 780 443 780 443 632 443 c 2,9,-1
 489 443 l 1,10,-1
 449 0 l 1,11,-1
 94 0 l 1,12,-1
 166 426 l 1,13,-1
 272 1440 l 1,0,-1
526 705 m 1,14,-1
 718 697 l 1,15,16
 916 764 916 764 916 997 c 0,17,18
 916 1091 916 1091 868.5 1137 c 128,-1,19
 821 1183 821 1183 716 1188 c 1,20,-1
 594 1180 l 1,21,-1
 526 705 l 1,14,-1
EndSplineSet
Position2: "'cpsp' Capital Spacing lookup 0 subtable" dx=16 dy=0 dh=33 dv=0
EndChar

StartChar: Q
Encoding: 81 81 52
Width: 1436
GlyphClass: 2
Flags: W
LayerCount: 2
Fore
SplineSet
1540 -185 m 1,0,-1
 1549 -221 l 1,1,2
 1467 -358 1467 -358 1361 -447 c 1,3,-1
 1335 -458 l 1,4,5
 951 -295 951 -295 665 -25 c 1,6,-1
 645 -25 l 2,7,8
 371 -25 371 -25 221.5 133 c 128,-1,9
 72 291 72 291 72 598 c 0,10,11
 72 792 72 792 122.5 951 c 128,-1,12
 173 1110 173 1110 269 1223.5 c 128,-1,13
 365 1337 365 1337 510 1399.5 c 128,-1,14
 655 1462 655 1462 837 1462 c 0,15,16
 1113 1462 1113 1462 1263 1307.5 c 128,-1,17
 1413 1153 1413 1153 1413 848 c 0,18,19
 1413 565 1413 565 1306.5 357 c 128,-1,20
 1200 149 1200 149 1001 51 c 1,21,22
 1127 -27 1127 -27 1262 -86.5 c 128,-1,23
 1397 -146 1397 -146 1540 -185 c 1,0,-1
439 601 m 0,24,25
 439 408 439 408 494.5 325.5 c 128,-1,26
 550 243 550 243 686 243 c 0,27,28
 754 243 754 243 807.5 261 c 128,-1,29
 861 279 861 279 905 321 c 128,-1,30
 949 363 949 363 977.5 429.5 c 128,-1,31
 1006 496 1006 496 1022 595 c 128,-1,32
 1038 694 1038 694 1038 824 c 0,33,34
 1038 1015 1038 1015 983 1095.5 c 128,-1,35
 928 1176 928 1176 792 1176 c 0,36,37
 724 1176 724 1176 670.5 1158.5 c 128,-1,38
 617 1141 617 1141 573 1099.5 c 128,-1,39
 529 1058 529 1058 500 992 c 128,-1,40
 471 926 471 926 455 828 c 128,-1,41
 439 730 439 730 439 601 c 0,24,25
EndSplineSet
Substitution2: "Single Substitution lookup 41 subtable" Q.corta
Position2: "'cpsp' Capital Spacing lookup 0 subtable" dx=16 dy=0 dh=33 dv=0
EndChar

StartChar: R
Encoding: 82 82 53
Width: 1329
GlyphClass: 2
Flags: W
AnchorPoint: "Anchor-1" 602 0 basechar 0
AnchorPoint: "Anchor-0" 779 1439 basechar 0
LayerCount: 2
Fore
SplineSet
1293 1069 m 0,0,1
 1293 911 1293 911 1211 780 c 128,-1,2
 1129 649 1129 649 982 565 c 1,3,4
 1105 323 1105 323 1250 83 c 1,5,-1
 1244 45 l 1,6,7
 1063 -12 1063 -12 884 -25 c 1,8,-1
 852 4 l 1,9,10
 745 267 745 267 679 467 c 1,11,-1
 489 467 l 1,12,-1
 489 460 l 1,13,-1
 449 0 l 1,14,-1
 94 0 l 1,15,-1
 166 426 l 1,16,-1
 272 1440 l 1,17,-1
 846 1442 l 2,18,19
 1055 1442 1055 1442 1174 1344.5 c 128,-1,20
 1293 1247 1293 1247 1293 1069 c 0,0,1
529 732 m 1,21,-1
 724 724 l 1,22,23
 823 760 823 760 869.5 830.5 c 128,-1,24
 916 901 916 901 916 1012 c 0,25,26
 916 1098 916 1098 866.5 1140.5 c 128,-1,27
 817 1183 817 1183 716 1188 c 1,28,-1
 594 1180 l 1,29,-1
 529 732 l 1,21,-1
EndSplineSet
Position2: "'cpsp' Capital Spacing lookup 0 subtable" dx=16 dy=0 dh=33 dv=0
EndChar

StartChar: S
Encoding: 83 83 54
Width: 1120
GlyphClass: 2
Flags: W
AnchorPoint: "Anchor-1" 498 0 basechar 0
AnchorPoint: "Anchor-0" 681 1439 basechar 0
LayerCount: 2
Fore
SplineSet
743 1462 m 0,0,1
 938 1462 938 1462 1125 1386 c 1,2,-1
 1033 1089 l 1,3,-1
 980 1067 l 1,4,5
 930 1104 930 1104 876 1131 c 128,-1,6
 822 1158 822 1158 772.5 1171.5 c 128,-1,7
 723 1185 723 1185 681 1185 c 0,8,9
 604 1185 604 1185 556.5 1147.5 c 128,-1,10
 509 1110 509 1110 509 1056 c 0,11,12
 509 1025 509 1025 527.5 997.5 c 128,-1,13
 546 970 546 970 577.5 947 c 128,-1,14
 609 924 609 924 649.5 901.5 c 128,-1,15
 690 879 690 879 735 855 c 128,-1,16
 780 831 780 831 825 805 c 128,-1,17
 870 779 870 779 911 744.5 c 128,-1,18
 952 710 952 710 983.5 670.5 c 128,-1,19
 1015 631 1015 631 1033.5 577.5 c 128,-1,20
 1052 524 1052 524 1052 462 c 0,21,22
 1052 363 1052 363 1007.5 274.5 c 128,-1,23
 963 186 963 186 885 120.5 c 128,-1,24
 807 55 807 55 693.5 16.5 c 128,-1,25
 580 -22 580 -22 449 -22 c 0,26,27
 227 -22 227 -22 9 66 c 1,28,-1
 96 386 l 1,29,-1
 134 407 l 1,30,31
 220 329 220 329 324 286 c 128,-1,32
 428 243 428 243 509 243 c 0,33,34
 554 243 554 243 589 254 c 128,-1,35
 624 265 624 265 646 284 c 128,-1,36
 668 303 668 303 679 327 c 128,-1,37
 690 351 690 351 690 377 c 0,38,39
 690 395 690 395 683.5 412.5 c 128,-1,40
 677 430 677 430 669 443.5 c 128,-1,41
 661 457 661 457 643 472.5 c 128,-1,42
 625 488 625 488 612 498.5 c 128,-1,43
 599 509 599 509 572.5 524.5 c 128,-1,44
 546 540 546 540 530.5 548 c 128,-1,45
 515 556 515 556 484 573 c 0,46,47
 450 591 450 591 432 600.5 c 128,-1,48
 414 610 414 610 381 629.5 c 128,-1,49
 348 649 348 649 329.5 662.5 c 128,-1,50
 311 676 311 676 283.5 698.5 c 128,-1,51
 256 721 256 721 239.5 740.5 c 128,-1,52
 223 760 223 760 204 787 c 128,-1,53
 185 814 185 814 175 841.5 c 128,-1,54
 165 869 165 869 158.5 903 c 128,-1,55
 152 937 152 937 152 973 c 0,56,57
 152 1075 152 1075 196.5 1165.5 c 128,-1,58
 241 1256 241 1256 319 1321 c 128,-1,59
 397 1386 397 1386 507.5 1424 c 128,-1,60
 618 1462 618 1462 743 1462 c 0,0,1
EndSplineSet
Position2: "'cpsp' Capital Spacing lookup 0 subtable" dx=16 dy=0 dh=33 dv=0
EndChar

StartChar: T
Encoding: 84 84 55
Width: 1118
GlyphClass: 2
Flags: W
AnchorPoint: "Anchor-1" 495 0 basechar 0
AnchorPoint: "Anchor-0" 671 1439 basechar 0
LayerCount: 2
Fore
SplineSet
1203 1413 m 1,0,-1
 1150 1152 l 1,1,-1
 877 1165 l 1,2,-1
 815 1165 l 1,3,-1
 716 460 l 1,4,-1
 674 0 l 1,5,-1
 319 0 l 1,6,-1
 392 426 l 1,7,-1
 473 1165 l 1,8,-1
 409 1165 l 1,9,-1
 128 1152 l 1,10,-1
 109 1178 l 1,11,-1
 164 1440 l 1,12,-1
 1188 1440 l 1,13,-1
 1203 1413 l 1,0,-1
EndSplineSet
Position2: "'cpsp' Capital Spacing lookup 0 subtable" dx=16 dy=0 dh=33 dv=0
EndChar

StartChar: U
Encoding: 85 85 56
Width: 1414
GlyphClass: 2
Flags: W
AnchorPoint: "Anchor-1" 0 0 basechar 0
AnchorPoint: "Anchor-0" 821 1439 basechar 0
LayerCount: 2
Fore
SplineSet
1306 710 m 1,0,-1
 1280 505 l 1,1,2
 1249 250 1249 250 1088 114 c 128,-1,3
 927 -22 927 -22 643 -22 c 0,4,5
 396 -22 396 -22 257.5 85.5 c 128,-1,6
 119 193 119 193 119 392 c 0,7,8
 119 441 119 441 125 498 c 1,9,-1
 156 714 l 1,10,-1
 237 1440 l 1,11,-1
 590 1440 l 1,12,-1
 464 545 l 1,13,14
 460 490 460 490 460 471 c 0,15,16
 460 399 460 399 482.5 353.5 c 128,-1,17
 505 308 505 308 552 286 c 128,-1,18
 599 264 599 264 671 264 c 0,19,20
 801 264 801 264 869.5 330 c 128,-1,21
 938 396 938 396 953 536 c 2,22,-1
 1050 1440 l 1,23,-1
 1406 1440 l 1,24,-1
 1306 710 l 1,0,-1
EndSplineSet
Position2: "'cpsp' Capital Spacing lookup 0 subtable" dx=16 dy=0 dh=33 dv=0
EndChar

StartChar: V
Encoding: 86 86 57
Width: 1312
GlyphClass: 2
Flags: W
LayerCount: 2
Fore
SplineSet
792 0 m 1,0,-1
 368 0 l 1,1,-1
 130 1440 l 1,2,-1
 489 1440 l 1,3,-1
 500 1232 l 1,4,-1
 618 324 l 1,5,-1
 639 324 l 1,6,-1
 1012 1212 l 1,7,-1
 1080 1440 l 1,8,-1
 1427 1440 l 1,9,-1
 792 0 l 1,0,-1
EndSplineSet
Substitution2: "Single Substitution lookup 41 subtable" V.ss01
Substitution2: "'ss01' Style Set 1 lookup 35 subtable" V.ss01
Substitution2: "'aalt' Access All Alternates lookup 0 subtable" V.ss01
Position2: "'cpsp' Capital Spacing lookup 0 subtable" dx=16 dy=0 dh=33 dv=0
EndChar

StartChar: W
Encoding: 87 87 58
Width: 1990
GlyphClass: 2
Flags: W
AnchorPoint: "Anchor-1" 0 0 basechar 0
AnchorPoint: "Anchor-0" 1062 1439 basechar 0
LayerCount: 2
Fore
SplineSet
1474 0 m 1,0,-1
 1101 0 l 1,1,-1
 997 627 l 1,2,-1
 978 627 l 1,3,-1
 724 0 l 1,4,-1
 346 0 l 1,5,-1
 154 1440 l 1,6,-1
 500 1440 l 1,7,-1
 498 1246 l 1,8,-1
 594 362 l 1,9,-1
 616 362 l 1,10,-1
 916 1097 l 1,11,-1
 867 1440 l 1,12,-1
 1227 1440 l 1,13,-1
 1230 1210 l 1,14,-1
 1340 362 l 1,15,-1
 1359 362 l 1,16,-1
 1706 1225 l 1,17,-1
 1770 1440 l 1,18,-1
 2098 1440 l 1,19,-1
 1474 0 l 1,0,-1
EndSplineSet
Position2: "'cpsp' Capital Spacing lookup 0 subtable" dx=16 dy=0 dh=33 dv=0
EndChar

StartChar: X
Encoding: 88 88 59
Width: 1361
GlyphClass: 2
Flags: W
LayerCount: 2
Fore
SplineSet
935 739 m 1,0,-1
 1280 0 l 1,1,-1
 864 0 l 1,2,-1
 815 156 l 1,3,-1
 661 477 l 1,4,-1
 402 136 l 1,5,-1
 319 0 l 1,6,-1
 -43 0 l 1,7,-1
 482 724 l 1,8,-1
 138 1440 l 1,9,-1
 556 1440 l 1,10,-1
 607 1282 l 1,11,-1
 752 976 l 1,12,-1
 986 1299 l 1,13,-1
 1067 1440 l 1,14,-1
 1438 1440 l 1,15,-1
 935 739 l 1,0,-1
EndSplineSet
Substitution2: "Single Substitution lookup 41 subtable" X.ss01
Substitution2: "'ss01' Style Set 1 lookup 35 subtable" X.ss01
Substitution2: "'aalt' Access All Alternates lookup 0 subtable" X.ss01
Position2: "'cpsp' Capital Spacing lookup 0 subtable" dx=16 dy=0 dh=33 dv=0
EndChar

StartChar: Y
Encoding: 89 89 60
Width: 1256
GlyphClass: 2
Flags: W
AnchorPoint: "Anchor-1" 0 0 basechar 0
AnchorPoint: "Anchor-0" 743 1439 basechar 0
LayerCount: 2
Fore
SplineSet
771 475 m 1,0,-1
 756 392 l 1,1,-1
 724 0 l 1,2,-1
 371 0 l 1,3,-1
 437 392 l 1,4,-1
 445 480 l 1,5,-1
 113 1440 l 1,6,-1
 482 1440 l 1,7,-1
 500 1333 l 1,8,-1
 647 826 l 1,9,-1
 669 826 l 1,10,-1
 967 1321 l 1,11,-1
 1025 1440 l 1,12,-1
 1391 1440 l 1,13,-1
 771 475 l 1,0,-1
EndSplineSet
Position2: "'cpsp' Capital Spacing lookup 0 subtable" dx=16 dy=0 dh=33 dv=0
EndChar

StartChar: Z
Encoding: 90 90 61
Width: 1220
GlyphClass: 2
Flags: W
AnchorPoint: "Anchor-1" 0 0 basechar 0
AnchorPoint: "Anchor-0" 630 1439 basechar 0
LayerCount: 2
Fore
SplineSet
1227 1185 m 1,0,-1
 451 266 l 1,1,-1
 877 266 l 1,2,-1
 1129 286 l 1,3,-1
 1138 268 l 1,4,-1
 1078 -9 l 1,5,-1
 730 0 l 1,6,-1
 192 0 l 1,7,-1
 0 -11 l 1,8,-1
 32 243 l 1,9,-1
 818 1172 l 1,10,-1
 411 1172 l 1,11,-1
 160 1152 l 1,12,-1
 149 1167 l 1,13,-1
 210 1444 l 1,14,-1
 511 1440 l 1,15,-1
 1112 1440 l 1,16,-1
 1261 1442 l 1,17,-1
 1227 1185 l 1,0,-1
EndSplineSet
Position2: "'cpsp' Capital Spacing lookup 0 subtable" dx=16 dy=0 dh=33 dv=0
EndChar

StartChar: bracketleft
Encoding: 91 91 62
Width: 664
GlyphClass: 2
Flags: W
LayerCount: 2
Fore
SplineSet
777 1429 m 1,0,-1
 756 1274 l 1,1,-1
 522 1244 l 1,2,-1
 362 -76 l 1,3,-1
 588 -107 l 1,4,-1
 567 -264 l 1,5,-1
 552 -279 l 1,6,-1
 58 -257 l 1,7,-1
 181 585 l 1,8,-1
 266 1425 l 1,9,-1
 763 1446 l 1,10,-1
 777 1429 l 1,0,-1
EndSplineSet
EndChar

StartChar: backslash
Encoding: 92 92 63
Width: 874
GlyphClass: 2
Flags: W
LayerCount: 2
Fore
SplineSet
360 1521 m 1,0,-1
 822 -232 l 1,1,-1
 799 -259 l 1,2,-1
 560 -259 l 1,3,-1
 98 1491 l 1,4,-1
 125 1521 l 1,5,-1
 360 1521 l 1,0,-1
EndSplineSet
EndChar

StartChar: bracketright
Encoding: 93 93 64
Width: 664
GlyphClass: 2
Flags: W
LayerCount: 2
Fore
SplineSet
-96 -262 m 1,0,-1
 -76 -107 l 1,1,-1
 156 -76 l 1,2,-1
 317 1246 l 1,3,-1
 94 1274 l 1,4,-1
 111 1431 l 1,5,-1
 130 1446 l 1,6,-1
 620 1425 l 1,7,-1
 500 585 l 1,8,-1
 415 -257 l 1,9,-1
 -85 -279 l 1,10,-1
 -96 -262 l 1,0,-1
EndSplineSet
EndChar

StartChar: asciicircum
Encoding: 94 94 65
Width: 999
GlyphClass: 2
Flags: W
LayerCount: 2
Fore
SplineSet
944 339 m 1,0,-1
 918 308 l 1,1,-1
 718 264 l 1,2,-1
 560 873 l 1,3,-1
 543 873 l 1,4,-1
 226 264 l 1,5,-1
 196 247 l 1,6,-1
 9 322 l 1,7,-1
 415 1094 l 1,8,-1
 449 1112 l 1,9,-1
 728 1112 l 1,10,-1
 944 339 l 1,0,-1
EndSplineSet
EndChar

StartChar: underscore
Encoding: 95 95 66
Width: 986
GlyphClass: 2
Flags: W
LayerCount: 2
Fore
SplineSet
929 -223 m 1,0,-1
 888 -417 l 1,1,-1
 -128 -417 l 1,2,-1
 -145 -392 l 1,3,-1
 -105 -201 l 1,4,-1
 911 -201 l 1,5,-1
 929 -223 l 1,0,-1
EndSplineSet
EndChar

StartChar: grave
Encoding: 96 96 67
Width: 869
GlyphClass: 2
Flags: W
LayerCount: 2
Fore
SplineSet
375 1638 m 1,0,-1
 407 1640 l 1,1,2
 586 1481 586 1481 826 1293 c 1,3,-1
 746 1163 l 1,4,-1
 714 1161 l 1,5,6
 542 1254 542 1254 257 1417 c 1,7,-1
 250 1451 l 1,8,-1
 375 1638 l 1,0,-1
EndSplineSet
EndChar

StartChar: a
Encoding: 97 97 68
Width: 1050
GlyphClass: 2
Flags: W
AnchorPoint: "Anchor-1" 0 0 basechar 0
AnchorPoint: "Anchor-0" 577 1044 basechar 0
LayerCount: 2
Fore
SplineSet
993 1052 m 1,0,-1
 886 254 l 1,1,-1
 877 13 l 1,2,-1
 556 -9 l 1,3,-1
 598 301 l 1,4,-1
 567 301 l 1,5,6
 467 117 467 117 341 -22 c 1,7,-1
 296 -22 l 1,8,9
 154 23 154 23 95 113.5 c 128,-1,10
 36 204 36 204 36 346 c 0,11,12
 36 432 36 432 56 518 c 128,-1,13
 76 604 76 604 118.5 688.5 c 128,-1,14
 161 773 161 773 222.5 844 c 128,-1,15
 284 915 284 915 373 972 c 128,-1,16
 462 1029 462 1029 569 1058 c 1,17,-1
 583 1058 l 1,18,-1
 775 1016 l 1,19,-1
 971 1067 l 1,20,-1
 993 1052 l 1,0,-1
386 286 m 0,21,22
 425 286 425 286 496 399.5 c 128,-1,23
 567 513 567 513 656 728 c 1,24,-1
 663 773 l 1,25,-1
 516 818 l 1,26,27
 428 818 428 818 380 723.5 c 128,-1,28
 332 629 332 629 332 471 c 0,29,30
 332 286 332 286 386 286 c 0,21,22
EndSplineSet
Substitution2: "'ss02' Style Set 2 lookup 36 subtable" left
Substitution2: "'case' Case-Sensitive Forms lookup 28 subtable" A
Substitution2: "'ordn' Ordinals lookup 22 subtable" a.sups
Substitution2: "'sups' Superscript lookup 16 subtable" a.sups
AlternateSubs2: "'aalt' Access All Alternates lookup 1 subtable" a.sups A left
EndChar

StartChar: b
Encoding: 98 98 69
Width: 1055
GlyphClass: 2
Flags: W
LayerCount: 2
Fore
SplineSet
712 1058 m 1,0,-1
 759 1058 l 1,1,2
 897 1015 897 1015 957.5 925 c 128,-1,3
 1018 835 1018 835 1018 690 c 0,4,5
 1018 602 1018 602 998 514.5 c 128,-1,6
 978 427 978 427 935 343 c 128,-1,7
 892 259 892 259 831 188.5 c 128,-1,8
 770 118 770 118 683.5 62.5 c 128,-1,9
 597 7 597 7 494 -22 c 1,10,-1
 480 -22 l 1,11,-1
 281 15 l 1,12,-1
 64 53 l 1,13,-1
 237 1310 l 1,14,-1
 243 1549 l 1,15,-1
 565 1572 l 1,16,-1
 451 730 l 1,17,-1
 482 730 l 1,18,19
 591 926 591 926 712 1058 c 1,0,-1
390 259 m 1,20,-1
 547 219 l 1,21,22
 630 219 630 219 677 316 c 128,-1,23
 724 413 724 413 724 569 c 0,24,25
 724 636 724 636 716 680 c 128,-1,26
 708 724 708 724 697 741.5 c 128,-1,27
 686 759 686 759 671 759 c 0,28,29
 635 759 635 759 561.5 646.5 c 128,-1,30
 488 534 488 534 398 328 c 1,31,-1
 390 259 l 1,20,-1
EndSplineSet
Substitution2: "'ss02' Style Set 2 lookup 36 subtable" up
Substitution2: "'case' Case-Sensitive Forms lookup 28 subtable" B
Substitution2: "'ordn' Ordinals lookup 22 subtable" b.sups
Substitution2: "'sups' Superscript lookup 16 subtable" b.sups
AlternateSubs2: "'aalt' Access All Alternates lookup 1 subtable" b.sups B up
EndChar

StartChar: c
Encoding: 99 99 70
Width: 809
GlyphClass: 2
Flags: W
AnchorPoint: "Anchor-1" 421 0 basechar 0
AnchorPoint: "Anchor-0" 538 1044 basechar 0
LayerCount: 2
Fore
SplineSet
815 1007 m 1,0,-1
 824 973 l 1,1,-1
 732 732 l 1,2,-1
 663 730 l 1,3,4
 624 778 624 778 596.5 796.5 c 128,-1,5
 569 815 569 815 531 815 c 0,6,7
 348 815 348 815 348 451 c 0,8,9
 348 347 348 347 371 300.5 c 128,-1,10
 394 254 394 254 445 254 c 0,11,12
 484 254 484 254 522.5 288 c 128,-1,13
 561 322 561 322 609 411 c 1,14,-1
 652 409 l 1,15,-1
 754 279 l 1,16,17
 683 157 683 157 603.5 89 c 128,-1,18
 524 21 524 21 407 -20 c 1,19,-1
 362 -20 l 1,20,21
 190 7 190 7 115 103.5 c 128,-1,22
 40 200 40 200 40 388 c 0,23,24
 40 478 40 478 55.5 561.5 c 128,-1,25
 71 645 71 645 102 721 c 128,-1,26
 133 797 133 797 182.5 859 c 128,-1,27
 232 921 232 921 296.5 966.5 c 128,-1,28
 361 1012 361 1012 447 1037.5 c 128,-1,29
 533 1063 533 1063 634 1063 c 1,30,-1
 815 1007 l 1,0,-1
EndSplineSet
Substitution2: "Single Substitution lookup 41 subtable" C.ss01
Substitution2: "'ss02' Style Set 2 lookup 36 subtable" right
Substitution2: "'ss01' Style Set 1 lookup 35 subtable" C.ss01
Substitution2: "'case' Case-Sensitive Forms lookup 28 subtable" C
Substitution2: "'ordn' Ordinals lookup 22 subtable" c.sups
Substitution2: "'sups' Superscript lookup 16 subtable" c.sups
AlternateSubs2: "'aalt' Access All Alternates lookup 1 subtable" c.sups C C.ss01 right
EndChar

StartChar: d
Encoding: 100 100 71
Width: 1050
GlyphClass: 2
Flags: W
AnchorPoint: "Anchor-1" 777 0 basechar 0
AnchorPoint: "Anchor-0" 777 1044 basechar 0
LayerCount: 2
Fore
SplineSet
1065 1572 m 1,0,-1
 886 254 l 1,1,-1
 877 13 l 1,2,-1
 554 -9 l 1,3,-1
 596 304 l 1,4,-1
 571 304 l 1,5,6
 468 121 468 121 339 -22 c 1,7,-1
 294 -22 l 1,8,9
 152 23 152 23 93 112.5 c 128,-1,10
 34 202 34 202 34 343 c 0,11,12
 34 429 34 429 54 516 c 128,-1,13
 74 603 74 603 117.5 688 c 128,-1,14
 161 773 161 773 223 844.5 c 128,-1,15
 285 916 285 916 375.5 972.5 c 128,-1,16
 466 1029 466 1029 573 1058 c 1,17,-1
 588 1058 l 1,18,-1
 697 1033 l 1,19,-1
 735 1310 l 1,20,-1
 741 1549 l 1,21,-1
 1065 1572 l 1,0,-1
382 283 m 0,22,23
 419 283 419 283 491.5 392 c 128,-1,24
 564 501 564 501 652 703 c 1,25,-1
 661 775 l 1,26,-1
 518 818 l 1,27,28
 427 818 427 818 377.5 723.5 c 128,-1,29
 328 629 328 629 328 467 c 0,30,31
 328 402 328 402 336 359.5 c 128,-1,32
 344 317 344 317 355.5 300 c 128,-1,33
 367 283 367 283 382 283 c 0,22,23
EndSplineSet
Substitution2: "Single Substitution lookup 41 subtable" D.ss01
Substitution2: "'ss02' Style Set 2 lookup 36 subtable" down
Substitution2: "'ss01' Style Set 1 lookup 35 subtable" D.ss01
Substitution2: "'case' Case-Sensitive Forms lookup 28 subtable" D
Substitution2: "'ordn' Ordinals lookup 22 subtable" d.sups
Substitution2: "'sups' Superscript lookup 16 subtable" d.sups
AlternateSubs2: "'aalt' Access All Alternates lookup 1 subtable" d.sups D D.ss01 down
EndChar

StartChar: e
Encoding: 101 101 72
Width: 927
GlyphClass: 2
Flags: W
AnchorPoint: "Anchor-1" 442 0 basechar 0
AnchorPoint: "Anchor-0" 533 1044 basechar 0
LayerCount: 2
Fore
SplineSet
741 386 m 1,0,-1
 844 252 l 1,1,2
 681 43 681 43 451 -22 c 1,3,-1
 417 -22 l 1,4,5
 222 0 222 0 132.5 102 c 128,-1,6
 43 204 43 204 43 386 c 0,7,8
 43 580 43 580 112.5 731 c 128,-1,9
 182 882 182 882 313 970.5 c 128,-1,10
 444 1059 444 1059 618 1067 c 1,11,-1
 650 1065 l 1,12,13
 764 1042 764 1042 828.5 977 c 128,-1,14
 893 912 893 912 893 806 c 0,15,16
 893 672 893 672 764 572.5 c 128,-1,17
 635 473 635 473 348 395 c 1,18,19
 356 305 356 305 385.5 267.5 c 128,-1,20
 415 230 415 230 473 230 c 0,21,22
 514 230 514 230 554 248.5 c 128,-1,23
 594 267 594 267 631 303.5 c 128,-1,24
 668 340 668 340 699 392 c 1,25,-1
 741 386 l 1,0,-1
536 857 m 0,26,27
 485 857 485 857 446 826.5 c 128,-1,28
 407 796 407 796 381.5 735 c 128,-1,29
 356 674 356 674 348 585 c 1,30,31
 484 621 484 621 546.5 668 c 128,-1,32
 609 715 609 715 609 786 c 0,33,34
 609 823 609 823 592 840 c 128,-1,35
 575 857 575 857 536 857 c 0,26,27
EndSplineSet
Substitution2: "'ss02' Style Set 2 lookup 36 subtable" square1
Substitution2: "'case' Case-Sensitive Forms lookup 28 subtable" E
Substitution2: "'ordn' Ordinals lookup 22 subtable" e.sups
Substitution2: "'sups' Superscript lookup 16 subtable" e.sups
AlternateSubs2: "'aalt' Access All Alternates lookup 1 subtable" e.sups E square1
EndChar

StartChar: f
Encoding: 102 102 73
Width: 709
GlyphClass: 2
Flags: W
LayerCount: 2
Fore
SplineSet
1052 1511 m 1,0,-1
 965 1291 l 1,1,-1
 922 1276 l 1,2,3
 813 1337 813 1337 739 1337 c 0,4,5
 613 1337 613 1337 588 1154 c 1,6,-1
 569 1022 l 1,7,-1
 788 1022 l 1,8,-1
 810 995 l 1,9,-1
 786 835 l 1,10,-1
 543 835 l 1,11,-1
 489 460 l 1,12,-1
 428 7 l 1,13,-1
 420 -234 l 1,14,-1
 98 -257 l 1,15,-1
 190 424 l 1,16,-1
 239 835 l 1,17,-1
 94 835 l 1,18,-1
 78 855 l 1,19,-1
 100 1022 l 1,20,-1
 262 1022 l 1,21,-1
 268 1078 l 1,22,23
 297 1321 297 1321 430.5 1445.5 c 128,-1,24
 564 1570 564 1570 797 1570 c 1,25,-1
 1036 1536 l 1,26,-1
 1052 1511 l 1,0,-1
EndSplineSet
Substitution2: "Single Substitution lookup 41 subtable" f.t
Substitution2: "Single Substitution lookup 40 subtable" f.l
Substitution2: "Single Substitution lookup 39 subtable" f.f
Substitution2: "'ss02' Style Set 2 lookup 36 subtable" square2
Substitution2: "'case' Case-Sensitive Forms lookup 28 subtable" F
Substitution2: "'ordn' Ordinals lookup 22 subtable" f.sups
Substitution2: "'sups' Superscript lookup 16 subtable" f.sups
AlternateSubs2: "'aalt' Access All Alternates lookup 1 subtable" f.sups F square2
EndChar

StartChar: g
Encoding: 103 103 74
Width: 1044
GlyphClass: 2
Flags: W
AnchorPoint: "Anchor-1" 0 0 basechar 0
AnchorPoint: "Anchor-0" 600 1042 basechar 0
LayerCount: 2
Fore
SplineSet
989 1052 m 1,0,-1
 882 277 l 1,1,-1
 873 102 l 1,2,3
 856 -27 856 -27 803.5 -130.5 c 128,-1,4
 751 -234 751 -234 673.5 -301 c 128,-1,5
 596 -368 596 -368 500 -403.5 c 128,-1,6
 404 -439 404 -439 296 -439 c 0,7,8
 204 -439 204 -439 130 -413 c 128,-1,9
 56 -387 56 -387 6 -339 c 128,-1,10
 -44 -291 -44 -291 -75.5 -228 c 128,-1,11
 -107 -165 -107 -165 -119 -87 c 1,12,-1
 -109 -62 l 1,13,-1
 190 81 l 1,14,-1
 192 105 l 1,15,16
 129 152 129 152 102.5 222.5 c 128,-1,17
 76 293 76 293 76 390 c 0,18,19
 76 477 76 477 96 561 c 128,-1,20
 116 645 116 645 158 723.5 c 128,-1,21
 200 802 200 802 259.5 866.5 c 128,-1,22
 319 931 319 931 402.5 981.5 c 128,-1,23
 486 1032 486 1032 585 1058 c 1,24,-1
 596 1058 l 1,25,-1
 779 1016 l 1,26,-1
 965 1067 l 1,27,-1
 989 1052 l 1,0,-1
677 790 m 1,28,-1
 536 833 l 1,29,30
 446 833 446 833 398.5 744 c 128,-1,31
 351 655 351 655 351 500 c 0,32,33
 351 437 351 437 359 395 c 128,-1,34
 367 353 367 353 378.5 337.5 c 128,-1,35
 390 322 390 322 404 322 c 0,36,37
 438 322 438 322 509.5 429 c 128,-1,38
 581 536 581 536 667 730 c 1,39,-1
 677 790 l 1,28,-1
355 -213 m 0,40,41
 442 -213 442 -213 500 -156 c 128,-1,42
 558 -99 558 -99 569 11 c 1,43,-1
 616 348 l 1,44,-1
 588 348 l 1,45,46
 491 172 491 172 351 43 c 1,47,-1
 243 -43 l 1,48,49
 230 -52 230 -52 223 -61.5 c 128,-1,50
 216 -71 216 -71 214.5 -79 c 128,-1,51
 213 -87 213 -87 213 -98 c 0,52,53
 213 -143 213 -143 250 -178 c 128,-1,54
 287 -213 287 -213 355 -213 c 0,40,41
EndSplineSet
Substitution2: "'ss02' Style Set 2 lookup 36 subtable" circle1
Substitution2: "'case' Case-Sensitive Forms lookup 28 subtable" G
Substitution2: "'ordn' Ordinals lookup 22 subtable" g.sups
Substitution2: "'sups' Superscript lookup 16 subtable" g.sups
AlternateSubs2: "'aalt' Access All Alternates lookup 1 subtable" g.sups G circle1
EndChar

StartChar: h
Encoding: 104 104 75
Width: 1133
GlyphClass: 2
Flags: W
AnchorPoint: "Anchor-1" 0 0 basechar 0
AnchorPoint: "Anchor-0" 390 1563 basechar 0
LayerCount: 2
Fore
SplineSet
775 1050 m 1,0,-1
 801 1052 l 1,1,2
 921 1029 921 1029 991.5 969 c 128,-1,3
 1062 909 1062 909 1061 822 c 1,4,-1
 1058 792 l 1,5,-1
 971 257 l 1,6,-1
 960 13 l 1,7,-1
 632 -9 l 1,8,-1
 735 639 l 1,9,-1
 739 663 l 1,10,11
 739 690 739 690 730 702 c 128,-1,12
 721 714 721 714 701 714 c 0,13,14
 655 714 655 714 575 619.5 c 128,-1,15
 495 525 495 525 398 341 c 1,16,-1
 386 254 l 1,17,-1
 379 13 l 1,18,-1
 56 -9 l 1,19,-1
 237 1310 l 1,20,-1
 243 1549 l 1,21,-1
 567 1572 l 1,22,-1
 447 692 l 1,23,-1
 477 692 l 1,24,25
 623 914 623 914 775 1050 c 1,0,-1
EndSplineSet
Substitution2: "'ss02' Style Set 2 lookup 36 subtable" circle2
Substitution2: "'case' Case-Sensitive Forms lookup 28 subtable" H
Substitution2: "'ordn' Ordinals lookup 22 subtable" h.sups
Substitution2: "'sups' Superscript lookup 16 subtable" h.sups
AlternateSubs2: "'aalt' Access All Alternates lookup 1 subtable" h.sups H circle2
EndChar

StartChar: i
Encoding: 105 105 76
Width: 546
GlyphClass: 2
Flags: W
AnchorPoint: "Anchor-1" 0 0 basechar 0
AnchorPoint: "Anchor-0" 332 1042 basechar 0
LayerCount: 2
Fore
SplineSet
384 1580 m 0,0,1
 437 1580 437 1580 475 1559.5 c 128,-1,2
 513 1539 513 1539 533.5 1499.5 c 128,-1,3
 554 1460 554 1460 554 1406 c 0,4,5
 554 1320 554 1320 504 1268 c 128,-1,6
 454 1216 454 1216 371 1216 c 256,7,8
 288 1216 288 1216 243 1262 c 128,-1,9
 198 1308 198 1308 198 1391 c 0,10,11
 198 1478 198 1478 248.5 1529 c 128,-1,12
 299 1580 299 1580 384 1580 c 0,0,1
386 254 m 1,13,-1
 375 13 l 1,14,-1
 53 -9 l 1,15,-1
 164 790 l 1,16,-1
 172 1031 l 1,17,-1
 492 1054 l 1,18,-1
 386 254 l 1,13,-1
EndSplineSet
Substitution2: "Single Substitution lookup 41 subtable" I.ss01
Substitution2: "'ss01' Style Set 1 lookup 35 subtable" I.ss01
Substitution2: "'case' Case-Sensitive Forms lookup 28 subtable" I
Substitution2: "'ordn' Ordinals lookup 22 subtable" i.sups
Substitution2: "'sups' Superscript lookup 16 subtable" i.sups
Substitution2: "'locl' Localized Forms in Latin lookup 9 subtable" idotaccent
Substitution2: "'locl' Localized Forms in Latin lookup 8 subtable" idotaccent
Substitution2: "'locl' Localized Forms in Latin lookup 7 subtable" idotaccent
Substitution2: "'locl' Localized Forms in Latin lookup 6 subtable" idotaccent
Substitution2: "'locl' Localized Forms in Latin lookup 5 subtable" idotaccent
AlternateSubs2: "'aalt' Access All Alternates lookup 1 subtable" idotaccent i.sups I I.ss01
EndChar

StartChar: j
Encoding: 106 106 77
Width: 597
GlyphClass: 2
Flags: W
AnchorPoint: "Anchor-1" 0 0 basechar 0
AnchorPoint: "Anchor-0" 347 1042 basechar 0
LayerCount: 2
Fore
SplineSet
400 1580 m 0,0,1
 480 1580 480 1580 524.5 1534 c 128,-1,2
 569 1488 569 1488 569 1406 c 0,3,4
 569 1320 569 1320 519 1268 c 128,-1,5
 469 1216 469 1216 386 1216 c 256,6,7
 303 1216 303 1216 259 1262 c 128,-1,8
 215 1308 215 1308 215 1391 c 0,9,10
 215 1478 215 1478 265 1529 c 128,-1,11
 315 1580 315 1580 400 1580 c 0,0,1
538 1042 m 1,12,-1
 426 257 l 1,13,-1
 409 64 l 1,14,15
 387 -112 387 -112 289.5 -228.5 c 128,-1,16
 192 -345 192 -345 -7 -435 c 1,17,-1
 -109 -290 l 1,18,-1
 -105 -259 l 1,19,20
 -9 -207 -9 -207 40.5 -135 c 128,-1,21
 90 -63 90 -63 105 49 c 2,22,-1
 205 784 l 1,23,-1
 205 835 l 1,24,-1
 56 835 l 1,25,-1
 40 855 l 1,26,-1
 64 1022 l 1,27,-1
 223 1022 l 1,28,-1
 529 1052 l 1,29,-1
 538 1042 l 1,12,-1
EndSplineSet
Substitution2: "'case' Case-Sensitive Forms lookup 28 subtable" J
Substitution2: "'ordn' Ordinals lookup 22 subtable" j.sups
Substitution2: "'sups' Superscript lookup 16 subtable" j.sups
AlternateSubs2: "'aalt' Access All Alternates lookup 1 subtable" j.sups J
EndChar

StartChar: k
Encoding: 107 107 78
Width: 1148
GlyphClass: 2
Flags: W
AnchorPoint: "Anchor-1" 558 0 basechar 0
AnchorPoint: "Anchor-0" 279 1042 basechar 0
LayerCount: 2
Fore
SplineSet
1094 790 m 0,0,1
 1094 583 1094 583 828 404 c 1,2,3
 920 219 920 219 1031 36 c 1,4,-1
 1016 11 l 1,5,-1
 746 -27 l 1,6,-1
 714 -11 l 1,7,8
 610 206 610 206 547 386 c 1,9,-1
 558 428 l 1,10,11
 656 490 656 490 712 554 c 128,-1,12
 768 618 768 618 768 671 c 0,13,14
 768 688 768 688 762.5 698.5 c 128,-1,15
 757 709 757 709 749 713.5 c 128,-1,16
 741 718 741 718 730 718 c 0,17,18
 676 718 676 718 589 623.5 c 128,-1,19
 502 529 502 529 398 337 c 1,20,-1
 386 254 l 1,21,-1
 379 13 l 1,22,-1
 56 -9 l 1,23,-1
 237 1310 l 1,24,-1
 243 1549 l 1,25,-1
 567 1572 l 1,26,-1
 447 699 l 1,27,-1
 480 699 l 1,28,29
 650 926 650 926 803 1050 c 1,30,-1
 833 1052 l 1,31,32
 955 1029 955 1029 1024.5 964 c 128,-1,33
 1094 899 1094 899 1094 790 c 0,0,1
EndSplineSet
Substitution2: "'case' Case-Sensitive Forms lookup 28 subtable" K
Substitution2: "'ordn' Ordinals lookup 22 subtable" k.sups
Substitution2: "'sups' Superscript lookup 16 subtable" k.sups
AlternateSubs2: "'aalt' Access All Alternates lookup 1 subtable" k.sups K
EndChar

StartChar: l
Encoding: 108 108 79
Width: 550
GlyphClass: 2
Flags: W
AnchorPoint: "Anchor-1" 216 0 basechar 0
AnchorPoint: "Anchor-0" 394 1563 basechar 0
LayerCount: 2
Fore
SplineSet
386 254 m 1,0,-1
 379 13 l 1,1,-1
 56 -9 l 1,2,-1
 237 1310 l 1,3,-1
 243 1549 l 1,4,-1
 567 1572 l 1,5,-1
 386 254 l 1,0,-1
EndSplineSet
Substitution2: "Single Substitution lookup 41 subtable" L.ss01
Substitution2: "'ss01' Style Set 1 lookup 35 subtable" L.ss01
Substitution2: "'case' Case-Sensitive Forms lookup 28 subtable" L
Substitution2: "'ordn' Ordinals lookup 22 subtable" l.sups
Substitution2: "'sups' Superscript lookup 16 subtable" l.sups
AlternateSubs2: "'aalt' Access All Alternates lookup 1 subtable" l.sups L L.ss01
EndChar

StartChar: m
Encoding: 109 109 80
Width: 1721
GlyphClass: 2
Flags: W
AnchorPoint: "Anchor-1" 0 0 basechar 0
AnchorPoint: "Anchor-0" 334 1042 basechar 0
LayerCount: 2
Fore
SplineSet
1359 1050 m 1,0,-1
 1386 1052 l 1,1,2
 1506 1029 1506 1029 1576 969 c 128,-1,3
 1646 909 1646 909 1645 822 c 1,4,-1
 1643 792 l 1,5,-1
 1555 257 l 1,6,-1
 1547 13 l 1,7,-1
 1216 -9 l 1,8,-1
 1321 639 l 1,9,-1
 1323 663 l 1,10,11
 1323 690 1323 690 1314.5 702 c 128,-1,12
 1306 714 1306 714 1286 714 c 0,13,14
 1239 714 1239 714 1159 618.5 c 128,-1,15
 1079 523 1079 523 980 335 c 1,16,-1
 967 257 l 1,17,-1
 958 13 l 1,18,-1
 627 -9 l 1,19,-1
 732 639 l 1,20,-1
 735 663 l 1,21,22
 735 681 735 681 731 692 c 128,-1,23
 727 703 727 703 718.5 708.5 c 128,-1,24
 710 714 710 714 697 714 c 0,25,26
 653 714 653 714 575.5 622 c 128,-1,27
 498 530 498 530 400 351 c 1,28,-1
 386 254 l 1,29,-1
 377 13 l 1,30,-1
 53 -9 l 1,31,-1
 166 790 l 1,32,-1
 174 1031 l 1,33,-1
 494 1054 l 1,34,-1
 445 692 l 1,35,-1
 475 692 l 1,36,37
 624 919 624 919 771 1050 c 1,38,-1
 799 1052 l 1,39,40
 919 1029 919 1029 988.5 969 c 128,-1,41
 1058 909 1058 909 1056 822 c 1,42,-1
 1054 792 l 1,43,-1
 1038 692 l 1,44,-1
 1065 692 l 1,45,46
 1208 915 1208 915 1359 1050 c 1,0,-1
EndSplineSet
Substitution2: "Single Substitution lookup 41 subtable" M.ss01
Substitution2: "'ss01' Style Set 1 lookup 35 subtable" M.ss01
Substitution2: "'case' Case-Sensitive Forms lookup 28 subtable" M
Substitution2: "'ordn' Ordinals lookup 22 subtable" m.sups
Substitution2: "'sups' Superscript lookup 16 subtable" m.sups
AlternateSubs2: "'aalt' Access All Alternates lookup 1 subtable" m.sups M M.ss01
EndChar

StartChar: n
Encoding: 110 110 81
Width: 1129
GlyphClass: 2
Flags: W
AnchorPoint: "Anchor-1" 502 0 basechar 0
AnchorPoint: "Anchor-0" 632 1042 basechar 0
LayerCount: 2
Fore
SplineSet
771 1050 m 1,0,-1
 797 1052 l 1,1,2
 909 1028 909 1028 983.5 967.5 c 128,-1,3
 1058 907 1058 907 1056 822 c 1,4,-1
 1054 792 l 1,5,-1
 967 257 l 1,6,-1
 956 13 l 1,7,-1
 625 -9 l 1,8,-1
 732 639 l 1,9,-1
 735 663 l 1,10,11
 735 681 735 681 731 692 c 128,-1,12
 727 703 727 703 718.5 708.5 c 128,-1,13
 710 714 710 714 697 714 c 0,14,15
 651 714 651 714 573.5 622.5 c 128,-1,16
 496 531 496 531 400 351 c 1,17,-1
 386 254 l 1,18,-1
 377 13 l 1,19,-1
 53 -9 l 1,20,-1
 166 790 l 1,21,-1
 174 1031 l 1,22,-1
 494 1054 l 1,23,-1
 445 692 l 1,24,-1
 473 692 l 1,25,26
 619 914 619 914 771 1050 c 1,0,-1
EndSplineSet
Substitution2: "'case' Case-Sensitive Forms lookup 28 subtable" N
Substitution2: "'ordn' Ordinals lookup 22 subtable" n.sups
Substitution2: "'sups' Superscript lookup 16 subtable" n.sups
AlternateSubs2: "'aalt' Access All Alternates lookup 1 subtable" n.sups N
EndChar

StartChar: o
Encoding: 111 111 82
Width: 1001
GlyphClass: 2
Flags: W
AnchorPoint: "Anchor-1" 0 0 basechar 0
AnchorPoint: "Anchor-0" 577 1042 basechar 0
LayerCount: 2
Fore
SplineSet
622 1067 m 1,0,-1
 654 1065 l 1,1,2
 799 1033 799 1033 878.5 938 c 128,-1,3
 958 843 958 843 958 681 c 0,4,5
 958 524 958 524 918 396 c 128,-1,6
 878 268 878 268 804 178 c 128,-1,7
 730 88 730 88 622.5 35.5 c 128,-1,8
 515 -17 515 -17 382 -25 c 1,9,-1
 351 -20 l 1,10,11
 45 48 45 48 45 384 c 0,12,13
 45 581 45 581 114.5 732.5 c 128,-1,14
 184 884 184 884 314.5 970.5 c 128,-1,15
 445 1057 445 1057 622 1067 c 1,0,-1
560 818 m 0,16,17
 511 818 511 818 475.5 800 c 128,-1,18
 440 782 440 782 416 748 c 128,-1,19
 392 714 392 714 377.5 659 c 128,-1,20
 363 604 363 604 357 536.5 c 128,-1,21
 351 469 351 469 351 377 c 0,22,23
 351 290 351 290 371 254.5 c 128,-1,24
 391 219 391 219 443 219 c 0,25,26
 557 219 557 219 602 324.5 c 128,-1,27
 647 430 647 430 647 661 c 0,28,29
 647 747 647 747 627.5 782.5 c 128,-1,30
 608 818 608 818 560 818 c 0,16,17
EndSplineSet
Substitution2: "'case' Case-Sensitive Forms lookup 28 subtable" O
Substitution2: "'ordn' Ordinals lookup 22 subtable" o.sups
Substitution2: "'sups' Superscript lookup 16 subtable" o.sups
AlternateSubs2: "'aalt' Access All Alternates lookup 1 subtable" o.sups O
EndChar

StartChar: p
Encoding: 112 112 83
Width: 1052
GlyphClass: 2
Flags: W
LayerCount: 2
Fore
SplineSet
716 1058 m 1,0,-1
 761 1058 l 1,1,2
 899 1015 899 1015 959.5 925 c 128,-1,3
 1020 835 1020 835 1020 690 c 0,4,5
 1020 602 1020 602 999.5 514.5 c 128,-1,6
 979 427 979 427 936 343 c 128,-1,7
 893 259 893 259 832 188.5 c 128,-1,8
 771 118 771 118 684 62.5 c 128,-1,9
 597 7 597 7 494 -22 c 1,10,-1
 480 -22 l 1,11,-1
 353 2 l 1,12,-1
 330 -170 l 1,13,-1
 322 -413 l 1,14,-1
 -2 -435 l 1,15,-1
 166 790 l 1,16,-1
 174 1031 l 1,17,-1
 494 1054 l 1,18,-1
 451 730 l 1,19,-1
 484 730 l 1,20,21
 595 928 595 928 716 1058 c 1,0,-1
388 262 m 1,22,-1
 549 219 l 1,23,24
 632 219 632 219 679 316 c 128,-1,25
 726 413 726 413 726 569 c 0,26,27
 726 620 726 620 721.5 657.5 c 128,-1,28
 717 695 717 695 709.5 716.5 c 128,-1,29
 702 738 702 738 693 748.5 c 128,-1,30
 684 759 684 759 674 759 c 0,31,32
 634 759 634 759 559.5 643 c 128,-1,33
 485 527 485 527 395 313 c 1,34,-1
 388 262 l 1,22,-1
EndSplineSet
Substitution2: "'case' Case-Sensitive Forms lookup 28 subtable" P
Substitution2: "'ordn' Ordinals lookup 22 subtable" p.sups
Substitution2: "'sups' Superscript lookup 16 subtable" p.sups
AlternateSubs2: "'aalt' Access All Alternates lookup 1 subtable" p.sups P
EndChar

StartChar: q
Encoding: 113 113 84
Width: 1052
GlyphClass: 2
Flags: W
LayerCount: 2
Fore
SplineSet
995 1052 m 1,0,-1
 833 -172 l 1,1,-1
 824 -413 l 1,2,-1
 500 -435 l 1,3,-1
 601 304 l 1,4,-1
 569 304 l 1,5,6
 463 114 463 114 339 -22 c 1,7,-1
 294 -22 l 1,8,9
 152 23 152 23 93 112.5 c 128,-1,10
 34 202 34 202 34 343 c 0,11,12
 34 429 34 429 54 516 c 128,-1,13
 74 603 74 603 117.5 688 c 128,-1,14
 161 773 161 773 222.5 844.5 c 128,-1,15
 284 916 284 916 374 972.5 c 128,-1,16
 464 1029 464 1029 571 1058 c 1,17,-1
 585 1058 l 1,18,-1
 777 1016 l 1,19,-1
 973 1067 l 1,20,-1
 995 1052 l 1,0,-1
382 283 m 0,21,22
 420 283 420 283 494 398.5 c 128,-1,23
 568 514 568 514 658 728 c 1,24,-1
 665 775 l 1,25,-1
 518 818 l 1,26,27
 427 818 427 818 377.5 723.5 c 128,-1,28
 328 629 328 629 328 467 c 0,29,30
 328 403 328 403 336 360 c 128,-1,31
 344 317 344 317 355.5 300 c 128,-1,32
 367 283 367 283 382 283 c 0,21,22
EndSplineSet
Substitution2: "'case' Case-Sensitive Forms lookup 28 subtable" Q
Substitution2: "'ordn' Ordinals lookup 22 subtable" q.sups
Substitution2: "'sups' Superscript lookup 16 subtable" q.sups
AlternateSubs2: "'aalt' Access All Alternates lookup 1 subtable" q.sups Q
EndChar

StartChar: r
Encoding: 114 114 85
Width: 816
GlyphClass: 2
Flags: W
AnchorPoint: "Anchor-1" 257 0 basechar 0
AnchorPoint: "Anchor-0" 526 1042 basechar 0
LayerCount: 2
Fore
SplineSet
852 1042 m 1,0,-1
 799 641 l 1,1,-1
 771 627 l 1,2,-1
 712 639 l 1,3,4
 625 630 625 630 557 575.5 c 128,-1,5
 489 521 489 521 407 384 c 1,6,-1
 388 254 l 1,7,-1
 379 13 l 1,8,-1
 56 -9 l 1,9,-1
 166 790 l 1,10,-1
 174 1031 l 1,11,-1
 496 1054 l 1,12,-1
 449 707 l 1,13,-1
 480 707 l 1,14,15
 546 820 546 820 619 902 c 128,-1,16
 692 984 692 984 790 1052 c 1,17,-1
 852 1042 l 1,0,-1
EndSplineSet
Substitution2: "'case' Case-Sensitive Forms lookup 28 subtable" R
Substitution2: "'ordn' Ordinals lookup 22 subtable" r.sups
Substitution2: "'sups' Superscript lookup 16 subtable" r.sups
AlternateSubs2: "'aalt' Access All Alternates lookup 1 subtable" r.sups R
EndChar

StartChar: s
Encoding: 115 115 86
Width: 807
GlyphClass: 2
Flags: W
AnchorPoint: "Anchor-1" 357 0 basechar 0
AnchorPoint: "Anchor-0" 491 1042 basechar 0
LayerCount: 2
Fore
SplineSet
558 1061 m 1,0,1
 685 1044 685 1044 801 1005 c 1,2,-1
 724 746 l 1,3,-1
 679 730 l 1,4,5
 657 753 657 753 633.5 772.5 c 128,-1,6
 610 792 610 792 587.5 805.5 c 128,-1,7
 565 819 565 819 542.5 829 c 128,-1,8
 520 839 520 839 500 843.5 c 128,-1,9
 480 848 480 848 462 848 c 0,10,11
 443 848 443 848 427 841.5 c 128,-1,12
 411 835 411 835 399.5 824 c 128,-1,13
 388 813 388 813 381.5 798.5 c 128,-1,14
 375 784 375 784 375 768 c 0,15,16
 375 744 375 744 394.5 721 c 128,-1,17
 414 698 414 698 445 678.5 c 128,-1,18
 476 659 476 659 514 637 c 128,-1,19
 552 615 552 615 589.5 587.5 c 128,-1,20
 627 560 627 560 658 527.5 c 128,-1,21
 689 495 689 495 708.5 447.5 c 128,-1,22
 728 400 728 400 728 343 c 0,23,24
 728 239 728 239 666.5 155 c 128,-1,25
 605 71 605 71 498 24.5 c 128,-1,26
 391 -22 391 -22 259 -22 c 1,27,28
 106 -5 106 -5 -22 43 c 1,29,-1
 53 315 l 1,30,-1
 89 332 l 1,31,32
 147 262 147 262 217 222.5 c 128,-1,33
 287 183 287 183 346 183 c 0,34,35
 389 183 389 183 414 207.5 c 128,-1,36
 439 232 439 232 439 264 c 0,37,38
 439 288 439 288 419 312 c 128,-1,39
 399 336 399 336 367.5 357 c 128,-1,40
 336 378 336 378 297.5 400.5 c 128,-1,41
 259 423 259 423 221 451 c 128,-1,42
 183 479 183 479 151.5 511.5 c 128,-1,43
 120 544 120 544 101 589.5 c 128,-1,44
 82 635 82 635 83 688 c 0,45,46
 84 773 84 773 123.5 844 c 128,-1,47
 163 915 163 915 228.5 962.5 c 128,-1,48
 294 1010 294 1010 379 1035.5 c 128,-1,49
 464 1061 464 1061 558 1061 c 1,0,1
EndSplineSet
Substitution2: "'case' Case-Sensitive Forms lookup 28 subtable" S
Substitution2: "'ordn' Ordinals lookup 22 subtable" s.sups
Substitution2: "'sups' Superscript lookup 16 subtable" s.sups
AlternateSubs2: "'aalt' Access All Alternates lookup 1 subtable" s.sups S
EndChar

StartChar: t
Encoding: 116 116 87
Width: 782
GlyphClass: 2
Flags: W
AnchorPoint: "Anchor-1" 419 0 basechar 0
AnchorPoint: "Anchor-0" 0 0 basechar 0
LayerCount: 2
Fore
SplineSet
453 337 m 1,0,-1
 451 311 l 1,1,2
 451 275 451 275 486 275 c 0,3,4
 532 275 532 275 601 375 c 1,5,-1
 643 373 l 1,6,-1
 735 257 l 1,7,8
 611 84 611 84 467 -15 c 1,9,-1
 431 -17 l 1,10,11
 283 -1 283 -1 213.5 53 c 128,-1,12
 144 107 144 107 143 219 c 1,13,-1
 147 275 l 1,14,-1
 228 797 l 1,15,-1
 232 835 l 1,16,-1
 92 835 l 1,17,-1
 74 855 l 1,18,-1
 94 1022 l 1,19,-1
 250 1022 l 1,20,-1
 272 1246 l 1,21,-1
 580 1329 l 1,22,-1
 605 1310 l 1,23,-1
 560 1022 l 1,24,-1
 795 1022 l 1,25,-1
 820 995 l 1,26,-1
 797 835 l 1,27,-1
 531 835 l 1,28,-1
 453 337 l 1,0,-1
EndSplineSet
Substitution2: "'case' Case-Sensitive Forms lookup 28 subtable" T
Substitution2: "'ordn' Ordinals lookup 22 subtable" t.sups
Substitution2: "'sups' Superscript lookup 16 subtable" t.sups
AlternateSubs2: "'aalt' Access All Alternates lookup 1 subtable" t.sups T
EndChar

StartChar: u
Encoding: 117 117 88
Width: 1112
GlyphClass: 2
Flags: W
AnchorPoint: "Anchor-1" 0 0 basechar 0
AnchorPoint: "Anchor-0" 622 1042 basechar 0
LayerCount: 2
Fore
SplineSet
1056 1054 m 1,0,-1
 948 254 l 1,1,-1
 940 13 l 1,2,-1
 618 -9 l 1,3,-1
 665 337 l 1,4,-1
 641 337 l 1,5,6
 497 118 497 118 358 -7 c 1,7,-1
 330 -9 l 1,8,9
 210 8 210 8 138 68.5 c 128,-1,10
 66 129 66 129 66 217 c 1,11,-1
 72 257 l 1,12,-1
 156 786 l 1,13,-1
 168 1031 l 1,14,-1
 494 1052 l 1,15,-1
 392 413 l 1,16,-1
 390 377 l 2,17,18
 387 324 387 324 431 324 c 0,19,20
 472 324 472 324 543.5 410 c 128,-1,21
 615 496 615 496 710 667 c 1,22,-1
 726 790 l 1,23,-1
 735 1031 l 1,24,-1
 1056 1054 l 1,0,-1
EndSplineSet
Substitution2: "'case' Case-Sensitive Forms lookup 28 subtable" U
Substitution2: "'ordn' Ordinals lookup 22 subtable" u.sups
Substitution2: "'sups' Superscript lookup 16 subtable" u.sups
AlternateSubs2: "'aalt' Access All Alternates lookup 1 subtable" u.sups U
EndChar

StartChar: v
Encoding: 118 118 89
Width: 1003
GlyphClass: 2
Flags: W
LayerCount: 2
Fore
SplineSet
671 1016 m 1,0,-1
 969 1058 l 1,1,2
 1005 976 1005 976 1005 882 c 0,3,4
 1005 749 1005 749 904 558 c 1,5,-1
 592 0 l 1,6,-1
 226 0 l 1,7,-1
 100 1033 l 1,8,-1
 422 1054 l 1,9,-1
 424 857 l 1,10,-1
 456 332 l 1,11,-1
 482 332 l 1,12,-1
 634 639 l 1,13,14
 697 763 697 763 697 848 c 0,15,16
 697 914 697 914 658 982 c 1,17,-1
 671 1016 l 1,0,-1
EndSplineSet
Substitution2: "Single Substitution lookup 41 subtable" V.ss01
Substitution2: "'ss01' Style Set 1 lookup 35 subtable" V.ss01
Substitution2: "'case' Case-Sensitive Forms lookup 28 subtable" V
Substitution2: "'ordn' Ordinals lookup 22 subtable" v.sups
Substitution2: "'sups' Superscript lookup 16 subtable" v.sups
AlternateSubs2: "'aalt' Access All Alternates lookup 1 subtable" v.sups V V.ss01
EndChar

StartChar: w
Encoding: 119 119 90
Width: 1613
GlyphClass: 2
Flags: W
AnchorPoint: "Anchor-1" 0 0 basechar 0
AnchorPoint: "Anchor-0" 873 1042 basechar 0
LayerCount: 2
Fore
SplineSet
1227 0 m 1,0,-1
 875 0 l 1,1,-1
 831 611 l 1,2,-1
 803 611 l 1,3,-1
 571 0 l 1,4,-1
 219 0 l 1,5,-1
 100 1033 l 1,6,-1
 417 1054 l 1,7,-1
 417 877 l 1,8,-1
 445 362 l 1,9,-1
 471 362 l 1,10,-1
 663 857 l 1,11,-1
 722 1044 l 1,12,-1
 1063 1044 l 1,13,-1
 1065 877 l 1,14,-1
 1094 362 l 1,15,-1
 1121 362 l 1,16,-1
 1248 639 l 2,17,18
 1280 707 1280 707 1295 755.5 c 128,-1,19
 1310 804 1310 804 1310 848 c 0,20,21
 1310 914 1310 914 1272 982 c 1,22,-1
 1286 1016 l 1,23,-1
 1583 1058 l 1,24,25
 1619 976 1619 976 1619 882 c 0,26,27
 1619 810 1619 810 1593.5 732.5 c 128,-1,28
 1568 655 1568 655 1518 558 c 2,29,-1
 1227 0 l 1,0,-1
EndSplineSet
Substitution2: "'case' Case-Sensitive Forms lookup 28 subtable" W
Substitution2: "'ordn' Ordinals lookup 22 subtable" w.sups
Substitution2: "'sups' Superscript lookup 16 subtable" w.sups
AlternateSubs2: "'aalt' Access All Alternates lookup 1 subtable" w.sups W
EndChar

StartChar: x
Encoding: 120 120 91
Width: 1075
GlyphClass: 2
Flags: W
LayerCount: 2
Fore
SplineSet
969 9 m 1,0,-1
 609 -17 l 1,1,-1
 578 123 l 1,2,-1
 498 330 l 1,3,-1
 362 130 l 1,4,-1
 304 0 l 1,5,-1
 -47 0 l 1,6,-1
 322 538 l 1,7,-1
 111 1033 l 1,8,-1
 460 1063 l 1,9,-1
 489 948 l 1,10,-1
 573 746 l 1,11,-1
 703 940 l 1,12,-1
 754 1044 l 1,13,-1
 1094 1044 l 1,14,-1
 730 520 l 1,15,-1
 969 9 l 1,0,-1
EndSplineSet
Substitution2: "Single Substitution lookup 41 subtable" X.ss01
Substitution2: "'ss01' Style Set 1 lookup 35 subtable" X.ss01
Substitution2: "'case' Case-Sensitive Forms lookup 28 subtable" X
Substitution2: "'ordn' Ordinals lookup 22 subtable" x.sups
Substitution2: "'sups' Superscript lookup 16 subtable" x.sups
AlternateSubs2: "'aalt' Access All Alternates lookup 1 subtable" x.sups X X.ss01
EndChar

StartChar: y
Encoding: 121 121 92
Width: 1021
GlyphClass: 2
Flags: W
AnchorPoint: "Anchor-1" 0 0 basechar 0
AnchorPoint: "Anchor-0" 551 1042 basechar 0
LayerCount: 2
Fore
SplineSet
690 1016 m 1,0,-1
 986 1058 l 1,1,2
 1022 976 1022 976 1022 882 c 0,3,4
 1022 738 1022 738 920 538 c 1,5,-1
 701 123 l 2,6,7
 618 -35 618 -35 542.5 -142.5 c 128,-1,8
 467 -250 467 -250 391 -316 c 128,-1,9
 315 -382 315 -382 238.5 -410.5 c 128,-1,10
 162 -439 162 -439 72 -439 c 0,11,12
 -36 -439 -36 -439 -143 -402 c 1,13,-1
 -158 -136 l 1,14,-1
 -130 -107 l 1,15,16
 -26 -138 -26 -138 58 -138 c 0,17,18
 202 -138 202 -138 317 -45 c 1,19,-1
 87 1033 l 1,20,-1
 409 1054 l 1,21,-1
 428 857 l 1,22,-1
 502 343 l 1,23,-1
 538 343 l 1,24,-1
 650 596 l 2,25,26
 714 742 714 742 714 841 c 0,27,28
 714 916 714 916 677 982 c 1,29,-1
 690 1016 l 1,0,-1
EndSplineSet
Substitution2: "'case' Case-Sensitive Forms lookup 28 subtable" Y
Substitution2: "'ordn' Ordinals lookup 22 subtable" y.sups
Substitution2: "'sups' Superscript lookup 16 subtable" y.sups
AlternateSubs2: "'aalt' Access All Alternates lookup 1 subtable" y.sups Y
EndChar

StartChar: z
Encoding: 122 122 93
Width: 965
GlyphClass: 2
Flags: W
AnchorPoint: "Anchor-1" 0 0 basechar 0
AnchorPoint: "Anchor-0" 549 1042 basechar 0
LayerCount: 2
Fore
SplineSet
950 993 m 1,0,-1
 388 277 l 1,1,-1
 449 292 l 1,2,3
 460 292 460 292 511.5 283.5 c 128,-1,4
 563 275 563 275 576 275 c 0,5,6
 626 275 626 275 654.5 289 c 128,-1,7
 683 303 683 303 700.5 342 c 128,-1,8
 718 381 718 381 726 456 c 1,9,-1
 765 471 l 1,10,-1
 897 428 l 1,11,12
 895 306 895 306 871 217.5 c 128,-1,13
 847 129 847 129 804 77.5 c 128,-1,14
 761 26 761 26 705.5 2 c 128,-1,15
 650 -22 650 -22 578 -22 c 0,16,17
 518 -22 518 -22 450.5 -3.5 c 128,-1,18
 383 15 383 15 323 33 c 128,-1,19
 263 51 263 51 221 51 c 0,20,21
 183 51 183 51 153 36.5 c 128,-1,22
 123 22 123 22 83 -15 c 1,23,-1
 45 -15 l 1,24,-1
 -51 74 l 1,25,-1
 494 777 l 1,26,-1
 292 773 l 1,27,-1
 123 743 l 1,28,-1
 98 765 l 1,29,-1
 154 1047 l 1,30,-1
 185 1067 l 1,31,-1
 388 1052 l 1,32,-1
 779 1040 l 1,33,-1
 857 1085 l 1,34,-1
 950 993 l 1,0,-1
EndSplineSet
Substitution2: "'case' Case-Sensitive Forms lookup 28 subtable" Z
Substitution2: "'ordn' Ordinals lookup 22 subtable" z.sups
Substitution2: "'sups' Superscript lookup 16 subtable" z.sups
AlternateSubs2: "'aalt' Access All Alternates lookup 1 subtable" z.sups Z
EndChar

StartChar: braceleft
Encoding: 123 123 94
Width: 664
GlyphClass: 2
Flags: W
LayerCount: 2
Fore
SplineSet
598 1469 m 0,0,1
 672 1469 672 1469 752 1444 c 1,2,-1
 761 1422 l 1,3,-1
 714 1248 l 1,4,5
 669 1259 669 1259 639 1259 c 0,6,7
 505 1259 505 1259 505 1099 c 0,8,9
 505 1066 505 1066 515.5 988 c 128,-1,10
 526 910 526 910 526 875 c 0,11,12
 526 788 526 788 479 720 c 128,-1,13
 432 652 432 652 343 614 c 1,14,-1
 341 601 l 1,15,16
 404 569 404 569 436.5 516.5 c 128,-1,17
 469 464 469 464 469 400 c 0,18,19
 469 353 469 353 445.5 289.5 c 128,-1,20
 422 226 422 226 398.5 164.5 c 128,-1,21
 375 103 375 103 375 60 c 0,22,23
 375 9 375 9 401 -18 c 128,-1,24
 427 -45 427 -45 477 -45 c 0,25,26
 507 -45 507 -45 556 -34 c 1,27,-1
 562 -207 l 1,28,-1
 547 -232 l 1,29,30
 471 -254 471 -254 386 -254 c 0,31,32
 245 -254 245 -254 170.5 -193.5 c 128,-1,33
 96 -133 96 -133 96 -22 c 0,34,35
 96 14 96 14 103 53 c 128,-1,36
 110 92 110 92 120.5 125.5 c 128,-1,37
 131 159 131 159 143 195 c 128,-1,38
 155 231 155 231 165.5 261 c 128,-1,39
 176 291 176 291 183 322 c 128,-1,40
 190 353 190 353 190 377 c 0,41,42
 190 486 190 486 66 526 c 1,43,-1
 85 686 l 1,44,45
 141 703 141 703 177.5 730.5 c 128,-1,46
 214 758 214 758 233 799 c 128,-1,47
 252 840 252 840 252 895 c 0,48,49
 252 925 252 925 245.5 1007.5 c 128,-1,50
 239 1090 239 1090 239 1134 c 0,51,52
 239 1298 239 1298 332 1383.5 c 128,-1,53
 425 1469 425 1469 598 1469 c 0,0,1
EndSplineSet
EndChar

StartChar: bar
Encoding: 124 124 95
Width: 680
GlyphClass: 2
Flags: W
LayerCount: 2
Fore
SplineSet
630 1775 m 1,0,-1
 482 652 l 1,1,-1
 337 -558 l 1,2,-1
 98 -576 l 1,3,-1
 76 -547 l 1,4,-1
 364 1779 l 1,5,-1
 607 1800 l 1,6,-1
 630 1775 l 1,0,-1
EndSplineSet
EndChar

StartChar: braceright
Encoding: 125 125 96
Width: 664
GlyphClass: 2
Flags: W
LayerCount: 2
Fore
SplineSet
87 -254 m 0,0,1
 17 -254 17 -254 -64 -232 c 1,2,-1
 -76 -207 l 1,3,-1
 -27 -34 l 1,4,5
 18 -45 18 -45 49 -45 c 0,6,7
 114 -45 114 -45 147.5 -4.5 c 128,-1,8
 181 36 181 36 181 113 c 0,9,10
 181 146 181 146 169.5 225 c 128,-1,11
 158 304 158 304 158 339 c 0,12,13
 158 426 158 426 205.5 494 c 128,-1,14
 253 562 253 562 341 601 c 1,15,-1
 343 614 l 1,16,17
 281 645 281 645 249 698 c 128,-1,18
 217 751 217 751 217 815 c 0,19,20
 217 863 217 863 240.5 926 c 128,-1,21
 264 989 264 989 287.5 1050 c 128,-1,22
 311 1111 311 1111 311 1154 c 0,23,24
 311 1259 311 1259 210 1259 c 0,25,26
 179 1259 179 1259 130 1248 c 1,27,-1
 123 1422 l 1,28,-1
 141 1444 l 1,29,30
 228 1469 228 1469 299 1469 c 256,31,32
 370 1469 370 1469 425 1453.5 c 128,-1,33
 480 1438 480 1438 516 1408 c 128,-1,34
 552 1378 552 1378 571 1335 c 128,-1,35
 590 1292 590 1292 590 1237 c 0,36,37
 590 1186 590 1186 575.5 1125 c 128,-1,38
 561 1064 561 1064 544 1018.5 c 128,-1,39
 527 973 527 973 512.5 922 c 128,-1,40
 498 871 498 871 498 837 c 0,41,42
 498 728 498 728 620 688 c 1,43,-1
 601 529 l 1,44,45
 516 501 516 501 475.5 451 c 128,-1,46
 435 401 435 401 435 319 c 0,47,48
 435 290 435 290 441 207 c 128,-1,49
 447 124 447 124 447 81 c 0,50,51
 447 -84 447 -84 354.5 -169 c 128,-1,52
 262 -254 262 -254 87 -254 c 0,0,1
EndSplineSet
EndChar

StartChar: asciitilde
Encoding: 126 126 97
Width: 1071
GlyphClass: 2
Flags: W
LayerCount: 2
Fore
SplineSet
332 509 m 0,0,1
 320 509 320 509 305.5 503.5 c 128,-1,2
 291 498 291 498 279.5 491 c 128,-1,3
 268 484 268 484 249 468.5 c 128,-1,4
 230 453 230 453 219.5 443.5 c 128,-1,5
 209 434 209 434 185.5 411.5 c 128,-1,6
 162 389 162 389 152 379 c 1,7,-1
 123 379 l 1,8,-1
 45 494 l 1,9,-1
 47 522 l 1,10,-1
 268 746 l 1,11,-1
 299 761 l 1,12,13
 354 751 354 751 534.5 695 c 128,-1,14
 715 639 715 639 754 639 c 0,15,16
 765 639 765 639 776 642 c 128,-1,17
 787 645 787 645 800 653 c 128,-1,18
 813 661 813 661 823.5 668 c 128,-1,19
 834 675 834 675 849.5 689 c 128,-1,20
 865 703 865 703 875.5 712.5 c 128,-1,21
 886 722 886 722 905 740 c 128,-1,22
 924 758 924 758 935 768 c 1,23,-1
 967 768 l 1,24,-1
 1040 654 l 1,25,-1
 1038 625 l 1,26,-1
 822 400 l 1,27,-1
 788 388 l 1,28,29
 728 397 728 397 549 453 c 128,-1,30
 370 509 370 509 332 509 c 0,0,1
EndSplineSet
EndChar

StartChar: exclamdown
Encoding: 161 161 99
Width: 620
GlyphClass: 2
Flags: W
LayerCount: 2
Fore
SplineSet
355 705 m 0,0,1
 274 705 274 705 229.5 751 c 128,-1,2
 185 797 185 797 185 880 c 0,3,4
 185 967 185 967 234.5 1018 c 128,-1,5
 284 1069 284 1069 368 1069 c 0,6,7
 450 1069 450 1069 495.5 1023 c 128,-1,8
 541 977 541 977 541 895 c 0,9,10
 541 808 541 808 490.5 756.5 c 128,-1,11
 440 705 440 705 355 705 c 0,0,1
2 -398 m 1,12,-1
 207 505 l 1,13,-1
 407 533 l 1,14,-1
 437 498 l 1,15,-1
 353 -382 l 1,16,-1
 319 -422 l 1,17,-1
 38 -439 l 1,18,-1
 2 -398 l 1,12,-1
EndSplineSet
EndChar

StartChar: cent
Encoding: 162 162 100
Width: 863
GlyphClass: 2
Flags: W
LayerCount: 2
Fore
SplineSet
688 480 m 1,0,-1
 784 362 l 1,1,2
 724 264 724 264 659 203 c 128,-1,3
 594 142 594 142 511 105 c 1,4,-1
 453 -277 l 1,5,-1
 281 -277 l 1,6,-1
 262 -252 l 1,7,-1
 311 85 l 1,8,9
 221 109 221 109 164 158 c 128,-1,10
 107 207 107 207 79 287.5 c 128,-1,11
 51 368 51 368 51 484 c 0,12,13
 51 574 51 574 66.5 656.5 c 128,-1,14
 82 739 82 739 115.5 814 c 128,-1,15
 149 889 149 889 197.5 949.5 c 128,-1,16
 246 1010 246 1010 316 1055 c 128,-1,17
 386 1100 386 1100 471 1123 c 1,18,-1
 522 1467 l 1,19,-1
 690 1467 l 1,20,-1
 716 1440 l 1,21,-1
 671 1141 l 1,22,-1
 839 1091 l 1,23,-1
 852 1061 l 1,24,-1
 775 846 l 1,25,-1
 710 844 l 1,26,27
 669 886 669 886 636.5 904 c 128,-1,28
 604 922 604 922 565 922 c 0,29,30
 449 922 449 922 388.5 824 c 128,-1,31
 328 726 328 726 328 541 c 0,32,33
 328 424 328 424 358 370.5 c 128,-1,34
 388 317 388 317 451 317 c 0,35,36
 482 317 482 317 511 330.5 c 128,-1,37
 540 344 540 344 576 381.5 c 128,-1,38
 612 419 612 419 650 482 c 1,39,-1
 688 480 l 1,0,-1
EndSplineSet
EndChar

StartChar: sterling
Encoding: 163 163 101
Width: 1026
GlyphClass: 2
Flags: W
LayerCount: 2
Fore
SplineSet
797 1331 m 0,0,1
 915 1331 915 1331 1054 1297 c 1,2,-1
 1009 1054 l 1,3,-1
 984 1038 l 1,4,5
 847 1110 847 1110 743 1110 c 0,6,7
 588 1110 588 1110 569 958 c 2,8,-1
 545 775 l 1,9,-1
 826 775 l 1,10,-1
 835 756 l 1,11,-1
 799 590 l 1,12,-1
 520 590 l 1,13,-1
 500 443 l 1,14,15
 491 366 491 366 465.5 321 c 128,-1,16
 440 276 440 276 388 239 c 1,17,-1
 388 230 l 1,18,-1
 692 230 l 1,19,-1
 924 247 l 1,20,-1
 933 230 l 1,21,-1
 882 -9 l 1,22,-1
 580 0 l 1,23,-1
 -11 0 l 1,24,-1
 -22 17 l 1,25,-1
 13 207 l 1,26,27
 73 221 73 221 112.5 248 c 128,-1,28
 152 275 152 275 174 317.5 c 128,-1,29
 196 360 196 360 203 422 c 2,30,-1
 223 590 l 1,31,-1
 60 590 l 1,32,-1
 53 605 l 1,33,-1
 87 775 l 1,34,-1
 245 775 l 1,35,-1
 262 904 l 1,36,37
 284 1110 284 1110 423.5 1220.5 c 128,-1,38
 563 1331 563 1331 797 1331 c 0,0,1
EndSplineSet
EndChar

StartChar: currency
Encoding: 164 164 102
Width: 970
GlyphClass: 2
Flags: W
LayerCount: 2
Fore
SplineSet
1029 1110 m 1,0,-1
 1025 1078 l 1,1,-1
 852 942 l 1,2,3
 880 879 880 879 880 806 c 0,4,5
 880 712 880 712 820 616 c 1,6,-1
 960 489 l 1,7,-1
 962 458 l 1,8,-1
 792 299 l 1,9,-1
 763 299 l 1,10,-1
 647 456 l 1,11,12
 561 407 561 407 469 407 c 0,13,14
 385 407 385 407 315 449 c 1,15,-1
 170 292 l 1,16,-1
 136 290 l 1,17,-1
 -2 437 l 1,18,-1
 4 469 l 1,19,-1
 174 603 l 1,20,21
 147 662 147 662 147 737 c 0,22,23
 147 840 147 840 210 931 c 1,24,-1
 69 1061 l 1,25,-1
 69 1091 l 1,26,-1
 239 1248 l 1,27,-1
 268 1248 l 1,28,-1
 386 1091 l 1,29,30
 466 1134 466 1134 558 1134 c 0,31,32
 642 1134 642 1134 705 1097 c 1,33,-1
 857 1255 l 1,34,-1
 891 1259 l 1,35,-1
 1029 1110 l 1,0,-1
536 950 m 0,36,37
 477 950 477 950 430.5 925 c 128,-1,38
 384 900 384 900 357 854 c 128,-1,39
 330 808 330 808 330 750 c 0,40,41
 330 678 330 678 373.5 635 c 128,-1,42
 417 592 417 592 492 592 c 0,43,44
 581 592 581 592 639 648 c 128,-1,45
 697 704 697 704 697 795 c 0,46,47
 697 841 697 841 677.5 876.5 c 128,-1,48
 658 912 658 912 621.5 931 c 128,-1,49
 585 950 585 950 536 950 c 0,36,37
EndSplineSet
EndChar

StartChar: yen
Encoding: 165 165 103
Width: 1261
GlyphClass: 2
Flags: W
LayerCount: 2
Fore
SplineSet
1190 703 m 1,0,-1
 1201 690 l 1,1,-1
 1172 547 l 1,2,-1
 867 547 l 1,3,-1
 761 395 l 1,4,-1
 1150 395 l 1,5,-1
 1163 379 l 1,6,-1
 1136 239 l 1,7,-1
 716 239 l 1,8,-1
 697 0 l 1,9,-1
 398 0 l 1,10,-1
 439 239 l 1,11,-1
 60 239 l 1,12,-1
 51 254 l 1,13,-1
 76 395 l 1,14,-1
 439 395 l 1,15,-1
 379 547 l 1,16,-1
 98 547 l 1,17,-1
 89 565 l 1,18,-1
 116 703 l 1,19,-1
 319 703 l 1,20,-1
 149 1129 l 1,21,-1
 464 1129 l 1,22,-1
 484 1042 l 1,23,-1
 630 663 l 1,24,-1
 647 663 l 1,25,-1
 911 1033 l 1,26,-1
 962 1129 l 1,27,-1
 1268 1129 l 1,28,-1
 973 703 l 1,29,-1
 1190 703 l 1,0,-1
EndSplineSet
EndChar

StartChar: brokenbar
Encoding: 166 166 104
Width: 680
GlyphClass: 2
Flags: W
LayerCount: 2
Fore
SplineSet
630 1775 m 1,0,-1
 509 846 l 1,1,-1
 268 815 l 1,2,-1
 247 837 l 1,3,-1
 364 1779 l 1,4,-1
 607 1800 l 1,5,-1
 630 1775 l 1,0,-1
445 328 m 1,6,-1
 337 -558 l 1,7,-1
 100 -576 l 1,8,-1
 76 -547 l 1,9,-1
 185 332 l 1,10,-1
 420 360 l 1,11,-1
 445 328 l 1,6,-1
EndSplineSet
EndChar

StartChar: section
Encoding: 167 167 105
Width: 1003
GlyphClass: 2
Flags: W
LayerCount: 2
Fore
SplineSet
509 1154 m 0,0,1
 509 1134 509 1134 524.5 1114 c 128,-1,2
 540 1094 540 1094 566.5 1077 c 128,-1,3
 593 1060 593 1060 627 1042 c 128,-1,4
 661 1024 661 1024 699 1004 c 128,-1,5
 737 984 737 984 774.5 961.5 c 128,-1,6
 812 939 812 939 846.5 911 c 128,-1,7
 881 883 881 883 907 850.5 c 128,-1,8
 933 818 933 818 949 775.5 c 128,-1,9
 965 733 965 733 965 686 c 0,10,11
 965 582 965 582 895.5 491 c 128,-1,12
 826 400 826 400 710 346 c 1,13,14
 815 255 815 255 815 141 c 0,15,16
 815 43 815 43 752 -40 c 128,-1,17
 689 -123 689 -123 578.5 -171 c 128,-1,18
 468 -219 468 -219 337 -219 c 0,19,20
 259 -219 259 -219 162.5 -200.5 c 128,-1,21
 66 -182 66 -182 -9 -152 c 1,22,-1
 60 100 l 1,23,-1
 92 121 l 1,24,25
 160 59 160 59 241.5 23 c 128,-1,26
 323 -13 323 -13 390 -13 c 0,27,28
 453 -13 453 -13 489.5 16 c 128,-1,29
 526 45 526 45 526 81 c 0,30,31
 526 104 526 104 506.5 126.5 c 128,-1,32
 487 149 487 149 455 167.5 c 128,-1,33
 423 186 423 186 382.5 208.5 c 128,-1,34
 342 231 342 231 299.5 253.5 c 128,-1,35
 257 276 257 276 216 306.5 c 128,-1,36
 175 337 175 337 143 370.5 c 128,-1,37
 111 404 111 404 91.5 451 c 128,-1,38
 72 498 72 498 72 552 c 0,39,40
 72 657 72 657 140 749 c 128,-1,41
 208 841 208 841 324 897 c 1,42,43
 223 982 223 982 223 1099 c 0,44,45
 223 1171 223 1171 260 1237.5 c 128,-1,46
 297 1304 297 1304 360 1353 c 128,-1,47
 423 1402 423 1402 511.5 1431 c 128,-1,48
 600 1460 600 1460 699 1460 c 0,49,50
 769 1460 769 1460 847 1445.5 c 128,-1,51
 925 1431 925 1431 986 1406 c 1,52,-1
 922 1163 l 1,53,-1
 882 1152 l 1,54,55
 815 1197 815 1197 750 1221.5 c 128,-1,56
 685 1246 685 1246 637 1246 c 0,57,58
 581 1246 581 1246 545 1217.5 c 128,-1,59
 509 1189 509 1189 509 1154 c 0,0,1
362 637 m 0,60,61
 362 617 362 617 368 599 c 128,-1,62
 374 581 374 581 389 564.5 c 128,-1,63
 404 548 404 548 417 535.5 c 128,-1,64
 430 523 430 523 456.5 506 c 128,-1,65
 483 489 483 489 498.5 479.5 c 128,-1,66
 514 470 514 470 547 451 c 1,67,68
 674 511 674 511 674 601 c 0,69,70
 674 616 674 616 670.5 630 c 128,-1,71
 667 644 667 644 658.5 657.5 c 128,-1,72
 650 671 650 671 642 681.5 c 128,-1,73
 634 692 634 692 618 705 c 128,-1,74
 602 718 602 718 592 726 c 128,-1,75
 582 734 582 734 560 747.5 c 128,-1,76
 538 761 538 761 527.5 767.5 c 128,-1,77
 517 774 517 774 492 788 c 1,78,79
 428 756 428 756 395 717 c 128,-1,80
 362 678 362 678 362 637 c 0,60,61
EndSplineSet
EndChar

StartChar: dieresis
Encoding: 168 168 106
Width: 869
GlyphClass: 2
Flags: W
LayerCount: 2
Fore
SplineSet
346 1549 m 0,0,1
 416 1549 416 1549 456 1508 c 128,-1,2
 496 1467 496 1467 496 1395 c 0,3,4
 496 1318 496 1318 452 1272.5 c 128,-1,5
 408 1227 408 1227 332 1227 c 0,6,7
 259 1227 259 1227 220 1267.5 c 128,-1,8
 181 1308 181 1308 181 1382 c 0,9,10
 181 1459 181 1459 225 1504 c 128,-1,11
 269 1549 269 1549 346 1549 c 0,0,1
752 1547 m 0,12,13
 799 1547 799 1547 832.5 1529 c 128,-1,14
 866 1511 866 1511 883.5 1477 c 128,-1,15
 901 1443 901 1443 901 1395 c 0,16,17
 901 1356 901 1356 890 1324.5 c 128,-1,18
 879 1293 879 1293 858 1271 c 128,-1,19
 837 1249 837 1249 806.5 1237 c 128,-1,20
 776 1225 776 1225 739 1225 c 0,21,22
 666 1225 666 1225 627 1266 c 128,-1,23
 588 1307 588 1307 588 1382 c 0,24,25
 588 1459 588 1459 631.5 1503 c 128,-1,26
 675 1547 675 1547 752 1547 c 0,12,13
EndSplineSet
EndChar

StartChar: copyright
Encoding: 169 169 107
Width: 1548
GlyphClass: 2
Flags: W
LayerCount: 2
Fore
SplineSet
790 1335 m 128,-1,1
 940 1335 940 1335 1065.5 1286 c 128,-1,2
 1191 1237 1191 1237 1278 1148.5 c 128,-1,3
 1365 1060 1365 1060 1413.5 933 c 128,-1,4
 1462 806 1462 806 1462 654 c 128,-1,5
 1462 502 1462 502 1413.5 375 c 128,-1,6
 1365 248 1365 248 1278 159.5 c 128,-1,7
 1191 71 1191 71 1065.5 22 c 128,-1,8
 940 -27 940 -27 790 -27 c 128,-1,9
 640 -27 640 -27 515 22 c 128,-1,10
 390 71 390 71 302.5 159.5 c 128,-1,11
 215 248 215 248 167 375 c 128,-1,12
 119 502 119 502 119 654 c 128,-1,13
 119 806 119 806 167 933 c 128,-1,14
 215 1060 215 1060 302.5 1148.5 c 128,-1,15
 390 1237 390 1237 515 1286 c 128,-1,0
 640 1335 640 1335 790 1335 c 128,-1,1
790 1219 m 0,16,17
 626 1219 626 1219 499.5 1148.5 c 128,-1,18
 373 1078 373 1078 303.5 950 c 128,-1,19
 234 822 234 822 234 654 c 128,-1,20
 234 486 234 486 303.5 358 c 128,-1,21
 373 230 373 230 499.5 159.5 c 128,-1,22
 626 89 626 89 790.5 89 c 128,-1,23
 955 89 955 89 1081.5 159.5 c 128,-1,24
 1208 230 1208 230 1277 358 c 128,-1,25
 1346 486 1346 486 1346 654 c 0,26,27
 1346 780 1346 780 1305.5 885 c 128,-1,28
 1265 990 1265 990 1193 1063.5 c 128,-1,29
 1121 1137 1121 1137 1017.5 1178 c 128,-1,30
 914 1219 914 1219 790 1219 c 0,16,17
846 1036 m 0,31,32
 942 1036 942 1036 1040 1007 c 1,33,-1
 997 826 l 1,34,-1
 984 818 l 1,35,36
 913 850 913 850 837 850 c 0,37,38
 759 850 759 850 724.5 811 c 128,-1,39
 690 772 690 772 690 679 c 0,40,41
 690 573 690 573 728 523 c 128,-1,42
 766 473 766 473 848 473 c 0,43,44
 922 473 922 473 1001 496 c 1,45,-1
 1018 486 l 1,46,-1
 1001 306 l 1,47,48
 925 286 925 286 833 286 c 0,49,50
 642 286 642 286 546.5 379.5 c 128,-1,51
 451 473 451 473 451 654 c 0,52,53
 451 836 451 836 553.5 936 c 128,-1,54
 656 1036 656 1036 846 1036 c 0,31,32
EndSplineSet
EndChar

StartChar: ordfeminine
Encoding: 170 170 108
Width: 733
GlyphClass: 2
Flags: W
AnchorPoint: "Anchor-1" 0 0 basechar 0
AnchorPoint: "Anchor-0" 598 1044 basechar 0
LayerCount: 2
Fore
SplineSet
759 1440 m 1,0,-1
 686 897 l 1,1,-1
 677 732 l 1,2,-1
 467 718 l 1,3,-1
 498 958 l 1,4,-1
 475 958 l 1,5,6
 391 797 391 797 308 712 c 1,7,-1
 279 712 l 1,8,9
 178 742 178 742 139 801 c 128,-1,10
 100 860 100 860 100 958 c 0,11,12
 100 1036 100 1036 122.5 1111 c 128,-1,13
 145 1186 145 1186 189 1252 c 128,-1,14
 233 1318 233 1318 304 1369 c 128,-1,15
 375 1420 375 1420 464 1444 c 1,16,-1
 475 1444 l 1,17,-1
 611 1422 l 1,18,-1
 741 1451 l 1,19,-1
 759 1440 l 1,0,-1
337 901 m 0,20,21
 360 901 360 901 413.5 984 c 128,-1,22
 467 1067 467 1067 531 1212 c 1,23,-1
 538 1261 l 1,24,-1
 538 1270 l 1,25,-1
 435 1293 l 1,26,27
 369 1291 369 1291 332.5 1222 c 128,-1,28
 296 1153 296 1153 296 1040 c 0,29,30
 296 992 296 992 302.5 960 c 128,-1,31
 309 928 309 928 317.5 914.5 c 128,-1,32
 326 901 326 901 337 901 c 0,20,21
EndSplineSet
EndChar

StartChar: guillemetleft
Encoding: 171 171 109
Width: 988
GlyphClass: 2
Flags: W
LayerCount: 2
Fore
SplineSet
69 494 m 1,0,-1
 76 545 l 1,1,-1
 420 933 l 1,2,-1
 571 848 l 1,3,-1
 573 818 l 1,4,-1
 324 511 l 1,5,-1
 498 205 l 1,6,-1
 489 174 l 1,7,-1
 315 87 l 1,8,-1
 69 494 l 1,0,-1
498 494 m 1,9,-1
 505 545 l 1,10,-1
 848 933 l 1,11,-1
 1001 848 l 1,12,-1
 1003 818 l 1,13,-1
 752 511 l 1,14,-1
 926 205 l 1,15,-1
 918 174 l 1,16,-1
 743 87 l 1,17,-1
 498 494 l 1,9,-1
EndSplineSet
EndChar

StartChar: logicalnot
Encoding: 172 172 110
Width: 1071
GlyphClass: 2
Flags: W
LayerCount: 2
Fore
SplineSet
989 674 m 1,0,-1
 920 102 l 1,1,-1
 707 85 l 1,2,-1
 686 107 l 1,3,-1
 730 460 l 1,4,-1
 60 460 l 1,5,-1
 40 484 l 1,6,-1
 83 694 l 1,7,-1
 978 694 l 1,8,-1
 989 674 l 1,0,-1
EndSplineSet
EndChar

StartChar: softhyphen
Encoding: 173 173 111
Width: 673
GlyphClass: 2
Flags: W
LayerCount: 2
Fore
SplineSet
637 703 m 1,0,-1
 611 489 l 1,1,-1
 72 407 l 1,2,-1
 49 433 l 1,3,-1
 74 647 l 1,4,-1
 614 728 l 1,5,-1
 637 703 l 1,0,-1
EndSplineSet
EndChar

StartChar: registered
Encoding: 174 174 112
Width: 1001
GlyphClass: 2
Flags: W
LayerCount: 2
Fore
SplineSet
500 1570 m 0,0,1
 690 1570 690 1570 806 1454 c 128,-1,2
 922 1338 922 1338 922 1150 c 0,3,4
 922 1024 922 1024 870 928.5 c 128,-1,5
 818 833 818 833 722 780.5 c 128,-1,6
 626 728 626 728 500 728 c 0,7,8
 313 728 313 728 197 844 c 128,-1,9
 81 960 81 960 81 1150 c 0,10,11
 81 1337 81 1337 197 1453.5 c 128,-1,12
 313 1570 313 1570 500 1570 c 0,0,1
502 808 m 0,13,14
 603 808 603 808 680 850.5 c 128,-1,15
 757 893 757 893 799 971 c 128,-1,16
 841 1049 841 1049 841 1150 c 0,17,18
 841 1302 841 1302 748 1394.5 c 128,-1,19
 655 1487 655 1487 502.5 1487 c 128,-1,20
 350 1487 350 1487 257 1394.5 c 128,-1,21
 164 1302 164 1302 164 1150 c 0,22,23
 164 996 164 996 257 902 c 128,-1,24
 350 808 350 808 502 808 c 0,13,14
692 1246 m 0,25,26
 692 1207 692 1207 670.5 1172 c 128,-1,27
 649 1137 649 1137 609 1114 c 1,28,29
 697 1000 697 1000 722 971 c 1,30,-1
 718 958 l 1,31,32
 679 944 679 944 601 935 c 1,33,-1
 585 946 l 1,34,35
 542 1018 542 1018 511 1080 c 1,36,-1
 447 1080 l 1,37,-1
 453 944 l 1,38,-1
 332 944 l 1,39,-1
 337 1071 l 1,40,-1
 332 1380 l 1,41,-1
 533 1382 l 2,42,43
 610 1382 610 1382 651 1346.5 c 128,-1,44
 692 1311 692 1311 692 1246 c 0,25,26
567 1235 m 0,45,46
 567 1265 567 1265 549.5 1278 c 128,-1,47
 532 1291 532 1291 492 1293 c 1,48,-1
 453 1291 l 1,49,-1
 449 1170 l 1,50,-1
 516 1165 l 1,51,52
 533 1173 533 1173 544 1182 c 128,-1,53
 555 1191 555 1191 561 1204 c 128,-1,54
 567 1217 567 1217 567 1235 c 0,45,46
EndSplineSet
EndChar

StartChar: macron
Encoding: 175 175 113
Width: 869
GlyphClass: 2
Flags: W
LayerCount: 2
Fore
SplineSet
873 1476 m 1,0,-1
 855 1284 l 1,1,-1
 232 1284 l 1,2,-1
 213 1306 l 1,3,-1
 228 1498 l 1,4,-1
 850 1498 l 1,5,-1
 873 1476 l 1,0,-1
EndSplineSet
EndChar

StartChar: degree
Encoding: 176 176 114
Width: 654
GlyphClass: 2
Flags: W
LayerCount: 2
Fore
SplineSet
443 1462 m 0,0,1
 555 1462 555 1462 629 1386 c 128,-1,2
 703 1310 703 1310 703 1199 c 0,3,4
 703 1112 703 1112 657 1037 c 128,-1,5
 611 962 611 962 534.5 918.5 c 128,-1,6
 458 875 458 875 371 875 c 0,7,8
 296 875 296 875 236 910 c 128,-1,9
 176 945 176 945 142.5 1005 c 128,-1,10
 109 1065 109 1065 109 1138 c 0,11,12
 109 1225 109 1225 155.5 1300 c 128,-1,13
 202 1375 202 1375 278.5 1418.5 c 128,-1,14
 355 1462 355 1462 443 1462 c 0,0,1
424 1317 m 0,15,16
 353 1317 353 1317 305 1269.5 c 128,-1,17
 257 1222 257 1222 257 1152 c 0,18,19
 257 1124 257 1124 266.5 1099.5 c 128,-1,20
 276 1075 276 1075 293 1057.5 c 128,-1,21
 310 1040 310 1040 334.5 1030 c 128,-1,22
 359 1020 359 1020 388 1020 c 0,23,24
 433 1020 433 1020 471.5 1041.5 c 128,-1,25
 510 1063 510 1063 533 1101 c 128,-1,26
 556 1139 556 1139 556 1185 c 0,27,28
 556 1242 556 1242 519 1279.5 c 128,-1,29
 482 1317 482 1317 424 1317 c 0,15,16
EndSplineSet
EndChar

StartChar: plusminus
Encoding: 177 177 115
Width: 1066
GlyphClass: 2
Flags: W
LayerCount: 2
Fore
SplineSet
714 1047 m 1,0,-1
 671 694 l 1,1,-1
 1020 694 l 1,2,-1
 1042 669 l 1,3,-1
 997 460 l 1,4,-1
 643 460 l 1,5,-1
 598 102 l 1,6,-1
 388 85 l 1,7,-1
 366 107 l 1,8,-1
 411 460 l 1,9,-1
 56 460 l 1,10,-1
 38 484 l 1,11,-1
 81 694 l 1,12,-1
 437 694 l 1,13,-1
 482 1052 l 1,14,-1
 692 1069 l 1,15,-1
 714 1047 l 1,0,-1
942 -74 m 1,16,-1
 924 -281 l 1,17,-1
 -17 -281 l 1,18,-1
 -40 -259 l 1,19,-1
 -22 -49 l 1,20,-1
 920 -49 l 1,21,-1
 942 -74 l 1,16,-1
EndSplineSet
EndChar

StartChar: twosuperior
Encoding: 178 178 116
Width: 816
GlyphClass: 2
Flags: W
LayerCount: 2
Fore
SplineSet
520 1574 m 0,0,1
 634 1574 634 1574 709 1521.5 c 128,-1,2
 784 1469 784 1469 784 1378 c 0,3,4
 784 1309 784 1309 733.5 1230.5 c 128,-1,5
 683 1152 683 1152 562 1027 c 1,6,-1
 443 901 l 1,7,-1
 447 897 l 1,8,-1
 625 897 l 1,9,-1
 782 909 l 1,10,-1
 792 891 l 1,11,-1
 739 686 l 1,12,-1
 520 697 l 1,13,-1
 143 697 l 1,14,-1
 85 692 l 1,15,-1
 72 703 l 1,16,-1
 92 857 l 1,17,-1
 326 1074 l 1,18,19
 376 1122 376 1122 400.5 1146.5 c 128,-1,20
 425 1171 425 1171 453.5 1203.5 c 128,-1,21
 482 1236 482 1236 493.5 1259.5 c 128,-1,22
 505 1283 505 1283 505 1304 c 0,23,24
 505 1329 505 1329 486 1344 c 128,-1,25
 467 1359 467 1359 433 1359 c 0,26,27
 387 1359 387 1359 327 1333.5 c 128,-1,28
 267 1308 267 1308 213 1263 c 1,29,-1
 183 1263 l 1,30,-1
 160 1460 l 1,31,32
 357 1574 357 1574 520 1574 c 0,0,1
EndSplineSet
EndChar

StartChar: threesuperior
Encoding: 179 179 117
Width: 729
GlyphClass: 2
Flags: W
LayerCount: 2
Fore
SplineSet
469 1576 m 0,0,1
 595 1576 595 1576 673.5 1522.5 c 128,-1,2
 752 1469 752 1469 752 1380 c 0,3,4
 752 1353 752 1353 744.5 1325.5 c 128,-1,5
 737 1298 737 1298 720 1268.5 c 128,-1,6
 703 1239 703 1239 669.5 1210.5 c 128,-1,7
 636 1182 636 1182 590 1161 c 1,8,-1
 588 1152 l 1,9,10
 724 1108 724 1108 724 976 c 0,11,12
 724 843 724 843 599 762 c 128,-1,13
 474 681 474 681 272 681 c 0,14,15
 178 681 178 681 96 699 c 1,16,-1
 102 886 l 1,17,-1
 123 901 l 1,18,19
 220 875 220 875 299 875 c 0,20,21
 381 875 381 875 424 898.5 c 128,-1,22
 467 922 467 922 467 967 c 0,23,24
 467 1029 467 1029 375 1029 c 2,25,-1
 252 1029 l 1,26,-1
 241 1044 l 1,27,-1
 266 1219 l 1,28,-1
 337 1221 l 2,29,30
 373 1222 373 1222 404 1234 c 128,-1,31
 435 1246 435 1246 454 1268 c 128,-1,32
 473 1290 473 1290 473 1317 c 0,33,34
 473 1373 473 1373 392 1373 c 0,35,36
 323 1373 323 1373 213 1319 c 1,37,-1
 185 1319 l 1,38,-1
 164 1493 l 1,39,40
 319 1576 319 1576 469 1576 c 0,0,1
EndSplineSet
EndChar

StartChar: acute
Encoding: 180 180 118
Width: 869
GlyphClass: 2
Flags: W
LayerCount: 2
Fore
SplineSet
703 1638 m 1,0,-1
 826 1451 l 1,1,-1
 820 1417 l 1,2,3
 517 1243 517 1243 364 1161 c 1,4,-1
 332 1163 l 1,5,-1
 250 1293 l 1,6,7
 512 1498 512 1498 669 1640 c 1,8,-1
 703 1638 l 1,0,-1
EndSplineSet
EndChar

StartChar: micro
Encoding: 181 181 119
Width: 1133
GlyphClass: 2
Flags: W
LayerCount: 2
Fore
SplineSet
1076 1052 m 1,0,-1
 969 254 l 1,1,-1
 960 13 l 1,2,-1
 641 -9 l 1,3,-1
 688 341 l 1,4,-1
 661 341 l 1,5,6
 517 119 517 119 373 -7 c 1,7,-1
 353 -9 l 1,8,-1
 330 -168 l 1,9,-1
 322 -411 l 1,10,-1
 2 -433 l 1,11,-1
 168 790 l 1,12,-1
 177 1031 l 1,13,-1
 494 1052 l 1,14,-1
 404 382 l 1,15,-1
 404 377 l 1,16,17
 402 358 402 358 407 344.5 c 128,-1,18
 412 331 412 331 421.5 325 c 128,-1,19
 431 319 431 319 445 319 c 0,20,21
 488 319 488 319 562.5 410.5 c 128,-1,22
 637 502 637 502 735 683 c 1,23,-1
 750 790 l 1,24,-1
 759 1031 l 1,25,-1
 1076 1052 l 1,0,-1
EndSplineSet
EndChar

StartChar: paragraph
Encoding: 182 182 120
Width: 1200
GlyphClass: 2
Flags: W
LayerCount: 2
Fore
SplineSet
1280 1415 m 1,0,-1
 1225 1174 l 1,1,-1
 1082 1174 l 1,2,-1
 980 451 l 1,3,-1
 967 311 l 1,4,5
 955 219 955 219 923.5 148.5 c 128,-1,6
 892 78 892 78 831 15.5 c 128,-1,7
 770 -47 770 -47 675.5 -99 c 128,-1,8
 581 -151 581 -151 445 -198 c 1,9,-1
 373 -40 l 1,10,-1
 377 -9 l 1,11,12
 463 34 463 34 517 78 c 128,-1,13
 571 122 571 122 600.5 175 c 128,-1,14
 630 228 630 228 639 296 c 1,15,-1
 652 413 l 1,16,-1
 735 1176 l 1,17,-1
 643 1176 l 1,18,19
 560 1156 560 1156 513.5 1083.5 c 128,-1,20
 467 1011 467 1011 467 904 c 0,21,22
 467 821 467 821 501.5 750.5 c 128,-1,23
 536 680 536 680 603 632 c 1,24,-1
 460 456 l 1,25,26
 283 501 283 501 188.5 614 c 128,-1,27
 94 727 94 727 94 893 c 0,28,29
 94 1149 94 1149 264.5 1294.5 c 128,-1,30
 435 1440 435 1440 737 1440 c 2,31,-1
 1259 1440 l 1,32,-1
 1280 1415 l 1,0,-1
EndSplineSet
EndChar

StartChar: periodcentered
Encoding: 183 183 121
Width: 513
GlyphClass: 2
Flags: W
LayerCount: 2
Fore
SplineSet
270 750 m 0,0,1
 350 750 350 750 394.5 704.5 c 128,-1,2
 439 659 439 659 439 578 c 0,3,4
 439 491 439 491 390 439.5 c 128,-1,5
 341 388 341 388 257 388 c 0,6,7
 174 388 174 388 129.5 433.5 c 128,-1,8
 85 479 85 479 85 562 c 0,9,10
 85 649 85 649 135 699.5 c 128,-1,11
 185 750 185 750 270 750 c 0,0,1
EndSplineSet
EndChar

StartChar: cedilla
Encoding: 184 184 122
Width: 869
GlyphClass: 2
Flags: W
LayerCount: 2
Fore
SplineSet
366 -102 m 1,0,-1
 443 -145 l 2,1,2
 478 -165 478 -165 499 -186.5 c 128,-1,3
 520 -208 520 -208 528 -230.5 c 128,-1,4
 536 -253 536 -253 536 -281 c 0,5,6
 536 -358 536 -358 475.5 -407 c 128,-1,7
 415 -456 415 -456 313 -456 c 0,8,9
 210 -456 210 -456 123 -395 c 1,10,-1
 145 -254 l 1,11,-1
 160 -250 l 1,12,13
 192 -280 192 -280 226.5 -297.5 c 128,-1,14
 261 -315 261 -315 290 -315 c 0,15,16
 339 -315 339 -315 339 -272 c 0,17,18
 339 -250 339 -250 306 -232 c 2,19,-1
 194 -170 l 1,20,-1
 245 62 l 1,21,-1
 404 62 l 1,22,-1
 366 -102 l 1,0,-1
EndSplineSet
EndChar

StartChar: onesuperior
Encoding: 185 185 123
Width: 631
GlyphClass: 2
Flags: W
LayerCount: 2
Fore
SplineSet
603 1549 m 1,0,-1
 524 1005 l 1,1,-1
 498 697 l 1,2,-1
 226 697 l 1,3,-1
 270 980 l 1,4,-1
 308 1284 l 1,5,-1
 123 1250 l 1,6,-1
 107 1261 l 1,7,-1
 132 1467 l 1,8,-1
 569 1576 l 1,9,-1
 603 1549 l 1,0,-1
EndSplineSet
EndChar

StartChar: ordmasculine
Encoding: 186 186 124
Width: 700
GlyphClass: 2
Flags: W
LayerCount: 2
Fore
SplineSet
496 1451 m 1,0,-1
 518 1449 l 1,1,2
 617 1429 617 1429 671.5 1366 c 128,-1,3
 726 1303 726 1303 726 1192 c 0,4,5
 726 977 726 977 620 848 c 128,-1,6
 514 719 514 719 330 710 c 1,7,-1
 313 714 l 1,8,9
 102 749 102 749 102 984 c 0,10,11
 102 1189 102 1189 208.5 1315 c 128,-1,12
 315 1441 315 1441 496 1451 c 1,0,-1
460 1295 m 0,13,14
 418 1295 418 1295 388.5 1275 c 128,-1,15
 359 1255 359 1255 341 1214.5 c 128,-1,16
 323 1174 323 1174 314.5 1117 c 128,-1,17
 306 1060 306 1060 306 982 c 0,18,19
 306 915 306 915 321 888.5 c 128,-1,20
 336 862 336 862 373 862 c 0,21,22
 454 862 454 862 488 938.5 c 128,-1,23
 522 1015 522 1015 522 1176 c 0,24,25
 522 1242 522 1242 508.5 1268.5 c 128,-1,26
 495 1295 495 1295 460 1295 c 0,13,14
EndSplineSet
EndChar

StartChar: guillemetright
Encoding: 187 187 125
Width: 984
GlyphClass: 2
Flags: W
LayerCount: 2
Fore
SplineSet
494 533 m 1,0,-1
 484 482 l 1,1,-1
 143 94 l 1,2,-1
 -9 179 l 1,3,-1
 -11 210 l 1,4,-1
 239 516 l 1,5,-1
 62 822 l 1,6,-1
 74 852 l 1,7,-1
 245 940 l 1,8,-1
 494 533 l 1,0,-1
922 533 m 1,9,-1
 916 482 l 1,10,-1
 571 94 l 1,11,-1
 420 179 l 1,12,-1
 417 210 l 1,13,-1
 667 516 l 1,14,-1
 492 822 l 1,15,-1
 502 852 l 1,16,-1
 677 940 l 1,17,-1
 922 533 l 1,9,-1
EndSplineSet
EndChar

StartChar: onequarter
Encoding: 188 188 126
Width: 1706
GlyphClass: 2
Flags: W
LayerCount: 2
Fore
SplineSet
1464 1406 m 1,0,-1
 228 -207 l 1,1,-1
 92 -119 l 1,2,-1
 83 -85 l 1,3,-1
 1323 1538 l 1,4,-1
 1451 1453 l 1,5,-1
 1464 1406 l 1,0,-1
109 1127 m 1,6,-1
 94 1138 l 1,7,-1
 119 1344 l 1,8,-1
 556 1453 l 1,9,-1
 590 1427 l 1,10,-1
 511 882 l 1,11,-1
 484 573 l 1,12,-1
 213 573 l 1,13,-1
 257 857 l 1,14,-1
 294 1161 l 1,15,-1
 109 1127 l 1,6,-1
1600 179 m 1,16,-1
 1489 181 l 1,17,-1
 1480 17 l 1,18,-1
 1462 0 l 1,19,-1
 1250 -11 l 1,20,-1
 1239 4 l 1,21,-1
 1265 183 l 1,22,-1
 1050 183 l 1,23,-1
 888 179 l 1,24,-1
 875 198 l 1,25,-1
 893 360 l 1,26,-1
 1327 867 l 1,27,-1
 1574 867 l 1,28,-1
 1506 377 l 1,29,-1
 1623 377 l 1,30,-1
 1634 355 l 1,31,-1
 1600 179 l 1,16,-1
1125 377 m 1,32,-1
 1295 377 l 1,33,-1
 1319 588 l 1,34,-1
 1304 588 l 1,35,-1
 1125 377 l 1,32,-1
EndSplineSet
EndChar

StartChar: onehalf
Encoding: 189 189 127
Width: 1772
GlyphClass: 2
Flags: W
LayerCount: 2
Fore
SplineSet
1451 1453 m 1,0,-1
 1464 1406 l 1,1,-1
 228 -207 l 1,2,-1
 92 -119 l 1,3,-1
 83 -85 l 1,4,-1
 1323 1538 l 1,5,-1
 1451 1453 l 1,0,-1
590 1427 m 1,6,-1
 511 882 l 1,7,-1
 484 573 l 1,8,-1
 213 573 l 1,9,-1
 257 857 l 1,10,-1
 294 1161 l 1,11,-1
 109 1127 l 1,12,-1
 94 1138 l 1,13,-1
 119 1344 l 1,14,-1
 556 1453 l 1,15,-1
 590 1427 l 1,6,-1
1408 877 m 0,16,17
 1483 877 1483 877 1542 854.5 c 128,-1,18
 1601 832 1601 832 1636.5 787 c 128,-1,19
 1672 742 1672 742 1672 681 c 0,20,21
 1672 612 1672 612 1622 533.5 c 128,-1,22
 1572 455 1572 455 1451 330 c 2,23,-1
 1331 205 l 1,24,-1
 1335 201 l 1,25,-1
 1514 201 l 1,26,-1
 1670 213 l 1,27,-1
 1681 194 l 1,28,-1
 1627 -11 l 1,29,-1
 1408 0 l 1,30,-1
 1031 0 l 1,31,-1
 973 -4 l 1,32,-1
 960 7 l 1,33,-1
 980 160 l 1,34,-1
 1214 377 l 1,35,36
 1264 425 1264 425 1288.5 450 c 128,-1,37
 1313 475 1313 475 1342 507.5 c 128,-1,38
 1371 540 1371 540 1382 563 c 128,-1,39
 1393 586 1393 586 1393 607 c 0,40,41
 1393 633 1393 633 1374.5 648 c 128,-1,42
 1356 663 1356 663 1321 663 c 0,43,44
 1275 663 1275 663 1215.5 637 c 128,-1,45
 1156 611 1156 611 1101 567 c 1,46,-1
 1071 567 l 1,47,-1
 1050 763 l 1,48,49
 1247 877 1247 877 1408 877 c 0,16,17
EndSplineSet
EndChar

StartChar: threequarters
Encoding: 190 190 128
Width: 1796
GlyphClass: 2
Flags: W
LayerCount: 2
Fore
SplineSet
1553 1406 m 1,0,-1
 317 -207 l 1,1,-1
 181 -119 l 1,2,-1
 172 -85 l 1,3,-1
 1413 1538 l 1,4,-1
 1540 1453 l 1,5,-1
 1553 1406 l 1,0,-1
703 852 m 0,6,7
 703 720 703 720 578 639 c 128,-1,8
 453 558 453 558 252 558 c 0,9,10
 158 558 158 558 76 576 c 1,11,-1
 83 763 l 1,12,-1
 102 779 l 1,13,14
 203 752 203 752 279 752 c 0,15,16
 361 752 361 752 404 775.5 c 128,-1,17
 447 799 447 799 447 844 c 0,18,19
 447 906 447 906 355 906 c 2,20,-1
 232 906 l 1,21,-1
 221 922 l 1,22,-1
 245 1097 l 1,23,-1
 317 1099 l 2,24,25
 373 1100 373 1100 413 1127 c 128,-1,26
 453 1154 453 1154 453 1195 c 0,27,28
 453 1250 453 1250 373 1250 c 0,29,30
 300 1250 300 1250 192 1197 c 1,31,-1
 166 1197 l 1,32,-1
 143 1370 l 1,33,34
 298 1453 298 1453 449 1453 c 0,35,36
 576 1453 576 1453 654 1399 c 128,-1,37
 732 1345 732 1345 732 1257 c 0,38,39
 732 1230 732 1230 724.5 1202.5 c 128,-1,40
 717 1175 717 1175 699.5 1145 c 128,-1,41
 682 1115 682 1115 648.5 1087 c 128,-1,42
 615 1059 615 1059 569 1038 c 1,43,-1
 567 1029 l 1,44,45
 703 985 703 985 703 852 c 0,6,7
1690 179 m 1,46,-1
 1578 181 l 1,47,-1
 1570 17 l 1,48,-1
 1551 0 l 1,49,-1
 1340 -11 l 1,50,-1
 1329 4 l 1,51,-1
 1355 183 l 1,52,-1
 1138 183 l 1,53,-1
 978 179 l 1,54,-1
 965 198 l 1,55,-1
 982 360 l 1,56,-1
 1415 867 l 1,57,-1
 1663 867 l 1,58,-1
 1596 377 l 1,59,-1
 1712 377 l 1,60,-1
 1723 355 l 1,61,-1
 1690 179 l 1,46,-1
1214 377 m 1,62,-1
 1384 377 l 1,63,-1
 1408 588 l 1,64,-1
 1393 588 l 1,65,-1
 1214 377 l 1,62,-1
EndSplineSet
EndChar

StartChar: questiondown
Encoding: 191 191 129
Width: 767
GlyphClass: 2
Flags: W
LayerCount: 2
Fore
SplineSet
456 705 m 0,0,1
 376 705 376 705 331 751.5 c 128,-1,2
 286 798 286 798 286 880 c 0,3,4
 286 966 286 966 336 1017.5 c 128,-1,5
 386 1069 386 1069 471 1069 c 0,6,7
 552 1069 552 1069 596.5 1023 c 128,-1,8
 641 977 641 977 641 895 c 0,9,10
 641 808 641 808 591.5 756.5 c 128,-1,11
 542 705 542 705 456 705 c 0,0,1
518 -431 m 1,12,-1
 484 -449 l 1,13,14
 197 -434 197 -434 45 -347.5 c 128,-1,15
 -107 -261 -107 -261 -107 -111 c 0,16,17
 -107 -11 -107 -11 -41.5 78.5 c 128,-1,18
 24 168 24 168 143 230 c 2,19,-1
 304 315 l 1,20,-1
 308 328 l 1,21,-1
 317 505 l 1,22,-1
 562 541 l 1,23,-1
 585 516 l 1,24,-1
 573 228 l 1,25,-1
 558 205 l 1,26,-1
 351 109 l 2,27,28
 213 45 213 45 213 -56 c 0,29,30
 213 -128 213 -128 297.5 -167 c 128,-1,31
 382 -206 382 -206 580 -219 c 1,32,-1
 601 -252 l 1,33,-1
 518 -431 l 1,12,-1
EndSplineSet
EndChar

StartChar: Agrave
Encoding: 192 192 130
Width: 1338
GlyphClass: 2
Flags: W
AnchorPoint: "Anchor-1" 0 0 basechar 0
AnchorPoint: "Anchor-0" 788 1439 basechar 0
LayerCount: 2
Fore
SplineSet
1074 1608 m 1,0,-1
 1042 1598 l 1,1,2
 783 1679 783 1679 545 1766 c 1,3,-1
 533 1797 l 1,4,-1
 620 2002 l 1,5,-1
 652 2011 l 1,6,7
 845 1895 845 1895 1129 1753 c 1,8,-1
 1074 1608 l 1,0,-1
1248 0 m 1,9,-1
 888 0 l 1,10,-1
 877 205 l 1,11,-1
 867 294 l 1,12,-1
 614 299 l 1,13,-1
 395 292 l 1,14,-1
 366 226 l 1,15,-1
 299 0 l 1,16,-1
 -49 0 l 1,17,-1
 588 1440 l 1,18,-1
 1012 1440 l 1,19,-1
 1248 0 l 1,9,-1
833 560 m 1,20,-1
 763 1114 l 1,21,-1
 741 1114 l 1,22,-1
 509 562 l 1,23,-1
 667 558 l 1,24,-1
 833 560 l 1,20,-1
EndSplineSet
Position2: "'cpsp' Capital Spacing lookup 0 subtable" dx=16 dy=0 dh=33 dv=0
EndChar

StartChar: Aacute
Encoding: 193 193 131
Width: 1338
GlyphClass: 2
Flags: W
AnchorPoint: "Anchor-1" 0 0 basechar 0
AnchorPoint: "Anchor-0" 788 1439 basechar 0
LayerCount: 2
Fore
SplineSet
601 1606 m 1,0,-1
 547 1748 l 1,1,2
 833 1895 833 1895 1022 2009 c 1,3,-1
 1054 2000 l 1,4,-1
 1143 1795 l 1,5,-1
 1131 1764 l 1,6,7
 908 1683 908 1683 634 1596 c 1,8,-1
 601 1606 l 1,0,-1
1248 0 m 1,9,-1
 888 0 l 1,10,-1
 877 205 l 1,11,-1
 867 294 l 1,12,-1
 614 299 l 1,13,-1
 395 292 l 1,14,-1
 366 226 l 1,15,-1
 299 0 l 1,16,-1
 -49 0 l 1,17,-1
 588 1440 l 1,18,-1
 1012 1440 l 1,19,-1
 1248 0 l 1,9,-1
833 560 m 1,20,-1
 763 1114 l 1,21,-1
 741 1114 l 1,22,-1
 509 562 l 1,23,-1
 667 558 l 1,24,-1
 833 560 l 1,20,-1
EndSplineSet
Position2: "'cpsp' Capital Spacing lookup 0 subtable" dx=16 dy=0 dh=33 dv=0
EndChar

StartChar: Acircumflex
Encoding: 194 194 132
Width: 1338
GlyphClass: 2
Flags: W
AnchorPoint: "Anchor-1" 0 0 basechar 0
AnchorPoint: "Anchor-0" 788 1439 basechar 0
LayerCount: 2
Fore
SplineSet
531 1619 m 1,0,-1
 484 1755 l 1,1,2
 676 1883 676 1883 815 1998 c 1,3,-1
 882 1998 l 1,4,5
 995 1891 995 1891 1178 1755 c 1,6,-1
 1101 1619 l 1,7,-1
 1067 1619 l 1,8,-1
 837 1757 l 1,9,10
 790 1732 790 1732 697 1685.5 c 128,-1,11
 604 1639 604 1639 565 1619 c 1,12,-1
 531 1619 l 1,0,-1
1248 0 m 1,13,-1
 888 0 l 1,14,-1
 877 205 l 1,15,-1
 867 294 l 1,16,-1
 614 299 l 1,17,-1
 395 292 l 1,18,-1
 366 226 l 1,19,-1
 299 0 l 1,20,-1
 -49 0 l 1,21,-1
 588 1440 l 1,22,-1
 1012 1440 l 1,23,-1
 1248 0 l 1,13,-1
833 560 m 1,24,-1
 763 1114 l 1,25,-1
 741 1114 l 1,26,-1
 509 562 l 1,27,-1
 667 558 l 1,28,-1
 833 560 l 1,24,-1
EndSplineSet
Position2: "'cpsp' Capital Spacing lookup 0 subtable" dx=16 dy=0 dh=33 dv=0
EndChar

StartChar: Atilde
Encoding: 195 195 133
Width: 1338
GlyphClass: 2
Flags: W
AnchorPoint: "Anchor-1" 0 0 basechar 0
AnchorPoint: "Anchor-0" 788 1439 basechar 0
LayerCount: 2
Fore
SplineSet
524 1594 m 1,0,-1
 422 1694 l 1,1,-1
 422 1723 l 1,2,-1
 588 1940 l 1,3,-1
 618 1951 l 1,4,5
 673 1944 673 1944 803.5 1909.5 c 128,-1,6
 934 1875 934 1875 962 1875 c 0,7,8
 971 1875 971 1875 980.5 1878 c 128,-1,9
 990 1881 990 1881 998 1885 c 128,-1,10
 1006 1889 1006 1889 1016 1897 c 128,-1,11
 1026 1905 1026 1905 1033 1911.5 c 128,-1,12
 1040 1918 1040 1918 1051 1930.5 c 128,-1,13
 1062 1943 1062 1943 1069 1950.5 c 128,-1,14
 1076 1958 1076 1958 1088.5 1973 c 128,-1,15
 1101 1988 1101 1988 1107 1996 c 1,16,-1
 1136 1996 l 1,17,-1
 1239 1896 l 1,18,-1
 1239 1866 l 1,19,-1
 1074 1647 l 1,20,-1
 1042 1636 l 1,21,22
 998 1642 998 1642 923 1661.5 c 128,-1,23
 848 1681 848 1681 785.5 1698 c 128,-1,24
 723 1715 723 1715 699 1715 c 0,25,26
 687 1715 687 1715 674 1709.5 c 128,-1,27
 661 1704 661 1704 651.5 1697.5 c 128,-1,28
 642 1691 642 1691 627.5 1676 c 128,-1,29
 613 1661 613 1661 605.5 1652.5 c 128,-1,30
 598 1644 598 1644 580.5 1623 c 128,-1,31
 563 1602 563 1602 556 1594 c 1,32,-1
 524 1594 l 1,0,-1
1248 0 m 1,33,-1
 888 0 l 1,34,-1
 877 205 l 1,35,-1
 867 294 l 1,36,-1
 614 299 l 1,37,-1
 395 292 l 1,38,-1
 366 226 l 1,39,-1
 299 0 l 1,40,-1
 -49 0 l 1,41,-1
 588 1440 l 1,42,-1
 1012 1440 l 1,43,-1
 1248 0 l 1,33,-1
833 560 m 1,44,-1
 763 1114 l 1,45,-1
 741 1114 l 1,46,-1
 509 562 l 1,47,-1
 667 558 l 1,48,-1
 833 560 l 1,44,-1
EndSplineSet
Position2: "'cpsp' Capital Spacing lookup 0 subtable" dx=16 dy=0 dh=33 dv=0
EndChar

StartChar: Adieresis
Encoding: 196 196 134
Width: 1338
GlyphClass: 2
Flags: W
AnchorPoint: "Anchor-1" 0 0 basechar 0
AnchorPoint: "Anchor-0" 788 1439 basechar 0
LayerCount: 2
Fore
SplineSet
620 1625 m 0,0,1
 571 1625 571 1625 537 1643 c 128,-1,2
 503 1661 503 1661 486 1695.5 c 128,-1,3
 469 1730 469 1730 469 1779 c 0,4,5
 469 1856 469 1856 513.5 1901.5 c 128,-1,6
 558 1947 558 1947 634 1947 c 0,7,8
 681 1947 681 1947 714.5 1928.5 c 128,-1,9
 748 1910 748 1910 766 1875.5 c 128,-1,10
 784 1841 784 1841 784 1793 c 0,11,12
 784 1716 784 1716 739.5 1670.5 c 128,-1,13
 695 1625 695 1625 620 1625 c 0,0,1
1027 1623 m 0,14,15
 953 1623 953 1623 914 1663.5 c 128,-1,16
 875 1704 875 1704 875 1779 c 0,17,18
 875 1856 875 1856 919 1900.5 c 128,-1,19
 963 1945 963 1945 1040 1945 c 0,20,21
 1110 1945 1110 1945 1150 1905 c 128,-1,22
 1190 1865 1190 1865 1190 1793 c 0,23,24
 1190 1741 1190 1741 1170.5 1702.5 c 128,-1,25
 1151 1664 1151 1664 1114 1643.5 c 128,-1,26
 1077 1623 1077 1623 1027 1623 c 0,14,15
1248 0 m 1,27,-1
 888 0 l 1,28,-1
 877 205 l 1,29,-1
 867 294 l 1,30,-1
 614 299 l 1,31,-1
 395 292 l 1,32,-1
 366 226 l 1,33,-1
 299 0 l 1,34,-1
 -49 0 l 1,35,-1
 588 1440 l 1,36,-1
 1012 1440 l 1,37,-1
 1248 0 l 1,27,-1
833 560 m 1,38,-1
 763 1114 l 1,39,-1
 741 1114 l 1,40,-1
 509 562 l 1,41,-1
 667 558 l 1,42,-1
 833 560 l 1,38,-1
EndSplineSet
Position2: "'cpsp' Capital Spacing lookup 0 subtable" dx=16 dy=0 dh=33 dv=0
EndChar

StartChar: Aring
Encoding: 197 197 135
Width: 1338
GlyphClass: 2
Flags: W
AnchorPoint: "Anchor-1" 0 0 basechar 0
AnchorPoint: "Anchor-0" 788 1439 basechar 0
LayerCount: 2
Fore
SplineSet
824 1594 m 0,0,1
 720 1594 720 1594 663.5 1650 c 128,-1,2
 607 1706 607 1706 607 1813 c 0,3,4
 607 1922 607 1922 666.5 1981 c 128,-1,5
 726 2040 726 2040 837 2040 c 0,6,7
 946 2040 946 2040 1001 1984.5 c 128,-1,8
 1056 1929 1056 1929 1056 1826 c 0,9,10
 1056 1752 1056 1752 1029 1699.5 c 128,-1,11
 1002 1647 1002 1647 949.5 1620.5 c 128,-1,12
 897 1594 897 1594 824 1594 c 0,0,1
831 1896 m 0,13,14
 801 1896 801 1896 782 1887.5 c 128,-1,15
 763 1879 763 1879 754.5 1862 c 128,-1,16
 746 1845 746 1845 746 1819 c 0,17,18
 746 1775 746 1775 767.5 1754.5 c 128,-1,19
 789 1734 789 1734 833 1734 c 256,20,21
 877 1734 877 1734 897.5 1752.5 c 128,-1,22
 918 1771 918 1771 918 1813 c 0,23,24
 918 1896 918 1896 831 1896 c 0,13,14
1248 0 m 1,25,-1
 888 0 l 1,26,-1
 877 205 l 1,27,-1
 867 294 l 1,28,-1
 614 299 l 1,29,-1
 395 292 l 1,30,-1
 366 226 l 1,31,-1
 299 0 l 1,32,-1
 -49 0 l 1,33,-1
 588 1440 l 1,34,-1
 1012 1440 l 1,35,-1
 1248 0 l 1,25,-1
833 560 m 1,36,-1
 763 1114 l 1,37,-1
 741 1114 l 1,38,-1
 509 562 l 1,39,-1
 667 558 l 1,40,-1
 833 560 l 1,36,-1
EndSplineSet
Position2: "'cpsp' Capital Spacing lookup 0 subtable" dx=16 dy=0 dh=33 dv=0
EndChar

StartChar: AE
Encoding: 198 198 136
Width: 1817
GlyphClass: 2
Flags: W
AnchorPoint: "Anchor-1" 0 0 basechar 0
AnchorPoint: "Anchor-0" 1214 1439 basechar 0
LayerCount: 2
Fore
SplineSet
1775 262 m 1,0,-1
 1719 0 l 1,1,-1
 826 0 l 1,2,-1
 841 205 l 1,3,-1
 846 456 l 1,4,-1
 400 332 l 1,5,-1
 339 226 l 1,6,-1
 245 0 l 1,7,-1
 -105 0 l 1,8,-1
 722 1440 l 1,9,-1
 1755 1440 l 1,10,-1
 1772 1413 l 1,11,-1
 1717 1152 l 1,12,-1
 1382 1163 l 1,13,-1
 1201 1163 l 1,14,-1
 1192 815 l 1,15,-1
 1612 929 l 1,16,-1
 1634 909 l 1,17,-1
 1634 661 l 1,18,-1
 1185 547 l 1,19,-1
 1178 275 l 1,20,-1
 1395 275 l 1,21,-1
 1757 288 l 1,22,-1
 1775 262 l 1,0,-1
850 722 m 1,23,-1
 857 1114 l 1,24,-1
 835 1114 l 1,25,-1
 573 645 l 1,26,-1
 850 722 l 1,23,-1
EndSplineSet
Position2: "'cpsp' Capital Spacing lookup 0 subtable" dx=16 dy=0 dh=33 dv=0
EndChar

StartChar: Ccedilla
Encoding: 199 199 137
Width: 1140
GlyphClass: 2
Flags: W
AnchorPoint: "Anchor-1" 709 0 basechar 0
AnchorPoint: "Anchor-0" 760 1439 basechar 0
LayerCount: 2
Fore
SplineSet
855 1460 m 0,0,1
 1066 1460 1066 1460 1227 1384 c 1,2,-1
 1129 1094 l 1,3,-1
 1103 1080 l 1,4,5
 1045 1122 1045 1122 971.5 1146 c 128,-1,6
 898 1170 898 1170 822 1170 c 0,7,8
 633 1170 633 1170 542 1038 c 128,-1,9
 451 906 451 906 451 639 c 0,10,11
 451 275 451 275 728 275 c 0,12,13
 801 275 801 275 885.5 296 c 128,-1,14
 970 317 970 317 1040 353 c 1,15,-1
 1069 335 l 1,16,-1
 1005 43 l 1,17,18
 868 -13 868 -13 741 -20 c 1,19,-1
 724 -100 l 1,20,-1
 799 -143 l 2,21,22
 834 -163 834 -163 855 -184.5 c 128,-1,23
 876 -206 876 -206 884.5 -228.5 c 128,-1,24
 893 -251 893 -251 893 -279 c 0,25,26
 893 -329 893 -329 866 -368.5 c 128,-1,27
 839 -408 839 -408 788 -430.5 c 128,-1,28
 737 -453 737 -453 669 -453 c 0,29,30
 567 -453 567 -453 480 -392 c 1,31,-1
 502 -252 l 1,32,-1
 518 -247 l 1,33,34
 539 -268 539 -268 561.5 -282.5 c 128,-1,35
 584 -297 584 -297 606.5 -305 c 128,-1,36
 629 -313 629 -313 647 -313 c 0,37,38
 697 -313 697 -313 697 -270 c 0,39,40
 697 -249 697 -249 663 -230 c 2,41,-1
 552 -168 l 1,42,-1
 585 -17 l 1,43,44
 335 8 335 8 203.5 162 c 128,-1,45
 72 316 72 316 72 580 c 0,46,47
 72 854 72 854 162.5 1051.5 c 128,-1,48
 253 1249 253 1249 429.5 1354.5 c 128,-1,49
 606 1460 606 1460 855 1460 c 0,0,1
EndSplineSet
Position2: "'cpsp' Capital Spacing lookup 0 subtable" dx=16 dy=0 dh=33 dv=0
EndChar

StartChar: Egrave
Encoding: 200 200 138
Width: 1146
GlyphClass: 2
Flags: W
AnchorPoint: "Anchor-1" 645 0 basechar 0
AnchorPoint: "Anchor-0" 730 1439 basechar 0
LayerCount: 2
Fore
SplineSet
1018 1608 m 1,0,-1
 986 1598 l 1,1,2
 728 1679 728 1679 489 1766 c 1,3,-1
 477 1797 l 1,4,-1
 565 2002 l 1,5,-1
 596 2011 l 1,6,7
 790 1895 790 1895 1074 1753 c 1,8,-1
 1018 1608 l 1,0,-1
592 1161 m 1,9,-1
 549 867 l 1,10,-1
 782 864 l 1,11,-1
 1012 871 l 1,12,-1
 1027 846 l 1,13,-1
 973 585 l 1,14,-1
 724 592 l 1,15,-1
 509 590 l 1,16,-1
 492 460 l 1,17,-1
 473 277 l 1,18,-1
 710 275 l 1,19,-1
 1063 288 l 1,20,-1
 1078 262 l 1,21,-1
 1025 0 l 1,22,-1
 94 0 l 1,23,-1
 166 426 l 1,24,-1
 272 1440 l 1,25,-1
 1216 1440 l 1,26,-1
 1232 1413 l 1,27,-1
 1176 1152 l 1,28,-1
 835 1163 l 1,29,-1
 592 1161 l 1,9,-1
EndSplineSet
Position2: "'cpsp' Capital Spacing lookup 0 subtable" dx=16 dy=0 dh=33 dv=0
EndChar

StartChar: Eacute
Encoding: 201 201 139
Width: 1146
GlyphClass: 2
Flags: W
AnchorPoint: "Anchor-1" 645 0 basechar 0
AnchorPoint: "Anchor-0" 730 1439 basechar 0
LayerCount: 2
Fore
SplineSet
543 1606 m 1,0,-1
 489 1748 l 1,1,2
 775 1895 775 1895 965 2009 c 1,3,-1
 995 2000 l 1,4,-1
 1085 1795 l 1,5,-1
 1074 1764 l 1,6,7
 859 1686 859 1686 576 1596 c 1,8,-1
 543 1606 l 1,0,-1
592 1161 m 1,9,-1
 549 867 l 1,10,-1
 782 864 l 1,11,-1
 1012 871 l 1,12,-1
 1027 846 l 1,13,-1
 973 585 l 1,14,-1
 724 592 l 1,15,-1
 509 590 l 1,16,-1
 492 460 l 1,17,-1
 473 277 l 1,18,-1
 710 275 l 1,19,-1
 1063 288 l 1,20,-1
 1078 262 l 1,21,-1
 1025 0 l 1,22,-1
 94 0 l 1,23,-1
 166 426 l 1,24,-1
 272 1440 l 1,25,-1
 1216 1440 l 1,26,-1
 1232 1413 l 1,27,-1
 1176 1152 l 1,28,-1
 835 1163 l 1,29,-1
 592 1161 l 1,9,-1
EndSplineSet
Position2: "'cpsp' Capital Spacing lookup 0 subtable" dx=16 dy=0 dh=33 dv=0
EndChar

StartChar: Ecircumflex
Encoding: 202 202 140
Width: 1146
GlyphClass: 2
Flags: W
AnchorPoint: "Anchor-1" 645 0 basechar 0
AnchorPoint: "Anchor-0" 730 1439 basechar 0
LayerCount: 2
Fore
SplineSet
475 1619 m 1,0,-1
 428 1755 l 1,1,2
 615 1879 615 1879 759 1998 c 1,3,-1
 826 1998 l 1,4,5
 939 1891 939 1891 1123 1755 c 1,6,-1
 1044 1619 l 1,7,-1
 1012 1619 l 1,8,-1
 782 1757 l 1,9,10
 735 1732 735 1732 642 1685.5 c 128,-1,11
 549 1639 549 1639 509 1619 c 1,12,-1
 475 1619 l 1,0,-1
592 1161 m 1,13,-1
 549 867 l 1,14,-1
 782 864 l 1,15,-1
 1012 871 l 1,16,-1
 1027 846 l 1,17,-1
 973 585 l 1,18,-1
 724 592 l 1,19,-1
 509 590 l 1,20,-1
 492 460 l 1,21,-1
 473 277 l 1,22,-1
 710 275 l 1,23,-1
 1063 288 l 1,24,-1
 1078 262 l 1,25,-1
 1025 0 l 1,26,-1
 94 0 l 1,27,-1
 166 426 l 1,28,-1
 272 1440 l 1,29,-1
 1216 1440 l 1,30,-1
 1232 1413 l 1,31,-1
 1176 1152 l 1,32,-1
 835 1163 l 1,33,-1
 592 1161 l 1,13,-1
EndSplineSet
Position2: "'cpsp' Capital Spacing lookup 0 subtable" dx=16 dy=0 dh=33 dv=0
EndChar

StartChar: Edieresis
Encoding: 203 203 141
Width: 1146
GlyphClass: 2
Flags: W
AnchorPoint: "Anchor-1" 645 0 basechar 0
AnchorPoint: "Anchor-0" 730 1439 basechar 0
LayerCount: 2
Fore
SplineSet
565 1625 m 0,0,1
 491 1625 491 1625 452 1665 c 128,-1,2
 413 1705 413 1705 413 1779 c 0,3,4
 413 1856 413 1856 457 1901.5 c 128,-1,5
 501 1947 501 1947 578 1947 c 0,6,7
 648 1947 648 1947 688 1906 c 128,-1,8
 728 1865 728 1865 728 1793 c 0,9,10
 728 1716 728 1716 684 1670.5 c 128,-1,11
 640 1625 640 1625 565 1625 c 0,0,1
971 1623 m 0,12,13
 898 1623 898 1623 859 1663.5 c 128,-1,14
 820 1704 820 1704 820 1779 c 0,15,16
 820 1856 820 1856 864 1900.5 c 128,-1,17
 908 1945 908 1945 984 1945 c 0,18,19
 1008 1945 1008 1945 1028 1940 c 128,-1,20
 1048 1935 1048 1935 1064.5 1926.5 c 128,-1,21
 1081 1918 1081 1918 1094 1905 c 128,-1,22
 1107 1892 1107 1892 1115.5 1875 c 128,-1,23
 1124 1858 1124 1858 1129 1837.5 c 128,-1,24
 1134 1817 1134 1817 1134 1793 c 0,25,26
 1134 1741 1134 1741 1114 1702.5 c 128,-1,27
 1094 1664 1094 1664 1057.5 1643.5 c 128,-1,28
 1021 1623 1021 1623 971 1623 c 0,12,13
592 1161 m 1,29,-1
 549 867 l 1,30,-1
 782 864 l 1,31,-1
 1012 871 l 1,32,-1
 1027 846 l 1,33,-1
 973 585 l 1,34,-1
 724 592 l 1,35,-1
 509 590 l 1,36,-1
 492 460 l 1,37,-1
 473 277 l 1,38,-1
 710 275 l 1,39,-1
 1063 288 l 1,40,-1
 1078 262 l 1,41,-1
 1025 0 l 1,42,-1
 94 0 l 1,43,-1
 166 426 l 1,44,-1
 272 1440 l 1,45,-1
 1216 1440 l 1,46,-1
 1232 1413 l 1,47,-1
 1176 1152 l 1,48,-1
 835 1163 l 1,49,-1
 592 1161 l 1,29,-1
EndSplineSet
Position2: "'cpsp' Capital Spacing lookup 0 subtable" dx=16 dy=0 dh=33 dv=0
EndChar

StartChar: Igrave
Encoding: 204 204 142
Width: 677
GlyphClass: 2
Flags: W
AnchorPoint: "Anchor-1" 0 0 basechar 0
AnchorPoint: "Anchor-0" 449 1439 basechar 0
LayerCount: 2
Fore
SplineSet
281 2002 m 1,0,-1
 313 2011 l 1,1,2
 506 1895 506 1895 790 1753 c 1,3,-1
 735 1608 l 1,4,-1
 703 1598 l 1,5,6
 437 1681 437 1681 205 1766 c 1,7,-1
 194 1797 l 1,8,-1
 281 2002 l 1,0,-1
492 460 m 1,9,-1
 449 0 l 1,10,-1
 94 0 l 1,11,-1
 166 426 l 1,12,-1
 272 1440 l 1,13,-1
 632 1440 l 1,14,-1
 492 460 l 1,9,-1
EndSplineSet
Position2: "'cpsp' Capital Spacing lookup 0 subtable" dx=16 dy=0 dh=33 dv=0
EndChar

StartChar: Iacute
Encoding: 205 205 143
Width: 677
GlyphClass: 2
Flags: W
AnchorPoint: "Anchor-1" 0 0 basechar 0
AnchorPoint: "Anchor-0" 449 1439 basechar 0
LayerCount: 2
Fore
SplineSet
714 2000 m 1,0,-1
 803 1795 l 1,1,-1
 792 1764 l 1,2,3
 578 1686 578 1686 294 1596 c 1,4,-1
 262 1606 l 1,5,-1
 207 1748 l 1,6,7
 500 1899 500 1899 683 2009 c 1,8,-1
 714 2000 l 1,0,-1
492 460 m 1,9,-1
 449 0 l 1,10,-1
 94 0 l 1,11,-1
 166 426 l 1,12,-1
 272 1440 l 1,13,-1
 632 1440 l 1,14,-1
 492 460 l 1,9,-1
EndSplineSet
Position2: "'cpsp' Capital Spacing lookup 0 subtable" dx=16 dy=0 dh=33 dv=0
EndChar

StartChar: Icircumflex
Encoding: 206 206 144
Width: 677
GlyphClass: 2
Flags: W
AnchorPoint: "Anchor-1" 0 0 basechar 0
AnchorPoint: "Anchor-0" 449 1439 basechar 0
LayerCount: 2
Fore
SplineSet
192 1619 m 1,0,-1
 145 1755 l 1,1,2
 332 1879 332 1879 475 1998 c 1,3,-1
 543 1998 l 1,4,5
 656 1891 656 1891 839 1755 c 1,6,-1
 761 1619 l 1,7,-1
 728 1619 l 1,8,-1
 498 1757 l 1,9,10
 451 1732 451 1732 358 1685.5 c 128,-1,11
 265 1639 265 1639 226 1619 c 1,12,-1
 192 1619 l 1,0,-1
492 460 m 1,13,-1
 449 0 l 1,14,-1
 94 0 l 1,15,-1
 166 426 l 1,16,-1
 272 1440 l 1,17,-1
 632 1440 l 1,18,-1
 492 460 l 1,13,-1
EndSplineSet
Position2: "'cpsp' Capital Spacing lookup 0 subtable" dx=16 dy=0 dh=33 dv=0
EndChar

StartChar: Idieresis
Encoding: 207 207 145
Width: 677
GlyphClass: 2
Flags: W
AnchorPoint: "Anchor-1" 0 0 basechar 0
AnchorPoint: "Anchor-0" 449 1439 basechar 0
LayerCount: 2
Fore
SplineSet
315 1945 m 0,0,1
 385 1945 385 1945 424.5 1904 c 128,-1,2
 464 1863 464 1863 464 1790 c 0,3,4
 464 1713 464 1713 420 1668 c 128,-1,5
 376 1623 376 1623 301 1623 c 0,6,7
 228 1623 228 1623 188.5 1663 c 128,-1,8
 149 1703 149 1703 149 1777 c 0,9,10
 149 1854 149 1854 193.5 1899.5 c 128,-1,11
 238 1945 238 1945 315 1945 c 0,0,1
681 1945 m 0,12,13
 752 1945 752 1945 791.5 1904 c 128,-1,14
 831 1863 831 1863 831 1790 c 0,15,16
 831 1713 831 1713 786.5 1668 c 128,-1,17
 742 1623 742 1623 667 1623 c 0,18,19
 594 1623 594 1623 555 1663 c 128,-1,20
 516 1703 516 1703 516 1777 c 0,21,22
 516 1854 516 1854 560.5 1899.5 c 128,-1,23
 605 1945 605 1945 681 1945 c 0,12,13
492 460 m 1,24,-1
 449 0 l 1,25,-1
 94 0 l 1,26,-1
 166 426 l 1,27,-1
 272 1440 l 1,28,-1
 632 1440 l 1,29,-1
 492 460 l 1,24,-1
EndSplineSet
Ligature2: "'liga' Standard Ligatures lookup 30 subtable" dieresis I
Position2: "'cpsp' Capital Spacing lookup 0 subtable" dx=16 dy=0 dh=33 dv=0
EndChar

StartChar: Eth
Encoding: 208 208 146
Width: 1517
GlyphClass: 2
Flags: W
AnchorPoint: "Anchor-1" 0 0 basechar 0
AnchorPoint: "Anchor-0" 830 1439 basechar 0
LayerCount: 2
Fore
SplineSet
337 1440 m 1,0,-1
 916 1449 l 1,1,2
 1193 1449 1193 1449 1346.5 1301.5 c 128,-1,3
 1500 1154 1500 1154 1500 884 c 0,4,5
 1500 604 1500 604 1407.5 402.5 c 128,-1,6
 1315 201 1315 201 1131 92 c 128,-1,7
 947 -17 947 -17 686 -17 c 0,8,9
 465 -17 465 -17 158 0 c 1,10,-1
 230 426 l 1,11,-1
 247 592 l 1,12,-1
 64 592 l 1,13,-1
 51 616 l 1,14,-1
 81 826 l 1,15,-1
 272 826 l 1,16,-1
 335 1440 l 1,17,-1
 337 1440 l 1,0,-1
763 252 m 0,18,19
 1123 252 1123 252 1123 831 c 0,20,21
 1123 1008 1123 1008 1061.5 1089 c 128,-1,22
 1000 1170 1000 1170 869 1170 c 0,23,24
 778 1170 778 1170 654 1159 c 1,25,-1
 607 826 l 1,26,-1
 837 826 l 1,27,-1
 850 801 l 1,28,-1
 820 592 l 1,29,-1
 571 592 l 1,30,-1
 554 460 l 1,31,-1
 538 270 l 1,32,33
 672 252 672 252 763 252 c 0,18,19
EndSplineSet
Position2: "'cpsp' Capital Spacing lookup 0 subtable" dx=16 dy=0 dh=33 dv=0
EndChar

StartChar: Ntilde
Encoding: 209 209 147
Width: 1542
GlyphClass: 2
Flags: W
AnchorPoint: "Anchor-1" 709 0 basechar 0
AnchorPoint: "Anchor-0" 886 1439 basechar 0
LayerCount: 2
Fore
SplineSet
1337 1896 m 1,0,-1
 1337 1866 l 1,1,-1
 1172 1647 l 1,2,-1
 1141 1636 l 1,3,4
 1088 1643 1088 1643 957 1679 c 128,-1,5
 826 1715 826 1715 797 1715 c 0,6,7
 785 1715 785 1715 772 1709.5 c 128,-1,8
 759 1704 759 1704 749.5 1697.5 c 128,-1,9
 740 1691 740 1691 725.5 1676 c 128,-1,10
 711 1661 711 1661 703.5 1652.5 c 128,-1,11
 696 1644 696 1644 678.5 1623 c 128,-1,12
 661 1602 661 1602 654 1594 c 1,13,-1
 622 1594 l 1,14,-1
 520 1694 l 1,15,-1
 520 1723 l 1,16,-1
 686 1940 l 1,17,-1
 716 1951 l 1,18,19
 771 1944 771 1944 901.5 1909.5 c 128,-1,20
 1032 1875 1032 1875 1061 1875 c 0,21,22
 1071 1875 1071 1875 1081 1878 c 128,-1,23
 1091 1881 1091 1881 1102 1888.5 c 128,-1,24
 1113 1896 1113 1896 1121 1902.5 c 128,-1,25
 1129 1909 1129 1909 1142 1922.5 c 128,-1,26
 1155 1936 1155 1936 1161.5 1944 c 128,-1,27
 1168 1952 1168 1952 1183.5 1970 c 128,-1,28
 1199 1988 1199 1988 1206 1996 c 1,29,-1
 1235 1996 l 1,30,-1
 1337 1896 l 1,0,-1
1357 453 m 1,31,-1
 1315 0 l 1,32,-1
 933 0 l 1,33,-1
 541 901 l 1,34,-1
 518 901 l 1,35,-1
 467 505 l 1,36,-1
 417 0 l 1,37,-1
 94 0 l 1,38,-1
 166 424 l 1,39,-1
 272 1440 l 1,40,-1
 654 1440 l 1,41,-1
 1050 538 l 1,42,-1
 1071 538 l 1,43,-1
 1172 1427 l 1,44,-1
 1500 1446 l 1,45,-1
 1357 453 l 1,31,-1
EndSplineSet
Position2: "'cpsp' Capital Spacing lookup 0 subtable" dx=16 dy=0 dh=33 dv=0
EndChar

StartChar: Ograve
Encoding: 210 210 148
Width: 1432
GlyphClass: 2
Flags: W
AnchorPoint: "Anchor-1" 0 0 basechar 0
AnchorPoint: "Anchor-0" 828 1439 basechar 0
LayerCount: 2
Fore
SplineSet
663 2002 m 1,0,-1
 694 2011 l 1,1,2
 888 1895 888 1895 1172 1753 c 1,3,-1
 1116 1608 l 1,4,-1
 1085 1598 l 1,5,6
 826 1679 826 1679 588 1766 c 1,7,-1
 576 1797 l 1,8,-1
 663 2002 l 1,0,-1
833 1462 m 0,9,10
 1110 1462 1110 1462 1261.5 1307 c 128,-1,11
 1413 1152 1413 1152 1413 848 c 0,12,13
 1413 654 1413 654 1362.5 494 c 128,-1,14
 1312 334 1312 334 1217 218.5 c 128,-1,15
 1122 103 1122 103 977 39 c 128,-1,16
 832 -25 832 -25 650 -25 c 0,17,18
 375 -25 375 -25 223.5 133.5 c 128,-1,19
 72 292 72 292 72 598 c 0,20,21
 72 792 72 792 122 951 c 128,-1,22
 172 1110 172 1110 267.5 1223.5 c 128,-1,23
 363 1337 363 1337 507 1399.5 c 128,-1,24
 651 1462 651 1462 833 1462 c 0,9,10
792 1176 m 0,25,26
 723 1176 723 1176 669.5 1158.5 c 128,-1,27
 616 1141 616 1141 572 1099.5 c 128,-1,28
 528 1058 528 1058 499 992 c 128,-1,29
 470 926 470 926 454.5 828 c 128,-1,30
 439 730 439 730 439 601 c 0,31,32
 439 408 439 408 494.5 325.5 c 128,-1,33
 550 243 550 243 686 243 c 0,34,35
 753 243 753 243 806.5 261 c 128,-1,36
 860 279 860 279 904 321 c 128,-1,37
 948 363 948 363 977 429.5 c 128,-1,38
 1006 496 1006 496 1022 595 c 128,-1,39
 1038 694 1038 694 1038 824 c 0,40,41
 1038 1015 1038 1015 983 1095.5 c 128,-1,42
 928 1176 928 1176 792 1176 c 0,25,26
EndSplineSet
Position2: "'cpsp' Capital Spacing lookup 0 subtable" dx=16 dy=0 dh=33 dv=0
EndChar

StartChar: Oacute
Encoding: 211 211 149
Width: 1432
GlyphClass: 2
Flags: W
AnchorPoint: "Anchor-1" 0 0 basechar 0
AnchorPoint: "Anchor-0" 828 1439 basechar 0
LayerCount: 2
Fore
SplineSet
1097 2000 m 1,0,-1
 1185 1795 l 1,1,-1
 1174 1764 l 1,2,3
 951 1683 951 1683 677 1596 c 1,4,-1
 643 1606 l 1,5,-1
 590 1748 l 1,6,7
 875 1895 875 1895 1065 2009 c 1,8,-1
 1097 2000 l 1,0,-1
833 1462 m 0,9,10
 1110 1462 1110 1462 1261.5 1307 c 128,-1,11
 1413 1152 1413 1152 1413 848 c 0,12,13
 1413 654 1413 654 1362.5 494 c 128,-1,14
 1312 334 1312 334 1217 218.5 c 128,-1,15
 1122 103 1122 103 977 39 c 128,-1,16
 832 -25 832 -25 650 -25 c 0,17,18
 375 -25 375 -25 223.5 133.5 c 128,-1,19
 72 292 72 292 72 598 c 0,20,21
 72 792 72 792 122 951 c 128,-1,22
 172 1110 172 1110 267.5 1223.5 c 128,-1,23
 363 1337 363 1337 507 1399.5 c 128,-1,24
 651 1462 651 1462 833 1462 c 0,9,10
792 1176 m 0,25,26
 723 1176 723 1176 669.5 1158.5 c 128,-1,27
 616 1141 616 1141 572 1099.5 c 128,-1,28
 528 1058 528 1058 499 992 c 128,-1,29
 470 926 470 926 454.5 828 c 128,-1,30
 439 730 439 730 439 601 c 0,31,32
 439 408 439 408 494.5 325.5 c 128,-1,33
 550 243 550 243 686 243 c 0,34,35
 753 243 753 243 806.5 261 c 128,-1,36
 860 279 860 279 904 321 c 128,-1,37
 948 363 948 363 977 429.5 c 128,-1,38
 1006 496 1006 496 1022 595 c 128,-1,39
 1038 694 1038 694 1038 824 c 0,40,41
 1038 1015 1038 1015 983 1095.5 c 128,-1,42
 928 1176 928 1176 792 1176 c 0,25,26
EndSplineSet
Position2: "'cpsp' Capital Spacing lookup 0 subtable" dx=16 dy=0 dh=33 dv=0
EndChar

StartChar: Ocircumflex
Encoding: 212 212 150
Width: 1432
GlyphClass: 2
Flags: W
AnchorPoint: "Anchor-1" 0 0 basechar 0
AnchorPoint: "Anchor-0" 828 1439 basechar 0
LayerCount: 2
Fore
SplineSet
573 1619 m 1,0,-1
 526 1755 l 1,1,2
 713 1879 713 1879 857 1998 c 1,3,-1
 924 1998 l 1,4,5
 1037 1891 1037 1891 1221 1755 c 1,6,-1
 1143 1619 l 1,7,-1
 1110 1619 l 1,8,-1
 880 1757 l 1,9,10
 833 1732 833 1732 740 1685.5 c 128,-1,11
 647 1639 647 1639 607 1619 c 1,12,-1
 573 1619 l 1,0,-1
833 1462 m 0,13,14
 1110 1462 1110 1462 1261.5 1307 c 128,-1,15
 1413 1152 1413 1152 1413 848 c 0,16,17
 1413 654 1413 654 1362.5 494 c 128,-1,18
 1312 334 1312 334 1217 218.5 c 128,-1,19
 1122 103 1122 103 977 39 c 128,-1,20
 832 -25 832 -25 650 -25 c 0,21,22
 375 -25 375 -25 223.5 133.5 c 128,-1,23
 72 292 72 292 72 598 c 0,24,25
 72 792 72 792 122 951 c 128,-1,26
 172 1110 172 1110 267.5 1223.5 c 128,-1,27
 363 1337 363 1337 507 1399.5 c 128,-1,28
 651 1462 651 1462 833 1462 c 0,13,14
792 1176 m 0,29,30
 723 1176 723 1176 669.5 1158.5 c 128,-1,31
 616 1141 616 1141 572 1099.5 c 128,-1,32
 528 1058 528 1058 499 992 c 128,-1,33
 470 926 470 926 454.5 828 c 128,-1,34
 439 730 439 730 439 601 c 0,35,36
 439 408 439 408 494.5 325.5 c 128,-1,37
 550 243 550 243 686 243 c 0,38,39
 753 243 753 243 806.5 261 c 128,-1,40
 860 279 860 279 904 321 c 128,-1,41
 948 363 948 363 977 429.5 c 128,-1,42
 1006 496 1006 496 1022 595 c 128,-1,43
 1038 694 1038 694 1038 824 c 0,44,45
 1038 1015 1038 1015 983 1095.5 c 128,-1,46
 928 1176 928 1176 792 1176 c 0,29,30
EndSplineSet
Position2: "'cpsp' Capital Spacing lookup 0 subtable" dx=16 dy=0 dh=33 dv=0
EndChar

StartChar: Otilde
Encoding: 213 213 151
Width: 1432
GlyphClass: 2
Flags: W
AnchorPoint: "Anchor-1" 0 0 basechar 0
AnchorPoint: "Anchor-0" 828 1439 basechar 0
LayerCount: 2
Fore
SplineSet
1280 1896 m 1,0,-1
 1280 1866 l 1,1,-1
 1114 1647 l 1,2,-1
 1082 1636 l 1,3,4
 1029 1643 1029 1643 898.5 1679 c 128,-1,5
 768 1715 768 1715 739 1715 c 0,6,7
 727 1715 727 1715 714.5 1709.5 c 128,-1,8
 702 1704 702 1704 692.5 1697.5 c 128,-1,9
 683 1691 683 1691 668 1676 c 128,-1,10
 653 1661 653 1661 645.5 1652.5 c 128,-1,11
 638 1644 638 1644 620.5 1623 c 128,-1,12
 603 1602 603 1602 596 1594 c 1,13,-1
 565 1594 l 1,14,-1
 462 1694 l 1,15,-1
 462 1723 l 1,16,-1
 627 1940 l 1,17,-1
 658 1951 l 1,18,19
 713 1944 713 1944 843.5 1909.5 c 128,-1,20
 974 1875 974 1875 1003 1875 c 0,21,22
 1013 1875 1013 1875 1023 1878 c 128,-1,23
 1033 1881 1033 1881 1044 1888.5 c 128,-1,24
 1055 1896 1055 1896 1063 1902.5 c 128,-1,25
 1071 1909 1071 1909 1084 1922.5 c 128,-1,26
 1097 1936 1097 1936 1104 1944 c 128,-1,27
 1111 1952 1111 1952 1126 1970 c 128,-1,28
 1141 1988 1141 1988 1148 1996 c 1,29,-1
 1176 1996 l 1,30,-1
 1280 1896 l 1,0,-1
833 1462 m 0,31,32
 1110 1462 1110 1462 1261.5 1307 c 128,-1,33
 1413 1152 1413 1152 1413 848 c 0,34,35
 1413 654 1413 654 1362.5 494 c 128,-1,36
 1312 334 1312 334 1217 218.5 c 128,-1,37
 1122 103 1122 103 977 39 c 128,-1,38
 832 -25 832 -25 650 -25 c 0,39,40
 375 -25 375 -25 223.5 133.5 c 128,-1,41
 72 292 72 292 72 598 c 0,42,43
 72 792 72 792 122 951 c 128,-1,44
 172 1110 172 1110 267.5 1223.5 c 128,-1,45
 363 1337 363 1337 507 1399.5 c 128,-1,46
 651 1462 651 1462 833 1462 c 0,31,32
792 1176 m 0,47,48
 723 1176 723 1176 669.5 1158.5 c 128,-1,49
 616 1141 616 1141 572 1099.5 c 128,-1,50
 528 1058 528 1058 499 992 c 128,-1,51
 470 926 470 926 454.5 828 c 128,-1,52
 439 730 439 730 439 601 c 0,53,54
 439 408 439 408 494.5 325.5 c 128,-1,55
 550 243 550 243 686 243 c 0,56,57
 753 243 753 243 806.5 261 c 128,-1,58
 860 279 860 279 904 321 c 128,-1,59
 948 363 948 363 977 429.5 c 128,-1,60
 1006 496 1006 496 1022 595 c 128,-1,61
 1038 694 1038 694 1038 824 c 0,62,63
 1038 1015 1038 1015 983 1095.5 c 128,-1,64
 928 1176 928 1176 792 1176 c 0,47,48
EndSplineSet
Position2: "'cpsp' Capital Spacing lookup 0 subtable" dx=16 dy=0 dh=33 dv=0
EndChar

StartChar: Odieresis
Encoding: 214 214 152
Width: 1432
GlyphClass: 2
Flags: W
AnchorPoint: "Anchor-1" 0 0 basechar 0
AnchorPoint: "Anchor-0" 828 1439 basechar 0
LayerCount: 2
Fore
SplineSet
677 1947 m 0,0,1
 723 1947 723 1947 757 1928.5 c 128,-1,2
 791 1910 791 1910 808.5 1875.5 c 128,-1,3
 826 1841 826 1841 826 1793 c 0,4,5
 826 1716 826 1716 782 1670.5 c 128,-1,6
 738 1625 738 1625 663 1625 c 0,7,8
 614 1625 614 1625 580 1643 c 128,-1,9
 546 1661 546 1661 528.5 1695.5 c 128,-1,10
 511 1730 511 1730 511 1779 c 0,11,12
 511 1856 511 1856 555.5 1901.5 c 128,-1,13
 600 1947 600 1947 677 1947 c 0,0,1
1082 1945 m 0,14,15
 1106 1945 1106 1945 1126 1940 c 128,-1,16
 1146 1935 1146 1935 1162.5 1926.5 c 128,-1,17
 1179 1918 1179 1918 1192 1905 c 128,-1,18
 1205 1892 1205 1892 1214 1875 c 128,-1,19
 1223 1858 1223 1858 1227.5 1837.5 c 128,-1,20
 1232 1817 1232 1817 1232 1793 c 0,21,22
 1232 1715 1232 1715 1188 1669 c 128,-1,23
 1144 1623 1144 1623 1069 1623 c 0,24,25
 996 1623 996 1623 957 1663.5 c 128,-1,26
 918 1704 918 1704 918 1779 c 0,27,28
 918 1856 918 1856 962 1900.5 c 128,-1,29
 1006 1945 1006 1945 1082 1945 c 0,14,15
833 1462 m 0,30,31
 1110 1462 1110 1462 1261.5 1307 c 128,-1,32
 1413 1152 1413 1152 1413 848 c 0,33,34
 1413 654 1413 654 1362.5 494 c 128,-1,35
 1312 334 1312 334 1217 218.5 c 128,-1,36
 1122 103 1122 103 977 39 c 128,-1,37
 832 -25 832 -25 650 -25 c 0,38,39
 375 -25 375 -25 223.5 133.5 c 128,-1,40
 72 292 72 292 72 598 c 0,41,42
 72 792 72 792 122 951 c 128,-1,43
 172 1110 172 1110 267.5 1223.5 c 128,-1,44
 363 1337 363 1337 507 1399.5 c 128,-1,45
 651 1462 651 1462 833 1462 c 0,30,31
792 1176 m 0,46,47
 723 1176 723 1176 669.5 1158.5 c 128,-1,48
 616 1141 616 1141 572 1099.5 c 128,-1,49
 528 1058 528 1058 499 992 c 128,-1,50
 470 926 470 926 454.5 828 c 128,-1,51
 439 730 439 730 439 601 c 0,52,53
 439 408 439 408 494.5 325.5 c 128,-1,54
 550 243 550 243 686 243 c 0,55,56
 753 243 753 243 806.5 261 c 128,-1,57
 860 279 860 279 904 321 c 128,-1,58
 948 363 948 363 977 429.5 c 128,-1,59
 1006 496 1006 496 1022 595 c 128,-1,60
 1038 694 1038 694 1038 824 c 0,61,62
 1038 1015 1038 1015 983 1095.5 c 128,-1,63
 928 1176 928 1176 792 1176 c 0,46,47
EndSplineSet
Ligature2: "'liga' Standard Ligatures lookup 30 subtable" dieresis O
Position2: "'cpsp' Capital Spacing lookup 0 subtable" dx=16 dy=0 dh=33 dv=0
EndChar

StartChar: multiply
Encoding: 215 215 153
Width: 1073
GlyphClass: 2
Flags: W
LayerCount: 2
Fore
SplineSet
991 859 m 1,0,-1
 989 826 l 1,1,-1
 710 578 l 1,2,-1
 926 328 l 1,3,-1
 922 294 l 1,4,-1
 746 158 l 1,5,-1
 524 411 l 1,6,-1
 239 158 l 1,7,-1
 96 294 l 1,8,-1
 100 326 l 1,9,-1
 382 578 l 1,10,-1
 164 826 l 1,11,-1
 166 859 l 1,12,-1
 341 995 l 1,13,-1
 565 741 l 1,14,-1
 848 995 l 1,15,-1
 991 859 l 1,0,-1
EndSplineSet
EndChar

StartChar: Oslash
Encoding: 216 216 154
Width: 1432
GlyphClass: 2
Flags: W
AnchorPoint: "Anchor-1" 0 0 basechar 0
AnchorPoint: "Anchor-0" 798 1444 basechar 0
LayerCount: 2
Fore
SplineSet
1366 1540 m 1,0,-1
 1239 1329 l 1,1,2
 1413 1169 1413 1169 1413 848 c 0,3,4
 1413 654 1413 654 1362.5 494 c 128,-1,5
 1312 334 1312 334 1217 218.5 c 128,-1,6
 1122 103 1122 103 977 39 c 128,-1,7
 832 -25 832 -25 650 -25 c 0,8,9
 550 -25 550 -25 451 0 c 1,10,-1
 286 -277 l 1,11,-1
 107 -194 l 1,12,-1
 96 -164 l 1,13,-1
 254 102 l 1,14,15
 72 263 72 263 72 598 c 0,16,17
 72 792 72 792 122 951 c 128,-1,18
 172 1110 172 1110 267.5 1223.5 c 128,-1,19
 363 1337 363 1337 507 1399.5 c 128,-1,20
 651 1462 651 1462 833 1462 c 0,21,22
 948 1462 948 1462 1044 1436 c 1,23,-1
 1176 1657 l 1,24,-1
 1351 1576 l 1,25,-1
 1366 1540 l 1,0,-1
686 243 m 0,26,27
 753 243 753 243 806.5 261 c 128,-1,28
 860 279 860 279 904 321 c 128,-1,29
 948 363 948 363 977 429.5 c 128,-1,30
 1006 496 1006 496 1022 595 c 128,-1,31
 1038 694 1038 694 1038 824 c 0,32,33
 1038 1015 1038 1015 983 1095.5 c 128,-1,34
 928 1176 928 1176 792 1176 c 0,35,36
 723 1176 723 1176 669.5 1158.5 c 128,-1,37
 616 1141 616 1141 572 1099.5 c 128,-1,38
 528 1058 528 1058 499 992 c 128,-1,39
 470 926 470 926 454.5 828 c 128,-1,40
 439 730 439 730 439 601 c 0,41,42
 439 408 439 408 494.5 325.5 c 128,-1,43
 550 243 550 243 686 243 c 0,26,27
EndSplineSet
Position2: "'cpsp' Capital Spacing lookup 0 subtable" dx=16 dy=0 dh=33 dv=0
EndChar

StartChar: Ugrave
Encoding: 217 217 155
Width: 1414
GlyphClass: 2
Flags: W
AnchorPoint: "Anchor-1" 0 0 basechar 0
AnchorPoint: "Anchor-0" 821 1439 basechar 0
LayerCount: 2
Fore
SplineSet
656 2002 m 1,0,-1
 688 2011 l 1,1,2
 881 1895 881 1895 1165 1753 c 1,3,-1
 1110 1608 l 1,4,-1
 1078 1598 l 1,5,6
 811 1681 811 1681 580 1766 c 1,7,-1
 569 1797 l 1,8,-1
 656 2002 l 1,0,-1
1306 710 m 1,9,-1
 1280 505 l 1,10,11
 1249 250 1249 250 1088 114 c 128,-1,12
 927 -22 927 -22 643 -22 c 0,13,14
 396 -22 396 -22 257.5 85.5 c 128,-1,15
 119 193 119 193 119 392 c 0,16,17
 119 441 119 441 125 498 c 1,18,-1
 156 714 l 1,19,-1
 237 1440 l 1,20,-1
 590 1440 l 1,21,-1
 464 545 l 1,22,23
 460 490 460 490 460 471 c 0,24,25
 460 399 460 399 482.5 353.5 c 128,-1,26
 505 308 505 308 552 286 c 128,-1,27
 599 264 599 264 671 264 c 0,28,29
 801 264 801 264 869.5 330 c 128,-1,30
 938 396 938 396 953 536 c 2,31,-1
 1050 1440 l 1,32,-1
 1406 1440 l 1,33,-1
 1306 710 l 1,9,-1
EndSplineSet
Position2: "'cpsp' Capital Spacing lookup 0 subtable" dx=16 dy=0 dh=33 dv=0
EndChar

StartChar: Uacute
Encoding: 218 218 156
Width: 1414
GlyphClass: 2
Flags: W
AnchorPoint: "Anchor-1" 0 0 basechar 0
AnchorPoint: "Anchor-0" 821 1439 basechar 0
LayerCount: 2
Fore
SplineSet
1087 2000 m 1,0,-1
 1176 1795 l 1,1,-1
 1165 1764 l 1,2,3
 951 1686 951 1686 667 1596 c 1,4,-1
 634 1606 l 1,5,-1
 580 1748 l 1,6,7
 873 1899 873 1899 1056 2009 c 1,8,-1
 1087 2000 l 1,0,-1
1306 710 m 1,9,-1
 1280 505 l 1,10,11
 1249 250 1249 250 1088 114 c 128,-1,12
 927 -22 927 -22 643 -22 c 0,13,14
 396 -22 396 -22 257.5 85.5 c 128,-1,15
 119 193 119 193 119 392 c 0,16,17
 119 441 119 441 125 498 c 1,18,-1
 156 714 l 1,19,-1
 237 1440 l 1,20,-1
 590 1440 l 1,21,-1
 464 545 l 1,22,23
 460 490 460 490 460 471 c 0,24,25
 460 399 460 399 482.5 353.5 c 128,-1,26
 505 308 505 308 552 286 c 128,-1,27
 599 264 599 264 671 264 c 0,28,29
 801 264 801 264 869.5 330 c 128,-1,30
 938 396 938 396 953 536 c 2,31,-1
 1050 1440 l 1,32,-1
 1406 1440 l 1,33,-1
 1306 710 l 1,9,-1
EndSplineSet
Position2: "'cpsp' Capital Spacing lookup 0 subtable" dx=16 dy=0 dh=33 dv=0
EndChar

StartChar: Ucircumflex
Encoding: 219 219 157
Width: 1414
GlyphClass: 2
Flags: W
AnchorPoint: "Anchor-1" 0 0 basechar 0
AnchorPoint: "Anchor-0" 821 1439 basechar 0
LayerCount: 2
Fore
SplineSet
565 1619 m 1,0,-1
 518 1755 l 1,1,2
 704 1879 704 1879 848 1998 c 1,3,-1
 916 1998 l 1,4,5
 1028 1891 1028 1891 1212 1755 c 1,6,-1
 1134 1619 l 1,7,-1
 1101 1619 l 1,8,-1
 871 1757 l 1,9,10
 824 1732 824 1732 731 1685.5 c 128,-1,11
 638 1639 638 1639 598 1619 c 1,12,-1
 565 1619 l 1,0,-1
1306 710 m 1,13,-1
 1280 505 l 1,14,15
 1249 250 1249 250 1088 114 c 128,-1,16
 927 -22 927 -22 643 -22 c 0,17,18
 396 -22 396 -22 257.5 85.5 c 128,-1,19
 119 193 119 193 119 392 c 0,20,21
 119 441 119 441 125 498 c 1,22,-1
 156 714 l 1,23,-1
 237 1440 l 1,24,-1
 590 1440 l 1,25,-1
 464 545 l 1,26,27
 460 490 460 490 460 471 c 0,28,29
 460 399 460 399 482.5 353.5 c 128,-1,30
 505 308 505 308 552 286 c 128,-1,31
 599 264 599 264 671 264 c 0,32,33
 801 264 801 264 869.5 330 c 128,-1,34
 938 396 938 396 953 536 c 2,35,-1
 1050 1440 l 1,36,-1
 1406 1440 l 1,37,-1
 1306 710 l 1,13,-1
EndSplineSet
Position2: "'cpsp' Capital Spacing lookup 0 subtable" dx=16 dy=0 dh=33 dv=0
EndChar

StartChar: Udieresis
Encoding: 220 220 158
Width: 1414
GlyphClass: 2
Flags: W
AnchorPoint: "Anchor-1" 0 0 basechar 0
AnchorPoint: "Anchor-0" 821 1439 basechar 0
LayerCount: 2
Fore
SplineSet
667 1947 m 0,0,1
 737 1947 737 1947 777.5 1906 c 128,-1,2
 818 1865 818 1865 818 1793 c 0,3,4
 818 1716 818 1716 773.5 1670.5 c 128,-1,5
 729 1625 729 1625 654 1625 c 0,6,7
 605 1625 605 1625 571 1643 c 128,-1,8
 537 1661 537 1661 519.5 1695.5 c 128,-1,9
 502 1730 502 1730 502 1779 c 0,10,11
 502 1856 502 1856 546.5 1901.5 c 128,-1,12
 591 1947 591 1947 667 1947 c 0,0,1
1074 1945 m 0,13,14
 1144 1945 1144 1945 1183.5 1905 c 128,-1,15
 1223 1865 1223 1865 1223 1793 c 0,16,17
 1223 1741 1223 1741 1203.5 1702.5 c 128,-1,18
 1184 1664 1184 1664 1147 1643.5 c 128,-1,19
 1110 1623 1110 1623 1061 1623 c 0,20,21
 987 1623 987 1623 948 1663.5 c 128,-1,22
 909 1704 909 1704 909 1779 c 0,23,24
 909 1856 909 1856 953 1900.5 c 128,-1,25
 997 1945 997 1945 1074 1945 c 0,13,14
1306 710 m 1,26,-1
 1280 505 l 1,27,28
 1249 250 1249 250 1088 114 c 128,-1,29
 927 -22 927 -22 643 -22 c 0,30,31
 396 -22 396 -22 257.5 85.5 c 128,-1,32
 119 193 119 193 119 392 c 0,33,34
 119 441 119 441 125 498 c 1,35,-1
 156 714 l 1,36,-1
 237 1440 l 1,37,-1
 590 1440 l 1,38,-1
 464 545 l 1,39,40
 460 490 460 490 460 471 c 0,41,42
 460 399 460 399 482.5 353.5 c 128,-1,43
 505 308 505 308 552 286 c 128,-1,44
 599 264 599 264 671 264 c 0,45,46
 801 264 801 264 869.5 330 c 128,-1,47
 938 396 938 396 953 536 c 2,48,-1
 1050 1440 l 1,49,-1
 1406 1440 l 1,50,-1
 1306 710 l 1,26,-1
EndSplineSet
Position2: "'cpsp' Capital Spacing lookup 0 subtable" dx=16 dy=0 dh=33 dv=0
EndChar

StartChar: Yacute
Encoding: 221 221 159
Width: 1256
GlyphClass: 2
Flags: W
AnchorPoint: "Anchor-1" 0 0 basechar 0
AnchorPoint: "Anchor-0" 743 1439 basechar 0
LayerCount: 2
Fore
SplineSet
556 1606 m 1,0,-1
 502 1748 l 1,1,2
 788 1895 788 1895 978 2009 c 1,3,-1
 1009 2000 l 1,4,-1
 1099 1795 l 1,5,-1
 1087 1764 l 1,6,7
 863 1683 863 1683 590 1596 c 1,8,-1
 556 1606 l 1,0,-1
771 475 m 1,9,-1
 756 392 l 1,10,-1
 726 0 l 1,11,-1
 371 0 l 1,12,-1
 437 392 l 1,13,-1
 445 480 l 1,14,-1
 113 1440 l 1,15,-1
 482 1440 l 1,16,-1
 502 1333 l 1,17,-1
 647 826 l 1,18,-1
 671 826 l 1,19,-1
 967 1321 l 1,20,-1
 1025 1440 l 1,21,-1
 1391 1440 l 1,22,-1
 771 475 l 1,9,-1
EndSplineSet
Ligature2: "'liga' Standard Ligatures lookup 30 subtable" acute Y
Position2: "'cpsp' Capital Spacing lookup 0 subtable" dx=16 dy=0 dh=33 dv=0
EndChar

StartChar: Thorn
Encoding: 222 222 160
Width: 1269
GlyphClass: 2
Flags: W
LayerCount: 2
Fore
SplineSet
603 1221 m 1,0,-1
 837 1221 l 2,1,2
 1044 1221 1044 1221 1160 1123 c 128,-1,3
 1276 1025 1276 1025 1276 839 c 0,4,5
 1276 708 1276 708 1229.5 596 c 128,-1,6
 1183 484 1183 484 1099 404 c 128,-1,7
 1015 324 1015 324 893.5 279 c 128,-1,8
 772 234 772 234 627 234 c 2,9,-1
 473 234 l 1,10,-1
 451 0 l 1,11,-1
 94 0 l 1,12,-1
 166 426 l 1,13,-1
 272 1440 l 1,14,-1
 634 1440 l 1,15,-1
 603 1221 l 1,0,-1
498 496 m 1,16,-1
 712 486 l 1,17,18
 808 518 808 518 858.5 594.5 c 128,-1,19
 909 671 909 671 909 784 c 0,20,21
 909 876 909 876 862 921 c 128,-1,22
 815 966 815 966 712 971 c 1,23,-1
 565 962 l 1,24,-1
 498 496 l 1,16,-1
EndSplineSet
Position2: "'cpsp' Capital Spacing lookup 0 subtable" dx=16 dy=0 dh=33 dv=0
EndChar

StartChar: germandbls
Encoding: 223 223 161
Width: 1354
GlyphClass: 2
Flags: W
LayerCount: 2
Fore
SplineSet
982 795 m 256,0,1
 982 764 982 764 1000.5 736 c 128,-1,2
 1019 708 1019 708 1049 685 c 128,-1,3
 1079 662 1079 662 1114.5 638 c 128,-1,4
 1150 614 1150 614 1186 585 c 128,-1,5
 1222 556 1222 556 1252 523 c 128,-1,6
 1282 490 1282 490 1300.5 442.5 c 128,-1,7
 1319 395 1319 395 1319 339 c 0,8,9
 1319 235 1319 235 1258.5 152.5 c 128,-1,10
 1198 70 1198 70 1092.5 24 c 128,-1,11
 987 -22 987 -22 857 -22 c 1,12,13
 705 -5 705 -5 576 43 c 1,14,-1
 647 311 l 1,15,-1
 681 326 l 1,16,17
 711 291 711 291 744 263.5 c 128,-1,18
 777 236 777 236 810 217.5 c 128,-1,19
 843 199 843 199 875.5 189 c 128,-1,20
 908 179 908 179 937 179 c 0,21,22
 968 179 968 179 991.5 191.5 c 128,-1,23
 1015 204 1015 204 1026.5 223.5 c 128,-1,24
 1038 243 1038 243 1038 266 c 0,25,26
 1038 291 1038 291 1019.5 315 c 128,-1,27
 1001 339 1001 339 971 361.5 c 128,-1,28
 941 384 941 384 905 408.5 c 128,-1,29
 869 433 869 433 832.5 464 c 128,-1,30
 796 495 796 495 766 531 c 128,-1,31
 736 567 736 567 717.5 617.5 c 128,-1,32
 699 668 699 668 699 726 c 0,33,34
 699 778 699 778 712.5 824 c 128,-1,35
 726 870 726 870 747 903.5 c 128,-1,36
 768 937 768 937 794 967.5 c 128,-1,37
 820 998 820 998 846 1025.5 c 128,-1,38
 872 1053 872 1053 893.5 1080 c 128,-1,39
 915 1107 915 1107 928.5 1139.5 c 128,-1,40
 942 1172 942 1172 942 1208 c 0,41,42
 942 1327 942 1327 797 1327 c 0,43,44
 614 1327 614 1327 585 1148 c 1,45,-1
 489 460 l 1,46,-1
 428 7 l 1,47,-1
 420 -234 l 1,48,-1
 98 -257 l 1,49,-1
 190 424 l 1,50,-1
 239 835 l 1,51,-1
 94 835 l 1,52,-1
 78 855 l 1,53,-1
 102 1022 l 1,54,-1
 262 1022 l 1,55,-1
 270 1087 l 2,56,57
 299 1316 299 1316 446 1444 c 128,-1,58
 593 1572 593 1572 833 1572 c 0,59,60
 1030 1572 1030 1572 1136 1488.5 c 128,-1,61
 1242 1405 1242 1405 1242 1268 c 0,62,63
 1242 1218 1242 1218 1227.5 1173 c 128,-1,64
 1213 1128 1213 1128 1190 1094 c 128,-1,65
 1167 1060 1167 1060 1139.5 1028.5 c 128,-1,66
 1112 997 1112 997 1084 969.5 c 128,-1,67
 1056 942 1056 942 1033.5 915 c 128,-1,68
 1011 888 1011 888 996.5 857 c 128,-1,69
 982 826 982 826 982 795 c 256,0,1
EndSplineSet
Substitution2: "Single Substitution lookup 41 subtable" germandbls.calt
Substitution2: "'case' Case-Sensitive Forms lookup 28 subtable" Germandbls
Substitution2: "'aalt' Access All Alternates lookup 0 subtable" Germandbls
EndChar

StartChar: agrave
Encoding: 224 224 162
Width: 1050
GlyphClass: 2
Flags: W
AnchorPoint: "Anchor-1" 0 0 basechar 0
AnchorPoint: "Anchor-0" 577 1044 basechar 0
LayerCount: 2
Fore
SplineSet
795 1163 m 1,0,-1
 763 1161 l 1,1,2
 591 1254 591 1254 306 1417 c 1,3,-1
 299 1451 l 1,4,-1
 424 1638 l 1,5,-1
 456 1640 l 1,6,7
 635 1481 635 1481 875 1293 c 1,8,-1
 795 1163 l 1,0,-1
993 1052 m 1,9,-1
 886 254 l 1,10,-1
 877 13 l 1,11,-1
 556 -9 l 1,12,-1
 598 301 l 1,13,-1
 567 301 l 1,14,15
 467 117 467 117 341 -22 c 1,16,-1
 296 -22 l 1,17,18
 153 23 153 23 94.5 113 c 128,-1,19
 36 203 36 203 36 346 c 0,20,21
 36 432 36 432 55.5 518 c 128,-1,22
 75 604 75 604 117.5 688.5 c 128,-1,23
 160 773 160 773 221 844 c 128,-1,24
 282 915 282 915 371 972 c 128,-1,25
 460 1029 460 1029 567 1058 c 1,26,-1
 580 1058 l 1,27,-1
 775 1016 l 1,28,-1
 971 1067 l 1,29,-1
 993 1052 l 1,9,-1
384 286 m 0,30,31
 423 286 423 286 497 402 c 128,-1,32
 571 518 571 518 658 735 c 1,33,-1
 663 773 l 1,34,-1
 513 818 l 1,35,36
 426 818 426 818 379 724 c 128,-1,37
 332 630 332 630 332 471 c 0,38,39
 332 405 332 405 339.5 362 c 128,-1,40
 347 319 347 319 358 302.5 c 128,-1,41
 369 286 369 286 384 286 c 0,30,31
EndSplineSet
Substitution2: "'case' Case-Sensitive Forms lookup 28 subtable" Agrave
Substitution2: "'aalt' Access All Alternates lookup 0 subtable" Agrave
EndChar

StartChar: aacute
Encoding: 225 225 163
Width: 1050
GlyphClass: 2
Flags: W
AnchorPoint: "Anchor-1" 0 0 basechar 0
AnchorPoint: "Anchor-0" 577 1044 basechar 0
LayerCount: 2
Fore
SplineSet
417 1163 m 1,0,-1
 335 1293 l 1,1,2
 597 1498 597 1498 754 1640 c 1,3,-1
 788 1638 l 1,4,-1
 911 1451 l 1,5,-1
 904 1417 l 1,6,7
 583 1233 583 1233 449 1161 c 1,8,-1
 417 1163 l 1,0,-1
993 1052 m 1,9,-1
 886 254 l 1,10,-1
 877 13 l 1,11,-1
 556 -9 l 1,12,-1
 598 301 l 1,13,-1
 567 301 l 1,14,15
 467 117 467 117 341 -22 c 1,16,-1
 296 -22 l 1,17,18
 153 23 153 23 94.5 113 c 128,-1,19
 36 203 36 203 36 346 c 0,20,21
 36 432 36 432 55.5 518 c 128,-1,22
 75 604 75 604 117.5 688.5 c 128,-1,23
 160 773 160 773 221 844 c 128,-1,24
 282 915 282 915 371 972 c 128,-1,25
 460 1029 460 1029 567 1058 c 1,26,-1
 580 1058 l 1,27,-1
 775 1016 l 1,28,-1
 971 1067 l 1,29,-1
 993 1052 l 1,9,-1
384 286 m 0,30,31
 423 286 423 286 497 402 c 128,-1,32
 571 518 571 518 658 735 c 1,33,-1
 663 773 l 1,34,-1
 513 818 l 1,35,36
 426 818 426 818 379 724 c 128,-1,37
 332 630 332 630 332 471 c 0,38,39
 332 405 332 405 339.5 362 c 128,-1,40
 347 319 347 319 358 302.5 c 128,-1,41
 369 286 369 286 384 286 c 0,30,31
EndSplineSet
Substitution2: "'case' Case-Sensitive Forms lookup 28 subtable" Aacute
Substitution2: "'aalt' Access All Alternates lookup 0 subtable" Aacute
EndChar

StartChar: acircumflex
Encoding: 226 226 164
Width: 1050
GlyphClass: 2
Flags: W
AnchorPoint: "Anchor-1" 0 0 basechar 0
AnchorPoint: "Anchor-0" 577 1044 basechar 0
LayerCount: 2
Fore
SplineSet
326 1176 m 1,0,-1
 259 1308 l 1,1,2
 280 1324 280 1324 302.5 1343.5 c 128,-1,3
 325 1363 325 1363 343.5 1378.5 c 128,-1,4
 362 1394 362 1394 389.5 1418.5 c 128,-1,5
 417 1443 417 1443 433 1457 c 128,-1,6
 449 1471 449 1471 481 1500 c 128,-1,7
 513 1529 513 1529 525.5 1541 c 128,-1,8
 538 1553 538 1553 575 1586.5 c 128,-1,9
 612 1620 612 1620 622 1630 c 1,10,-1
 692 1630 l 1,11,12
 810 1484 810 1484 986 1308 c 1,13,-1
 886 1176 l 1,14,-1
 852 1176 l 1,15,16
 707 1294 707 1294 630 1373 c 1,17,18
 531 1291 531 1291 360 1176 c 1,19,-1
 326 1176 l 1,0,-1
993 1052 m 1,20,-1
 886 254 l 1,21,-1
 877 13 l 1,22,-1
 556 -9 l 1,23,-1
 598 301 l 1,24,-1
 567 301 l 1,25,26
 467 117 467 117 341 -22 c 1,27,-1
 296 -22 l 1,28,29
 153 23 153 23 94.5 113 c 128,-1,30
 36 203 36 203 36 346 c 0,31,32
 36 432 36 432 55.5 518 c 128,-1,33
 75 604 75 604 117.5 688.5 c 128,-1,34
 160 773 160 773 221 844 c 128,-1,35
 282 915 282 915 371 972 c 128,-1,36
 460 1029 460 1029 567 1058 c 1,37,-1
 580 1058 l 1,38,-1
 775 1016 l 1,39,-1
 971 1067 l 1,40,-1
 993 1052 l 1,20,-1
384 286 m 0,41,42
 423 286 423 286 497 402 c 128,-1,43
 571 518 571 518 658 735 c 1,44,-1
 663 773 l 1,45,-1
 513 818 l 1,46,47
 426 818 426 818 379 724 c 128,-1,48
 332 630 332 630 332 471 c 0,49,50
 332 405 332 405 339.5 362 c 128,-1,51
 347 319 347 319 358 302.5 c 128,-1,52
 369 286 369 286 384 286 c 0,41,42
EndSplineSet
Substitution2: "'case' Case-Sensitive Forms lookup 28 subtable" Acircumflex
Substitution2: "'aalt' Access All Alternates lookup 0 subtable" Acircumflex
EndChar

StartChar: atilde
Encoding: 227 227 165
Width: 1050
GlyphClass: 2
Flags: W
AnchorPoint: "Anchor-1" 0 0 basechar 0
AnchorPoint: "Anchor-0" 577 1044 basechar 0
LayerCount: 2
Fore
SplineSet
1029 1498 m 1,0,-1
 1029 1469 l 1,1,-1
 864 1250 l 1,2,-1
 833 1239 l 1,3,4
 797 1244 797 1244 742.5 1257 c 128,-1,5
 688 1270 688 1270 642.5 1283 c 128,-1,6
 597 1296 597 1296 553 1306.5 c 128,-1,7
 509 1317 509 1317 489 1317 c 0,8,9
 479 1317 479 1317 469 1314 c 128,-1,10
 459 1311 459 1311 448 1303 c 128,-1,11
 437 1295 437 1295 429 1289 c 128,-1,12
 421 1283 421 1283 408 1268.5 c 128,-1,13
 395 1254 395 1254 388.5 1247 c 128,-1,14
 382 1240 382 1240 366.5 1221.5 c 128,-1,15
 351 1203 351 1203 346 1197 c 1,16,-1
 315 1197 l 1,17,-1
 213 1297 l 1,18,-1
 213 1327 l 1,19,-1
 377 1542 l 1,20,-1
 409 1553 l 1,21,22
 445 1549 445 1549 500 1536 c 128,-1,23
 555 1523 555 1523 600 1510.5 c 128,-1,24
 645 1498 645 1498 689 1488 c 128,-1,25
 733 1478 733 1478 752 1478 c 0,26,27
 762 1478 762 1478 772 1481 c 128,-1,28
 782 1484 782 1484 793.5 1492 c 128,-1,29
 805 1500 805 1500 812.5 1505.5 c 128,-1,30
 820 1511 820 1511 833.5 1525.5 c 128,-1,31
 847 1540 847 1540 853 1546.5 c 128,-1,32
 859 1553 859 1553 875.5 1572.5 c 128,-1,33
 892 1592 892 1592 897 1598 c 1,34,-1
 926 1598 l 1,35,-1
 1029 1498 l 1,0,-1
971 1067 m 1,36,-1
 993 1052 l 1,37,-1
 886 254 l 1,38,-1
 877 13 l 1,39,-1
 556 -9 l 1,40,-1
 598 301 l 1,41,-1
 567 301 l 1,42,43
 467 117 467 117 341 -22 c 1,44,-1
 296 -22 l 1,45,46
 153 23 153 23 94.5 113 c 128,-1,47
 36 203 36 203 36 346 c 0,48,49
 36 432 36 432 55.5 518 c 128,-1,50
 75 604 75 604 117.5 688.5 c 128,-1,51
 160 773 160 773 221 844 c 128,-1,52
 282 915 282 915 371 972 c 128,-1,53
 460 1029 460 1029 567 1058 c 1,54,-1
 580 1058 l 1,55,-1
 775 1016 l 1,56,-1
 971 1067 l 1,36,-1
384 286 m 0,57,58
 423 286 423 286 497 402 c 128,-1,59
 571 518 571 518 658 735 c 1,60,-1
 663 773 l 1,61,-1
 513 818 l 1,62,63
 426 818 426 818 379 724 c 128,-1,64
 332 630 332 630 332 471 c 0,65,66
 332 405 332 405 339.5 362 c 128,-1,67
 347 319 347 319 358 302.5 c 128,-1,68
 369 286 369 286 384 286 c 0,57,58
EndSplineSet
Substitution2: "'case' Case-Sensitive Forms lookup 28 subtable" Atilde
Substitution2: "'aalt' Access All Alternates lookup 0 subtable" Atilde
EndChar

StartChar: adieresis
Encoding: 228 228 166
Width: 1050
GlyphClass: 2
Flags: W
AnchorPoint: "Anchor-1" 0 0 basechar 0
AnchorPoint: "Anchor-0" 577 1044 basechar 0
LayerCount: 2
Fore
SplineSet
411 1227 m 0,0,1
 338 1227 338 1227 298.5 1267.5 c 128,-1,2
 259 1308 259 1308 259 1382 c 0,3,4
 259 1459 259 1459 303 1504 c 128,-1,5
 347 1549 347 1549 424 1549 c 0,6,7
 494 1549 494 1549 533.5 1508 c 128,-1,8
 573 1467 573 1467 573 1395 c 0,9,10
 573 1318 573 1318 529.5 1272.5 c 128,-1,11
 486 1227 486 1227 411 1227 c 0,0,1
818 1225 m 0,12,13
 744 1225 744 1225 704.5 1266 c 128,-1,14
 665 1307 665 1307 665 1382 c 0,15,16
 665 1433 665 1433 685 1470 c 128,-1,17
 705 1507 705 1507 742.5 1527 c 128,-1,18
 780 1547 780 1547 831 1547 c 0,19,20
 877 1547 877 1547 910.5 1529 c 128,-1,21
 944 1511 944 1511 962 1477 c 128,-1,22
 980 1443 980 1443 980 1395 c 0,23,24
 980 1356 980 1356 968.5 1324.5 c 128,-1,25
 957 1293 957 1293 936 1271 c 128,-1,26
 915 1249 915 1249 885 1237 c 128,-1,27
 855 1225 855 1225 818 1225 c 0,12,13
993 1052 m 1,28,-1
 886 254 l 1,29,-1
 877 13 l 1,30,-1
 556 -9 l 1,31,-1
 598 301 l 1,32,-1
 567 301 l 1,33,34
 467 117 467 117 341 -22 c 1,35,-1
 296 -22 l 1,36,37
 153 23 153 23 94.5 113 c 128,-1,38
 36 203 36 203 36 346 c 0,39,40
 36 432 36 432 55.5 518 c 128,-1,41
 75 604 75 604 117.5 688.5 c 128,-1,42
 160 773 160 773 221 844 c 128,-1,43
 282 915 282 915 371 972 c 128,-1,44
 460 1029 460 1029 567 1058 c 1,45,-1
 580 1058 l 1,46,-1
 775 1016 l 1,47,-1
 971 1067 l 1,48,-1
 993 1052 l 1,28,-1
384 286 m 0,49,50
 423 286 423 286 497 402 c 128,-1,51
 571 518 571 518 658 735 c 1,52,-1
 663 773 l 1,53,-1
 513 818 l 1,54,55
 426 818 426 818 379 724 c 128,-1,56
 332 630 332 630 332 471 c 0,57,58
 332 405 332 405 339.5 362 c 128,-1,59
 347 319 347 319 358 302.5 c 128,-1,60
 369 286 369 286 384 286 c 0,49,50
EndSplineSet
Substitution2: "'case' Case-Sensitive Forms lookup 28 subtable" Adieresis
Substitution2: "'aalt' Access All Alternates lookup 0 subtable" Adieresis
EndChar

StartChar: aring
Encoding: 229 229 167
Width: 1050
GlyphClass: 2
Flags: W
AnchorPoint: "Anchor-1" 0 0 basechar 0
AnchorPoint: "Anchor-0" 577 1044 basechar 0
LayerCount: 2
Fore
SplineSet
616 1197 m 0,0,1
 547 1197 547 1197 498.5 1221.5 c 128,-1,2
 450 1246 450 1246 425 1295 c 128,-1,3
 400 1344 400 1344 400 1415 c 0,4,5
 400 1524 400 1524 459.5 1583.5 c 128,-1,6
 519 1643 519 1643 630 1643 c 0,7,8
 667 1643 667 1643 697.5 1636.5 c 128,-1,9
 728 1630 728 1630 752 1617.5 c 128,-1,10
 776 1605 776 1605 794 1587 c 128,-1,11
 812 1569 812 1569 824 1545 c 128,-1,12
 836 1521 836 1521 842 1492 c 128,-1,13
 848 1463 848 1463 848 1429 c 0,14,15
 848 1317 848 1317 787.5 1257 c 128,-1,16
 727 1197 727 1197 616 1197 c 0,0,1
622 1498 m 0,17,18
 578 1498 578 1498 558 1479.5 c 128,-1,19
 538 1461 538 1461 538 1422 c 0,20,21
 538 1378 538 1378 559.5 1357.5 c 128,-1,22
 581 1337 581 1337 625 1337 c 128,-1,23
 669 1337 669 1337 689.5 1355.5 c 128,-1,24
 710 1374 710 1374 710 1415 c 0,25,26
 710 1498 710 1498 622 1498 c 0,17,18
993 1052 m 1,27,-1
 886 254 l 1,28,-1
 877 13 l 1,29,-1
 556 -9 l 1,30,-1
 598 301 l 1,31,-1
 567 301 l 1,32,33
 467 117 467 117 341 -22 c 1,34,-1
 296 -22 l 1,35,36
 153 23 153 23 94.5 113 c 128,-1,37
 36 203 36 203 36 346 c 0,38,39
 36 432 36 432 55.5 518 c 128,-1,40
 75 604 75 604 117.5 688.5 c 128,-1,41
 160 773 160 773 221 844 c 128,-1,42
 282 915 282 915 371 972 c 128,-1,43
 460 1029 460 1029 567 1058 c 1,44,-1
 580 1058 l 1,45,-1
 775 1016 l 1,46,-1
 971 1067 l 1,47,-1
 993 1052 l 1,27,-1
384 286 m 0,48,49
 423 286 423 286 497 402 c 128,-1,50
 571 518 571 518 658 735 c 1,51,-1
 663 773 l 1,52,-1
 513 818 l 1,53,54
 426 818 426 818 379 724 c 128,-1,55
 332 630 332 630 332 471 c 0,56,57
 332 405 332 405 339.5 362 c 128,-1,58
 347 319 347 319 358 302.5 c 128,-1,59
 369 286 369 286 384 286 c 0,48,49
EndSplineSet
Substitution2: "'case' Case-Sensitive Forms lookup 28 subtable" Aring
Substitution2: "'aalt' Access All Alternates lookup 0 subtable" Aring
EndChar

StartChar: ae
Encoding: 230 230 168
Width: 1470
GlyphClass: 2
Flags: W
AnchorPoint: "Anchor-1" 1495 0 basechar 0
AnchorPoint: "Anchor-0" 828 1044 basechar 0
LayerCount: 2
Fore
SplineSet
592 1058 m 1,0,-1
 899 986 l 1,1,2
 1027 1061 1027 1061 1180 1067 c 1,3,-1
 1212 1065 l 1,4,5
 1325 1043 1325 1043 1391 979 c 128,-1,6
 1457 915 1457 915 1457 808 c 0,7,8
 1457 718 1457 718 1404 646.5 c 128,-1,9
 1351 575 1351 575 1229 511.5 c 128,-1,10
 1107 448 1107 448 909 395 c 1,11,12
 909 388 909 388 913 362 c 0,13,14
 923 292 923 292 951.5 260 c 128,-1,15
 980 228 980 228 1031 228 c 0,16,17
 1076 228 1076 228 1117.5 246.5 c 128,-1,18
 1159 265 1159 265 1195.5 301.5 c 128,-1,19
 1232 338 1232 338 1263 390 c 1,20,-1
 1306 386 l 1,21,-1
 1408 252 l 1,22,23
 1242 43 1242 43 1014 -22 c 1,24,-1
 980 -22 l 1,25,26
 891 -12 891 -12 826 14.5 c 128,-1,27
 761 41 761 41 719 84 c 128,-1,28
 677 127 677 127 652.5 182 c 128,-1,29
 628 237 628 237 616 311 c 1,30,31
 609 330 609 330 609 339 c 1,32,33
 484 125 484 125 346 -22 c 1,34,-1
 301 -22 l 1,35,36
 227 1 227 1 175.5 37 c 128,-1,37
 124 73 124 73 95.5 121.5 c 128,-1,38
 67 170 67 170 55 223.5 c 128,-1,39
 43 277 43 277 43 343 c 0,40,41
 43 431 43 431 63 518.5 c 128,-1,42
 83 606 83 606 126 690.5 c 128,-1,43
 169 775 169 775 230.5 846 c 128,-1,44
 292 917 292 917 381 973 c 128,-1,45
 470 1029 470 1029 576 1058 c 1,46,-1
 592 1058 l 1,0,-1
1099 859 m 0,47,48
 1018 859 1018 859 968.5 787 c 128,-1,49
 919 715 919 715 906 580 c 1,50,51
 976 598 976 598 1026.5 619.5 c 128,-1,52
 1077 641 1077 641 1110.5 667 c 128,-1,53
 1144 693 1144 693 1160 723 c 128,-1,54
 1176 753 1176 753 1176 788 c 0,55,56
 1176 825 1176 825 1157.5 842 c 128,-1,57
 1139 859 1139 859 1099 859 c 0,47,48
690 768 m 1,58,-1
 524 820 l 1,59,60
 434 820 434 820 384.5 724.5 c 128,-1,61
 335 629 335 629 335 467 c 0,62,63
 335 283 335 283 388 283 c 0,64,65
 426 283 426 283 500 394.5 c 128,-1,66
 574 506 574 506 658 705 c 0,67,68
 665 722 665 722 669 730.5 c 128,-1,69
 673 739 673 739 679 748.5 c 128,-1,70
 685 758 685 758 690 768 c 1,58,-1
EndSplineSet
Substitution2: "'case' Case-Sensitive Forms lookup 28 subtable" AE
Substitution2: "'aalt' Access All Alternates lookup 0 subtable" AE
EndChar

StartChar: ccedilla
Encoding: 231 231 169
Width: 809
GlyphClass: 2
Flags: W
AnchorPoint: "Anchor-1" 421 0 basechar 0
AnchorPoint: "Anchor-0" 538 1044 basechar 0
LayerCount: 2
Fore
SplineSet
652 409 m 1,0,-1
 754 279 l 1,1,2
 691 170 691 170 621.5 105 c 128,-1,3
 552 40 552 40 458 0 c 1,4,-1
 435 -100 l 1,5,-1
 511 -143 l 2,6,7
 563 -172 563 -172 584 -204.5 c 128,-1,8
 605 -237 605 -237 605 -279 c 0,9,10
 605 -356 605 -356 544.5 -404.5 c 128,-1,11
 484 -453 484 -453 382 -453 c 0,12,13
 279 -453 279 -453 192 -392 c 1,14,-1
 215 -252 l 1,15,-1
 230 -247 l 1,16,17
 251 -268 251 -268 274 -282.5 c 128,-1,18
 297 -297 297 -297 319 -305 c 128,-1,19
 341 -313 341 -313 360 -313 c 0,20,21
 409 -313 409 -313 409 -270 c 0,22,23
 409 -249 409 -249 375 -230 c 2,24,-1
 264 -168 l 1,25,-1
 299 -7 l 1,26,27
 206 17 206 17 149 67.5 c 128,-1,28
 92 118 92 118 66 196.5 c 128,-1,29
 40 275 40 275 40 388 c 0,30,31
 40 478 40 478 55.5 561.5 c 128,-1,32
 71 645 71 645 102 721 c 128,-1,33
 133 797 133 797 182.5 859 c 128,-1,34
 232 921 232 921 296.5 966.5 c 128,-1,35
 361 1012 361 1012 447 1037.5 c 128,-1,36
 533 1063 533 1063 634 1063 c 1,37,-1
 815 1007 l 1,38,-1
 824 973 l 1,39,-1
 732 732 l 1,40,-1
 663 730 l 1,41,42
 624 778 624 778 596.5 796.5 c 128,-1,43
 569 815 569 815 531 815 c 0,44,45
 348 815 348 815 348 451 c 0,46,47
 348 347 348 347 371 300.5 c 128,-1,48
 394 254 394 254 445 254 c 0,49,50
 484 254 484 254 522.5 288 c 128,-1,51
 561 322 561 322 609 411 c 1,52,-1
 652 409 l 1,0,-1
EndSplineSet
Substitution2: "'case' Case-Sensitive Forms lookup 28 subtable" Ccedilla
Substitution2: "'aalt' Access All Alternates lookup 0 subtable" Ccedilla
EndChar

StartChar: egrave
Encoding: 232 232 170
Width: 927
GlyphClass: 2
Flags: W
AnchorPoint: "Anchor-1" 442 0 basechar 0
AnchorPoint: "Anchor-0" 533 1044 basechar 0
LayerCount: 2
Fore
SplineSet
750 1163 m 1,0,-1
 718 1161 l 1,1,2
 547 1254 547 1254 262 1417 c 1,3,-1
 254 1451 l 1,4,-1
 379 1638 l 1,5,-1
 411 1640 l 1,6,7
 590 1481 590 1481 831 1293 c 1,8,-1
 750 1163 l 1,0,-1
739 386 m 1,9,-1
 844 252 l 1,10,11
 677 42 677 42 449 -22 c 1,12,-1
 415 -22 l 1,13,14
 220 0 220 0 131.5 102 c 128,-1,15
 43 204 43 204 43 386 c 0,16,17
 43 580 43 580 112 731 c 128,-1,18
 181 882 181 882 312 970.5 c 128,-1,19
 443 1059 443 1059 618 1067 c 1,20,-1
 650 1065 l 1,21,22
 764 1042 764 1042 828.5 977 c 128,-1,23
 893 912 893 912 893 806 c 0,24,25
 893 672 893 672 764.5 572.5 c 128,-1,26
 636 473 636 473 348 395 c 1,27,28
 356 305 356 305 385.5 267.5 c 128,-1,29
 415 230 415 230 473 230 c 0,30,31
 535 230 535 230 592.5 271.5 c 128,-1,32
 650 313 650 313 699 392 c 1,33,-1
 739 386 l 1,9,-1
533 857 m 0,34,35
 456 857 456 857 408.5 788 c 128,-1,36
 361 719 361 719 348 585 c 1,37,38
 483 621 483 621 545 668 c 128,-1,39
 607 715 607 715 607 786 c 0,40,41
 607 823 607 823 590 840 c 128,-1,42
 573 857 573 857 533 857 c 0,34,35
EndSplineSet
Substitution2: "'case' Case-Sensitive Forms lookup 28 subtable" Egrave
Substitution2: "'aalt' Access All Alternates lookup 0 subtable" Egrave
EndChar

StartChar: eacute
Encoding: 233 233 171
Width: 927
GlyphClass: 2
Flags: W
AnchorPoint: "Anchor-1" 442 0 basechar 0
AnchorPoint: "Anchor-0" 533 1044 basechar 0
LayerCount: 2
Fore
SplineSet
373 1163 m 1,0,-1
 290 1293 l 1,1,2
 552 1498 552 1498 710 1640 c 1,3,-1
 743 1638 l 1,4,-1
 867 1451 l 1,5,-1
 859 1417 l 1,6,7
 538 1233 538 1233 404 1161 c 1,8,-1
 373 1163 l 1,0,-1
739 386 m 1,9,-1
 844 252 l 1,10,11
 677 42 677 42 449 -22 c 1,12,-1
 415 -22 l 1,13,14
 220 0 220 0 131.5 102 c 128,-1,15
 43 204 43 204 43 386 c 0,16,17
 43 580 43 580 112 731 c 128,-1,18
 181 882 181 882 312 970.5 c 128,-1,19
 443 1059 443 1059 618 1067 c 1,20,-1
 650 1065 l 1,21,22
 764 1042 764 1042 828.5 977 c 128,-1,23
 893 912 893 912 893 806 c 0,24,25
 893 672 893 672 764.5 572.5 c 128,-1,26
 636 473 636 473 348 395 c 1,27,28
 356 305 356 305 385.5 267.5 c 128,-1,29
 415 230 415 230 473 230 c 0,30,31
 535 230 535 230 592.5 271.5 c 128,-1,32
 650 313 650 313 699 392 c 1,33,-1
 739 386 l 1,9,-1
533 857 m 0,34,35
 456 857 456 857 408.5 788 c 128,-1,36
 361 719 361 719 348 585 c 1,37,38
 483 621 483 621 545 668 c 128,-1,39
 607 715 607 715 607 786 c 0,40,41
 607 823 607 823 590 840 c 128,-1,42
 573 857 573 857 533 857 c 0,34,35
EndSplineSet
Substitution2: "'case' Case-Sensitive Forms lookup 28 subtable" Eacute
Substitution2: "'aalt' Access All Alternates lookup 0 subtable" Eacute
EndChar

StartChar: ecircumflex
Encoding: 234 234 172
Width: 927
GlyphClass: 2
Flags: W
AnchorPoint: "Anchor-1" 442 0 basechar 0
AnchorPoint: "Anchor-0" 533 1044 basechar 0
LayerCount: 2
Fore
SplineSet
281 1176 m 1,0,-1
 215 1308 l 1,1,2
 235 1324 235 1324 258 1343.5 c 128,-1,3
 281 1363 281 1363 299.5 1378.5 c 128,-1,4
 318 1394 318 1394 345.5 1418.5 c 128,-1,5
 373 1443 373 1443 388.5 1457 c 128,-1,6
 404 1471 404 1471 436 1500 c 128,-1,7
 468 1529 468 1529 481 1541 c 128,-1,8
 494 1553 494 1553 530.5 1586.5 c 128,-1,9
 567 1620 567 1620 578 1630 c 1,10,-1
 647 1630 l 1,11,12
 766 1484 766 1484 942 1308 c 1,13,-1
 841 1176 l 1,14,-1
 808 1176 l 1,15,16
 662 1294 662 1294 585 1373 c 1,17,18
 487 1291 487 1291 315 1176 c 1,19,-1
 281 1176 l 1,0,-1
893 806 m 0,20,21
 893 672 893 672 764.5 572.5 c 128,-1,22
 636 473 636 473 348 395 c 1,23,24
 356 305 356 305 385.5 267.5 c 128,-1,25
 415 230 415 230 473 230 c 0,26,27
 535 230 535 230 592.5 271.5 c 128,-1,28
 650 313 650 313 699 392 c 1,29,-1
 739 386 l 1,30,-1
 844 252 l 1,31,32
 677 42 677 42 449 -22 c 1,33,-1
 415 -22 l 1,34,35
 220 0 220 0 131.5 102 c 128,-1,36
 43 204 43 204 43 386 c 0,37,38
 43 580 43 580 112 731 c 128,-1,39
 181 882 181 882 312 970.5 c 128,-1,40
 443 1059 443 1059 618 1067 c 1,41,-1
 650 1065 l 1,42,43
 764 1042 764 1042 828.5 977 c 128,-1,44
 893 912 893 912 893 806 c 0,20,21
348 585 m 1,45,46
 483 621 483 621 545 668 c 128,-1,47
 607 715 607 715 607 786 c 0,48,49
 607 823 607 823 590 840 c 128,-1,50
 573 857 573 857 533 857 c 0,51,52
 456 857 456 857 408.5 788 c 128,-1,53
 361 719 361 719 348 585 c 1,45,46
EndSplineSet
Substitution2: "'case' Case-Sensitive Forms lookup 28 subtable" Ecircumflex
Substitution2: "'aalt' Access All Alternates lookup 0 subtable" Ecircumflex
EndChar

StartChar: edieresis
Encoding: 235 235 173
Width: 927
GlyphClass: 2
Flags: W
AnchorPoint: "Anchor-1" 442 0 basechar 0
AnchorPoint: "Anchor-0" 533 1044 basechar 0
LayerCount: 2
Fore
SplineSet
368 1227 m 0,0,1
 295 1227 295 1227 256 1267.5 c 128,-1,2
 217 1308 217 1308 217 1382 c 0,3,4
 217 1459 217 1459 261 1504 c 128,-1,5
 305 1549 305 1549 382 1549 c 0,6,7
 452 1549 452 1549 491.5 1508 c 128,-1,8
 531 1467 531 1467 531 1395 c 0,9,10
 531 1318 531 1318 487 1272.5 c 128,-1,11
 443 1227 443 1227 368 1227 c 0,0,1
775 1225 m 0,12,13
 702 1225 702 1225 662 1266 c 128,-1,14
 622 1307 622 1307 622 1382 c 0,15,16
 622 1459 622 1459 666.5 1503 c 128,-1,17
 711 1547 711 1547 788 1547 c 0,18,19
 859 1547 859 1547 898 1507 c 128,-1,20
 937 1467 937 1467 937 1395 c 0,21,22
 937 1317 937 1317 893.5 1271 c 128,-1,23
 850 1225 850 1225 775 1225 c 0,12,13
893 806 m 0,24,25
 893 672 893 672 764.5 572.5 c 128,-1,26
 636 473 636 473 348 395 c 1,27,28
 356 305 356 305 385.5 267.5 c 128,-1,29
 415 230 415 230 473 230 c 0,30,31
 535 230 535 230 592.5 271.5 c 128,-1,32
 650 313 650 313 699 392 c 1,33,-1
 739 386 l 1,34,-1
 844 252 l 1,35,36
 677 42 677 42 449 -22 c 1,37,-1
 415 -22 l 1,38,39
 220 0 220 0 131.5 102 c 128,-1,40
 43 204 43 204 43 386 c 0,41,42
 43 580 43 580 112 731 c 128,-1,43
 181 882 181 882 312 970.5 c 128,-1,44
 443 1059 443 1059 618 1067 c 1,45,-1
 650 1065 l 1,46,47
 764 1042 764 1042 828.5 977 c 128,-1,48
 893 912 893 912 893 806 c 0,24,25
348 585 m 1,49,50
 483 621 483 621 545 668 c 128,-1,51
 607 715 607 715 607 786 c 0,52,53
 607 823 607 823 590 840 c 128,-1,54
 573 857 573 857 533 857 c 0,55,56
 456 857 456 857 408.5 788 c 128,-1,57
 361 719 361 719 348 585 c 1,49,50
EndSplineSet
Substitution2: "'case' Case-Sensitive Forms lookup 28 subtable" Edieresis
Substitution2: "'aalt' Access All Alternates lookup 0 subtable" Edieresis
EndChar

StartChar: igrave
Encoding: 236 236 174
Width: 546
GlyphClass: 2
Flags: W
AnchorPoint: "Anchor-1" 0 0 basechar 0
AnchorPoint: "Anchor-0" 332 1042 basechar 0
LayerCount: 2
Fore
SplineSet
179 1638 m 1,0,-1
 210 1640 l 1,1,2
 390 1481 390 1481 630 1293 c 1,3,-1
 549 1163 l 1,4,-1
 518 1161 l 1,5,6
 327 1264 327 1264 60 1417 c 1,7,-1
 53 1451 l 1,8,-1
 179 1638 l 1,0,-1
386 254 m 1,9,-1
 375 13 l 1,10,-1
 53 -9 l 1,11,-1
 164 790 l 1,12,-1
 172 1031 l 1,13,-1
 492 1054 l 1,14,-1
 386 254 l 1,9,-1
EndSplineSet
Substitution2: "'case' Case-Sensitive Forms lookup 28 subtable" Igrave
Substitution2: "'aalt' Access All Alternates lookup 0 subtable" Igrave
EndChar

StartChar: iacute
Encoding: 237 237 175
Width: 546
GlyphClass: 2
Flags: W
AnchorPoint: "Anchor-1" 0 0 basechar 0
AnchorPoint: "Anchor-0" 332 1042 basechar 0
LayerCount: 2
Fore
SplineSet
543 1638 m 1,0,-1
 665 1451 l 1,1,-1
 658 1417 l 1,2,3
 356 1243 356 1243 203 1161 c 1,4,-1
 172 1163 l 1,5,-1
 89 1293 l 1,6,7
 351 1498 351 1498 509 1640 c 1,8,-1
 543 1638 l 1,0,-1
386 254 m 1,9,-1
 375 13 l 1,10,-1
 53 -9 l 1,11,-1
 164 790 l 1,12,-1
 172 1031 l 1,13,-1
 492 1054 l 1,14,-1
 386 254 l 1,9,-1
EndSplineSet
Substitution2: "'case' Case-Sensitive Forms lookup 28 subtable" Iacute
Substitution2: "'aalt' Access All Alternates lookup 0 subtable" Iacute
EndChar

StartChar: icircumflex
Encoding: 238 238 176
Width: 546
GlyphClass: 2
Flags: W
AnchorPoint: "Anchor-1" 0 0 basechar 0
AnchorPoint: "Anchor-0" 332 1042 basechar 0
LayerCount: 2
Fore
SplineSet
81 1176 m 1,0,-1
 13 1308 l 1,1,2
 119 1393 119 1393 377 1630 c 1,3,-1
 447 1630 l 1,4,5
 565 1484 565 1484 741 1308 c 1,6,-1
 641 1176 l 1,7,-1
 607 1176 l 1,8,9
 457 1298 457 1298 384 1373 c 1,10,11
 285 1291 285 1291 113 1176 c 1,12,-1
 81 1176 l 1,0,-1
386 254 m 1,13,-1
 375 13 l 1,14,-1
 53 -9 l 1,15,-1
 164 790 l 1,16,-1
 172 1031 l 1,17,-1
 492 1054 l 1,18,-1
 386 254 l 1,13,-1
EndSplineSet
Substitution2: "'case' Case-Sensitive Forms lookup 28 subtable" Icircumflex
Substitution2: "'aalt' Access All Alternates lookup 0 subtable" Icircumflex
EndChar

StartChar: idieresis
Encoding: 239 239 177
Width: 546
GlyphClass: 2
Flags: W
AnchorPoint: "Anchor-1" 0 0 basechar 0
AnchorPoint: "Anchor-0" 332 1042 basechar 0
LayerCount: 2
Fore
SplineSet
198 1547 m 0,0,1
 269 1547 269 1547 308.5 1506.5 c 128,-1,2
 348 1466 348 1466 348 1393 c 0,3,4
 348 1316 348 1316 304 1270.5 c 128,-1,5
 260 1225 260 1225 185 1225 c 0,6,7
 112 1225 112 1225 73 1265.5 c 128,-1,8
 34 1306 34 1306 34 1380 c 0,9,10
 34 1457 34 1457 78 1502 c 128,-1,11
 122 1547 122 1547 198 1547 c 0,0,1
565 1547 m 0,12,13
 635 1547 635 1547 674.5 1506.5 c 128,-1,14
 714 1466 714 1466 714 1393 c 0,15,16
 714 1316 714 1316 670.5 1270.5 c 128,-1,17
 627 1225 627 1225 552 1225 c 0,18,19
 478 1225 478 1225 439 1265.5 c 128,-1,20
 400 1306 400 1306 400 1380 c 0,21,22
 400 1457 400 1457 444 1502 c 128,-1,23
 488 1547 488 1547 565 1547 c 0,12,13
386 254 m 1,24,-1
 375 13 l 1,25,-1
 53 -9 l 1,26,-1
 164 790 l 1,27,-1
 172 1031 l 1,28,-1
 492 1054 l 1,29,-1
 386 254 l 1,24,-1
EndSplineSet
Ligature2: "'liga' Standard Ligatures lookup 30 subtable" dieresis i
Substitution2: "'case' Case-Sensitive Forms lookup 28 subtable" Idieresis
Substitution2: "'aalt' Access All Alternates lookup 0 subtable" Idieresis
EndChar

StartChar: eth
Encoding: 240 240 178
Width: 1057
GlyphClass: 2
Flags: W
LayerCount: 2
Fore
SplineSet
950 1444 m 1,0,-1
 739 1329 l 1,1,2
 997 1048 997 1048 986 681 c 1,3,4
 986 473 986 473 917.5 317.5 c 128,-1,5
 849 162 849 162 720.5 74 c 128,-1,6
 592 -14 592 -14 415 -25 c 1,7,-1
 384 -20 l 1,8,9
 81 48 81 48 81 379 c 0,10,11
 81 661 81 661 220.5 837.5 c 128,-1,12
 360 1014 360 1014 601 1040 c 1,13,14
 555 1114 555 1114 480 1183 c 1,15,-1
 203 1029 l 1,16,-1
 179 1038 l 1,17,-1
 128 1167 l 1,18,-1
 341 1288 l 1,19,20
 252 1343 252 1343 149 1391 c 1,21,-1
 156 1429 l 1,22,-1
 384 1585 l 1,23,-1
 402 1585 l 1,24,25
 522 1518 522 1518 618 1442 c 1,26,-1
 873 1583 l 1,27,-1
 899 1574 l 1,28,-1
 950 1444 l 1,0,-1
473 207 m 0,29,30
 591 207 591 207 639.5 318 c 128,-1,31
 688 429 688 429 690 663 c 0,32,33
 690 705 690 705 686 773 c 1,34,35
 658 824 658 824 594 824 c 0,36,37
 475 824 475 824 425 715 c 128,-1,38
 375 606 375 606 375 373 c 0,39,40
 375 312 375 312 384.5 276 c 128,-1,41
 394 240 394 240 415.5 223.5 c 128,-1,42
 437 207 437 207 473 207 c 0,29,30
EndSplineSet
Substitution2: "'case' Case-Sensitive Forms lookup 28 subtable" Eth
Substitution2: "'aalt' Access All Alternates lookup 0 subtable" Eth
EndChar

StartChar: ntilde
Encoding: 241 241 179
Width: 1129
GlyphClass: 2
Flags: W
AnchorPoint: "Anchor-1" 502 0 basechar 0
AnchorPoint: "Anchor-0" 632 1042 basechar 0
LayerCount: 2
Fore
SplineSet
1082 1498 m 1,0,-1
 1082 1469 l 1,1,-1
 918 1250 l 1,2,-1
 886 1239 l 1,3,4
 833 1246 833 1246 702.5 1281.5 c 128,-1,5
 572 1317 572 1317 543 1317 c 0,6,7
 533 1317 533 1317 522.5 1314 c 128,-1,8
 512 1311 512 1311 501.5 1303 c 128,-1,9
 491 1295 491 1295 482.5 1288.5 c 128,-1,10
 474 1282 474 1282 462 1268.5 c 128,-1,11
 450 1255 450 1255 442.5 1247 c 128,-1,12
 435 1239 435 1239 421 1222 c 128,-1,13
 407 1205 407 1205 400 1197 c 1,14,-1
 368 1197 l 1,15,-1
 266 1297 l 1,16,-1
 266 1327 l 1,17,-1
 431 1542 l 1,18,-1
 462 1553 l 1,19,20
 498 1549 498 1549 553 1536 c 128,-1,21
 608 1523 608 1523 653.5 1510.5 c 128,-1,22
 699 1498 699 1498 742.5 1488 c 128,-1,23
 786 1478 786 1478 806 1478 c 0,24,25
 816 1478 816 1478 826 1481 c 128,-1,26
 836 1484 836 1484 847 1492 c 128,-1,27
 858 1500 858 1500 865.5 1505.5 c 128,-1,28
 873 1511 873 1511 887 1525.5 c 128,-1,29
 901 1540 901 1540 906.5 1546.5 c 128,-1,30
 912 1553 912 1553 928.5 1572.5 c 128,-1,31
 945 1592 945 1592 950 1598 c 1,32,-1
 980 1598 l 1,33,-1
 1082 1498 l 1,0,-1
771 1050 m 1,34,-1
 797 1052 l 1,35,36
 870 1037 870 1037 928 1006 c 128,-1,37
 986 975 986 975 1021.5 927 c 128,-1,38
 1057 879 1057 879 1056 822 c 1,39,-1
 1054 792 l 1,40,-1
 967 257 l 1,41,-1
 958 13 l 1,42,-1
 627 -9 l 1,43,-1
 732 639 l 1,44,-1
 735 663 l 1,45,46
 735 681 735 681 731 692 c 128,-1,47
 727 703 727 703 718.5 708.5 c 128,-1,48
 710 714 710 714 697 714 c 0,49,50
 651 714 651 714 573.5 622.5 c 128,-1,51
 496 531 496 531 400 351 c 1,52,-1
 386 254 l 1,53,-1
 377 13 l 1,54,-1
 53 -9 l 1,55,-1
 164 790 l 1,56,-1
 172 1031 l 1,57,-1
 494 1054 l 1,58,-1
 445 692 l 1,59,-1
 473 692 l 1,60,61
 627 921 627 921 771 1050 c 1,34,-1
EndSplineSet
Substitution2: "'case' Case-Sensitive Forms lookup 28 subtable" Ntilde
Substitution2: "'aalt' Access All Alternates lookup 0 subtable" Ntilde
EndChar

StartChar: ograve
Encoding: 242 242 180
Width: 1001
GlyphClass: 2
Flags: W
AnchorPoint: "Anchor-1" 0 0 basechar 0
AnchorPoint: "Anchor-0" 577 1042 basechar 0
LayerCount: 2
Fore
SplineSet
424 1638 m 1,0,-1
 456 1640 l 1,1,2
 635 1481 635 1481 875 1293 c 1,3,-1
 795 1163 l 1,4,-1
 763 1161 l 1,5,6
 591 1254 591 1254 306 1417 c 1,7,-1
 299 1451 l 1,8,-1
 424 1638 l 1,0,-1
622 1067 m 1,9,-1
 654 1065 l 1,10,11
 799 1033 799 1033 878.5 938 c 128,-1,12
 958 843 958 843 958 681 c 0,13,14
 958 524 958 524 918 396 c 128,-1,15
 878 268 878 268 804 178 c 128,-1,16
 730 88 730 88 622.5 35.5 c 128,-1,17
 515 -17 515 -17 382 -25 c 1,18,-1
 351 -20 l 1,19,20
 45 48 45 48 45 384 c 0,21,22
 45 581 45 581 114.5 732.5 c 128,-1,23
 184 884 184 884 314.5 970.5 c 128,-1,24
 445 1057 445 1057 622 1067 c 1,9,-1
560 818 m 0,25,26
 511 818 511 818 475.5 800 c 128,-1,27
 440 782 440 782 416 748 c 128,-1,28
 392 714 392 714 377.5 659 c 128,-1,29
 363 604 363 604 357 536.5 c 128,-1,30
 351 469 351 469 351 377 c 0,31,32
 351 290 351 290 371 254.5 c 128,-1,33
 391 219 391 219 443 219 c 0,34,35
 557 219 557 219 602 324.5 c 128,-1,36
 647 430 647 430 647 661 c 0,37,38
 647 747 647 747 627.5 782.5 c 128,-1,39
 608 818 608 818 560 818 c 0,25,26
EndSplineSet
Substitution2: "'case' Case-Sensitive Forms lookup 28 subtable" Ograve
Substitution2: "'aalt' Access All Alternates lookup 0 subtable" Ograve
EndChar

StartChar: oacute
Encoding: 243 243 181
Width: 1001
GlyphClass: 2
Flags: W
AnchorPoint: "Anchor-1" 0 0 basechar 0
AnchorPoint: "Anchor-0" 577 1042 basechar 0
LayerCount: 2
Fore
SplineSet
788 1638 m 1,0,-1
 911 1451 l 1,1,-1
 904 1417 l 1,2,3
 583 1233 583 1233 449 1161 c 1,4,-1
 417 1163 l 1,5,-1
 335 1293 l 1,6,7
 597 1498 597 1498 754 1640 c 1,8,-1
 788 1638 l 1,0,-1
622 1067 m 1,9,-1
 654 1065 l 1,10,11
 799 1033 799 1033 878.5 938 c 128,-1,12
 958 843 958 843 958 681 c 0,13,14
 958 524 958 524 918 396 c 128,-1,15
 878 268 878 268 804 178 c 128,-1,16
 730 88 730 88 622.5 35.5 c 128,-1,17
 515 -17 515 -17 382 -25 c 1,18,-1
 351 -20 l 1,19,20
 45 48 45 48 45 384 c 0,21,22
 45 581 45 581 114.5 732.5 c 128,-1,23
 184 884 184 884 314.5 970.5 c 128,-1,24
 445 1057 445 1057 622 1067 c 1,9,-1
560 818 m 0,25,26
 511 818 511 818 475.5 800 c 128,-1,27
 440 782 440 782 416 748 c 128,-1,28
 392 714 392 714 377.5 659 c 128,-1,29
 363 604 363 604 357 536.5 c 128,-1,30
 351 469 351 469 351 377 c 0,31,32
 351 290 351 290 371 254.5 c 128,-1,33
 391 219 391 219 443 219 c 0,34,35
 557 219 557 219 602 324.5 c 128,-1,36
 647 430 647 430 647 661 c 0,37,38
 647 747 647 747 627.5 782.5 c 128,-1,39
 608 818 608 818 560 818 c 0,25,26
EndSplineSet
Substitution2: "'case' Case-Sensitive Forms lookup 28 subtable" Oacute
Substitution2: "'aalt' Access All Alternates lookup 0 subtable" Oacute
EndChar

StartChar: ocircumflex
Encoding: 244 244 182
Width: 1001
GlyphClass: 2
Flags: W
AnchorPoint: "Anchor-1" 0 0 basechar 0
AnchorPoint: "Anchor-0" 577 1042 basechar 0
LayerCount: 2
Fore
SplineSet
326 1176 m 1,0,-1
 259 1308 l 1,1,2
 280 1324 280 1324 302.5 1343.5 c 128,-1,3
 325 1363 325 1363 343.5 1378.5 c 128,-1,4
 362 1394 362 1394 389.5 1418.5 c 128,-1,5
 417 1443 417 1443 433 1457 c 128,-1,6
 449 1471 449 1471 481 1500 c 128,-1,7
 513 1529 513 1529 525.5 1541 c 128,-1,8
 538 1553 538 1553 575 1586.5 c 128,-1,9
 612 1620 612 1620 622 1630 c 1,10,-1
 692 1630 l 1,11,12
 810 1484 810 1484 986 1308 c 1,13,-1
 886 1176 l 1,14,-1
 852 1176 l 1,15,16
 707 1294 707 1294 630 1373 c 1,17,18
 531 1291 531 1291 360 1176 c 1,19,-1
 326 1176 l 1,0,-1
622 1067 m 1,20,-1
 654 1065 l 1,21,22
 799 1033 799 1033 878.5 938 c 128,-1,23
 958 843 958 843 958 681 c 0,24,25
 958 524 958 524 918 396 c 128,-1,26
 878 268 878 268 804 178 c 128,-1,27
 730 88 730 88 622.5 35.5 c 128,-1,28
 515 -17 515 -17 382 -25 c 1,29,-1
 351 -20 l 1,30,31
 45 48 45 48 45 384 c 0,32,33
 45 581 45 581 114.5 732.5 c 128,-1,34
 184 884 184 884 314.5 970.5 c 128,-1,35
 445 1057 445 1057 622 1067 c 1,20,-1
560 818 m 0,36,37
 511 818 511 818 475.5 800 c 128,-1,38
 440 782 440 782 416 748 c 128,-1,39
 392 714 392 714 377.5 659 c 128,-1,40
 363 604 363 604 357 536.5 c 128,-1,41
 351 469 351 469 351 377 c 0,42,43
 351 290 351 290 371 254.5 c 128,-1,44
 391 219 391 219 443 219 c 0,45,46
 557 219 557 219 602 324.5 c 128,-1,47
 647 430 647 430 647 661 c 0,48,49
 647 747 647 747 627.5 782.5 c 128,-1,50
 608 818 608 818 560 818 c 0,36,37
EndSplineSet
Substitution2: "'case' Case-Sensitive Forms lookup 28 subtable" Ocircumflex
Substitution2: "'aalt' Access All Alternates lookup 0 subtable" Ocircumflex
EndChar

StartChar: otilde
Encoding: 245 245 183
Width: 1001
GlyphClass: 2
Flags: W
AnchorPoint: "Anchor-1" 0 0 basechar 0
AnchorPoint: "Anchor-0" 577 1042 basechar 0
LayerCount: 2
Fore
SplineSet
1029 1498 m 1,0,-1
 1029 1469 l 1,1,-1
 864 1250 l 1,2,-1
 833 1239 l 1,3,4
 797 1244 797 1244 742.5 1257 c 128,-1,5
 688 1270 688 1270 642.5 1283 c 128,-1,6
 597 1296 597 1296 553 1306.5 c 128,-1,7
 509 1317 509 1317 489 1317 c 0,8,9
 479 1317 479 1317 469 1314 c 128,-1,10
 459 1311 459 1311 448 1303 c 128,-1,11
 437 1295 437 1295 429 1289 c 128,-1,12
 421 1283 421 1283 408 1268.5 c 128,-1,13
 395 1254 395 1254 388.5 1247 c 128,-1,14
 382 1240 382 1240 366.5 1221.5 c 128,-1,15
 351 1203 351 1203 346 1197 c 1,16,-1
 315 1197 l 1,17,-1
 213 1297 l 1,18,-1
 213 1327 l 1,19,-1
 377 1542 l 1,20,-1
 409 1553 l 1,21,22
 445 1549 445 1549 500 1536 c 128,-1,23
 555 1523 555 1523 600 1510.5 c 128,-1,24
 645 1498 645 1498 689 1488 c 128,-1,25
 733 1478 733 1478 752 1478 c 0,26,27
 762 1478 762 1478 772 1481 c 128,-1,28
 782 1484 782 1484 793.5 1492 c 128,-1,29
 805 1500 805 1500 812.5 1505.5 c 128,-1,30
 820 1511 820 1511 833.5 1525.5 c 128,-1,31
 847 1540 847 1540 853 1546.5 c 128,-1,32
 859 1553 859 1553 875.5 1572.5 c 128,-1,33
 892 1592 892 1592 897 1598 c 1,34,-1
 926 1598 l 1,35,-1
 1029 1498 l 1,0,-1
622 1067 m 1,36,-1
 654 1065 l 1,37,38
 799 1033 799 1033 878.5 938 c 128,-1,39
 958 843 958 843 958 681 c 0,40,41
 958 524 958 524 918 396 c 128,-1,42
 878 268 878 268 804 178 c 128,-1,43
 730 88 730 88 622.5 35.5 c 128,-1,44
 515 -17 515 -17 382 -25 c 1,45,-1
 351 -20 l 1,46,47
 45 48 45 48 45 384 c 0,48,49
 45 581 45 581 114.5 732.5 c 128,-1,50
 184 884 184 884 314.5 970.5 c 128,-1,51
 445 1057 445 1057 622 1067 c 1,36,-1
560 818 m 0,52,53
 511 818 511 818 475.5 800 c 128,-1,54
 440 782 440 782 416 748 c 128,-1,55
 392 714 392 714 377.5 659 c 128,-1,56
 363 604 363 604 357 536.5 c 128,-1,57
 351 469 351 469 351 377 c 0,58,59
 351 290 351 290 371 254.5 c 128,-1,60
 391 219 391 219 443 219 c 0,61,62
 557 219 557 219 602 324.5 c 128,-1,63
 647 430 647 430 647 661 c 0,64,65
 647 747 647 747 627.5 782.5 c 128,-1,66
 608 818 608 818 560 818 c 0,52,53
EndSplineSet
Substitution2: "'case' Case-Sensitive Forms lookup 28 subtable" Otilde
Substitution2: "'aalt' Access All Alternates lookup 0 subtable" Otilde
EndChar

